CivilManuscript-Regular.ufo
<glyph name="exclam" format="2">
  <advance width="600"/>
  <unicode hex="0021"/>
  <outline>
    <contour>
      <point x="56" y="10" type="line"/>
      <point x="59" y="5"/>
      <point x="65" y="2"/>
      <point x="74" y="2" type="curve" smooth="yes"/>
      <point x="97" y="2"/>
      <point x="117" y="12"/>
      <point x="137" y="32" type="curve" smooth="yes"/>
      <point x="156" y="52"/>
      <point x="166" y="68"/>
      <point x="166" y="81" type="curve" smooth="yes"/>
      <point x="166" y="98"/>
      <point x="141" y="99"/>
      <point x="113" y="80" type="curve" smooth="yes"/>
      <point x="82" y="60"/>
      <point x="54" y="31"/>
      <point x="54" y="15" type="curve"/>
      <point x="54" y="14"/>
      <point x="55" y="13"/>
      <point x="56" y="12" type="curve"/>
      <point x="56" y="12" type="line"/>
    </contour>
    <contour>
      <point x="182" y="131" type="curve"/>
      <point x="182" y="131" type="line"/>
      <point x="189" y="131"/>
      <point x="271" y="209"/>
      <point x="430" y="364" type="curve"/>
      <point x="521" y="455"/>
      <point x="583" y="517"/>
      <point x="615" y="552" type="curve" smooth="yes"/>
      <point x="647" y="587"/>
      <point x="663" y="610"/>
      <point x="663" y="621" type="curve"/>
      <point x="664" y="630"/>
      <point x="654" y="634"/>
      <point x="635" y="634" type="curve" smooth="yes"/>
      <point x="616" y="634"/>
      <point x="591" y="617"/>
      <point x="560" y="583" type="curve" smooth="yes"/>
      <point x="539" y="560"/>
      <point x="482" y="491"/>
      <point x="387" y="378" type="curve" smooth="yes"/>
      <point x="221" y="180" type="line"/>
      <point x="195" y="151"/>
      <point x="182" y="134"/>
    </contour>
  </outline>
</glyph>
<glyph name="quotedbl" format="2">
  <advance width="306"/>
  <unicode hex="0022"/>
  <outline>
    <contour>
      <point x="212" y="575" type="curve" smooth="yes"/>
      <point x="211" y="555"/>
      <point x="222" y="545"/>
      <point x="244" y="545" type="curve" smooth="yes"/>
      <point x="271" y="545"/>
      <point x="294" y="557"/>
      <point x="311" y="582" type="curve" smooth="yes"/>
      <point x="318" y="592"/>
      <point x="322" y="601"/>
      <point x="324" y="610" type="curve" smooth="yes"/>
      <point x="328" y="627"/>
      <point x="319" y="635"/>
      <point x="297" y="635" type="curve" smooth="yes"/>
      <point x="261" y="635"/>
      <point x="264" y="652"/>
      <point x="307" y="684" type="curve" smooth="yes"/>
      <point x="329" y="700"/>
      <point x="350" y="713"/>
      <point x="372" y="723" type="curve" smooth="yes"/>
      <point x="393" y="733"/>
      <point x="404" y="739"/>
      <point x="405" y="742" type="curve"/>
      <point x="405" y="745"/>
      <point x="403" y="746"/>
      <point x="399" y="746" type="curve" smooth="yes"/>
      <point x="388" y="746"/>
      <point x="371" y="740"/>
      <point x="346" y="728" type="curve" smooth="yes"/>
      <point x="278" y="696"/>
      <point x="225" y="641"/>
      <point x="214" y="592" type="curve" smooth="yes"/>
      <point x="213" y="589"/>
      <point x="213" y="583"/>
    </contour>
    <contour>
      <point x="76" y="596" type="curve" smooth="yes"/>
      <point x="68" y="563"/>
      <point x="80" y="543"/>
      <point x="103" y="543" type="curve" smooth="yes"/>
      <point x="118" y="543"/>
      <point x="133" y="551"/>
      <point x="150" y="566" type="curve" smooth="yes"/>
      <point x="166" y="579"/>
      <point x="175" y="591"/>
      <point x="178" y="604" type="curve" smooth="yes"/>
      <point x="182" y="622"/>
      <point x="173" y="632"/>
      <point x="152" y="635" type="curve" smooth="yes"/>
      <point x="122" y="639" type="line"/>
      <point x="122" y="640" type="line"/>
      <point x="138" y="659"/>
      <point x="146" y="669"/>
      <point x="146" y="669" type="curve"/>
      <point x="161" y="687"/>
      <point x="185" y="704"/>
      <point x="219" y="720" type="curve"/>
      <point x="247" y="732"/>
      <point x="263" y="740"/>
      <point x="266" y="743" type="curve"/>
      <point x="267" y="746"/>
      <point x="266" y="747"/>
      <point x="262" y="747" type="curve" smooth="yes"/>
      <point x="253" y="747"/>
      <point x="233" y="741"/>
      <point x="204" y="728" type="curve" smooth="yes"/>
      <point x="131" y="695"/>
      <point x="89" y="651"/>
    </contour>
  </outline>
</glyph>
<glyph name="percent" format="2">
  <advance width="550"/>
  <unicode hex="0025"/>
  <outline>
    <contour>
      <point x="227" y="75" type="curve" smooth="yes"/>
      <point x="227" y="44"/>
      <point x="240" y="29"/>
      <point x="267" y="29" type="curve" smooth="yes"/>
      <point x="311" y="29"/>
      <point x="367" y="65"/>
      <point x="435" y="137" type="curve" smooth="yes"/>
      <point x="466" y="169"/>
      <point x="481" y="193"/>
      <point x="481" y="210" type="curve" smooth="yes"/>
      <point x="481" y="215"/>
      <point x="481" y="219"/>
      <point x="481" y="219" type="curve"/>
      <point x="478" y="243"/>
      <point x="467" y="255"/>
      <point x="447" y="255" type="curve" smooth="yes"/>
      <point x="432" y="255"/>
      <point x="407" y="247"/>
      <point x="374" y="230" type="curve"/>
      <point x="336" y="209"/>
      <point x="302" y="184"/>
      <point x="272" y="154" type="curve" smooth="yes"/>
      <point x="242" y="124"/>
      <point x="227" y="98"/>
    </contour>
    <contour>
      <point x="264" y="61" type="curve" smooth="yes"/>
      <point x="264" y="77"/>
      <point x="278" y="101"/>
      <point x="306" y="133" type="curve" smooth="yes"/>
      <point x="365" y="200"/>
      <point x="411" y="233"/>
      <point x="443" y="233" type="curve" smooth="yes"/>
      <point x="455" y="233"/>
      <point x="461" y="228"/>
      <point x="461" y="219" type="curve"/>
      <point x="462" y="210"/>
      <point x="450" y="191"/>
      <point x="427" y="163" type="curve" smooth="yes"/>
      <point x="404" y="135"/>
      <point x="379" y="110"/>
      <point x="353" y="88" type="curve"/>
      <point x="318" y="61"/>
      <point x="293" y="47"/>
      <point x="278" y="47" type="curve" smooth="yes"/>
      <point x="269" y="47"/>
      <point x="264" y="52"/>
    </contour>
    <contour>
      <point x="0" y="7" type="curve"/>
      <point x="0" y="6"/>
      <point x="1" y="5"/>
      <point x="4" y="4" type="curve" smooth="yes"/>
      <point x="9" y="1"/>
      <point x="19" y="0"/>
      <point x="36" y="0" type="curve"/>
      <point x="53" y="1"/>
      <point x="68" y="6"/>
      <point x="81" y="17" type="curve" smooth="yes"/>
      <point x="94" y="28"/>
      <point x="127" y="61"/>
      <point x="178" y="118" type="curve" smooth="yes"/>
      <point x="237" y="185"/>
      <point x="317" y="267"/>
      <point x="418" y="366" type="curve"/>
      <point x="552" y="500" type="line"/>
      <point x="552" y="510"/>
      <point x="535" y="503"/>
      <point x="528" y="496" type="curve" smooth="yes"/>
      <point x="523" y="491"/>
      <point x="493" y="473"/>
      <point x="439" y="442" type="curve" smooth="yes"/>
      <point x="384" y="411"/>
      <point x="355" y="396"/>
      <point x="351" y="396" type="curve" smooth="yes"/>
      <point x="347" y="396"/>
      <point x="344" y="405"/>
      <point x="341" y="423" type="curve"/>
      <point x="340" y="442"/>
      <point x="328" y="452"/>
      <point x="307" y="453" type="curve"/>
      <point x="297" y="453" type="line" smooth="yes"/>
      <point x="269" y="453"/>
      <point x="225" y="431"/>
      <point x="165" y="388" type="curve" smooth="yes"/>
      <point x="109" y="349"/>
      <point x="81" y="310"/>
      <point x="81" y="271" type="curve" smooth="yes"/>
      <point x="81" y="250"/>
      <point x="92" y="236"/>
      <point x="113" y="231" type="curve" smooth="yes"/>
      <point x="117" y="230"/>
      <point x="123" y="229"/>
      <point x="130" y="229" type="curve" smooth="yes"/>
      <point x="158" y="229"/>
      <point x="201" y="254"/>
      <point x="260" y="304" type="curve" smooth="yes"/>
      <point x="293" y="331"/>
      <point x="331" y="356"/>
      <point x="374" y="379" type="curve" smooth="yes"/>
      <point x="430" y="408" type="line"/>
      <point x="390" y="369" type="line"/>
      <point x="177" y="173" type="line" smooth="yes"/>
      <point x="68" y="72"/>
      <point x="9" y="16"/>
    </contour>
    <contour>
      <point x="116" y="258" type="curve" smooth="yes"/>
      <point x="116" y="285"/>
      <point x="149" y="326"/>
      <point x="214" y="383" type="curve"/>
      <point x="257" y="418"/>
      <point x="286" y="435"/>
      <point x="301" y="435" type="curve" smooth="yes"/>
      <point x="310" y="435"/>
      <point x="315" y="428"/>
      <point x="315" y="413" type="curve" smooth="yes"/>
      <point x="315" y="393"/>
      <point x="289" y="360"/>
      <point x="237" y="315" type="curve" smooth="yes"/>
      <point x="185" y="270"/>
      <point x="148" y="247"/>
      <point x="127" y="247" type="curve" smooth="yes"/>
      <point x="119" y="247"/>
      <point x="116" y="250"/>
    </contour>
  </outline>
</glyph>
<glyph name="ampersand" format="2">
  <advance width="667"/>
  <unicode hex="0026"/>
  <outline>
    <contour>
      <point x="50" y="139" type="curve" smooth="yes"/>
      <point x="61" y="131"/>
      <point x="76" y="113"/>
      <point x="96" y="86" type="curve" smooth="yes"/>
      <point x="136" y="31"/>
      <point x="171" y="8"/>
      <point x="228" y="1" type="curve" smooth="yes"/>
      <point x="232" y="0"/>
      <point x="238" y="0"/>
      <point x="247" y="0" type="curve" smooth="yes"/>
      <point x="288" y="0"/>
      <point x="332" y="7"/>
      <point x="379" y="22" type="curve" smooth="yes"/>
      <point x="406" y="31"/>
      <point x="440" y="35"/>
      <point x="480" y="35" type="curve" smooth="yes"/>
      <point x="520" y="35"/>
      <point x="551" y="39"/>
      <point x="572" y="48" type="curve" smooth="yes"/>
      <point x="605" y="61"/>
      <point x="637" y="82"/>
      <point x="667" y="109" type="curve" smooth="yes"/>
      <point x="697" y="136"/>
      <point x="719" y="164"/>
      <point x="733" y="192" type="curve"/>
      <point x="769" y="271"/>
      <point x="768" y="345"/>
      <point x="735" y="416" type="curve" smooth="yes"/>
      <point x="728" y="432"/>
      <point x="711" y="452"/>
      <point x="687" y="476" type="curve" smooth="yes"/>
      <point x="662" y="500"/>
      <point x="650" y="513"/>
      <point x="650" y="514" type="curve"/>
      <point x="650" y="515"/>
      <point x="665" y="528"/>
      <point x="695" y="552" type="curve" smooth="yes"/>
      <point x="732" y="581"/>
      <point x="751" y="602"/>
      <point x="751" y="613" type="curve"/>
      <point x="751" y="614"/>
      <point x="750" y="617"/>
      <point x="749" y="621" type="curve"/>
      <point x="745" y="626"/>
      <point x="739" y="629"/>
      <point x="731" y="629" type="curve"/>
      <point x="726" y="630"/>
      <point x="721" y="629"/>
      <point x="716" y="627" type="curve" smooth="yes"/>
      <point x="711" y="625"/>
      <point x="688" y="610"/>
      <point x="647" y="583" type="curve" smooth="yes"/>
      <point x="588" y="543" type="line"/>
      <point x="588" y="543" type="line"/>
      <point x="521" y="552" type="line" smooth="yes"/>
      <point x="490" y="556"/>
      <point x="460" y="558"/>
      <point x="433" y="558" type="curve" smooth="yes"/>
      <point x="294" y="558"/>
      <point x="177" y="507"/>
      <point x="80" y="406" type="curve" smooth="yes"/>
      <point x="31" y="355"/>
      <point x="5" y="306"/>
      <point x="1" y="261" type="curve" smooth="yes"/>
      <point x="0" y="256"/>
      <point x="0" y="250"/>
      <point x="0" y="241" type="curve" smooth="yes"/>
      <point x="0" y="199"/>
      <point x="17" y="165"/>
    </contour>
    <contour>
      <point x="619" y="536" type="curve" smooth="yes"/>
      <point x="619" y="538"/>
      <point x="622" y="542"/>
      <point x="628" y="549" type="curve"/>
      <point x="636" y="556"/>
      <point x="651" y="567"/>
      <point x="675" y="582" type="curve" smooth="yes"/>
      <point x="698" y="597"/>
      <point x="713" y="604"/>
      <point x="718" y="604" type="curve"/>
      <point x="719" y="604"/>
      <point x="720" y="603"/>
      <point x="720" y="602" type="curve"/>
      <point x="720" y="599"/>
      <point x="714" y="591"/>
      <point x="702" y="579" type="curve" smooth="yes"/>
      <point x="675" y="554"/>
      <point x="636" y="532"/>
      <point x="623" y="532" type="curve"/>
      <point x="623" y="532"/>
      <point x="623" y="532"/>
      <point x="623" y="532" type="curve"/>
      <point x="620" y="532"/>
      <point x="619" y="533"/>
    </contour>
    <contour>
      <point x="37" y="188" type="curve"/>
      <point x="34" y="195"/>
      <point x="32" y="208"/>
      <point x="32" y="225" type="curve" smooth="yes"/>
      <point x="32" y="250"/>
      <point x="35" y="271"/>
      <point x="42" y="288" type="curve" smooth="yes"/>
      <point x="61" y="339"/>
      <point x="103" y="389"/>
      <point x="168" y="437" type="curve" smooth="yes"/>
      <point x="233" y="485"/>
      <point x="301" y="517"/>
      <point x="373" y="534" type="curve" smooth="yes"/>
      <point x="388" y="537"/>
      <point x="412" y="539"/>
      <point x="445" y="539" type="curve" smooth="yes"/>
      <point x="494" y="539"/>
      <point x="526" y="536"/>
      <point x="540" y="531" type="curve" smooth="yes"/>
      <point x="547" y="528"/>
      <point x="551" y="523"/>
      <point x="551" y="518" type="curve" smooth="yes"/>
      <point x="551" y="495"/>
      <point x="500" y="465"/>
      <point x="398" y="428" type="curve"/>
      <point x="285" y="383"/>
      <point x="201" y="334"/>
      <point x="147" y="281" type="curve"/>
      <point x="119" y="252"/>
      <point x="99" y="219"/>
      <point x="86" y="183" type="curve" smooth="yes"/>
      <point x="79" y="162"/>
      <point x="73" y="152"/>
      <point x="70" y="152" type="curve" smooth="yes"/>
      <point x="59" y="152"/>
      <point x="42" y="171"/>
    </contour>
    <contour>
      <point x="475" y="57" type="curve" smooth="yes"/>
      <point x="475" y="63"/>
      <point x="491" y="82"/>
      <point x="523" y="114" type="curve" smooth="yes"/>
      <point x="556" y="148"/>
      <point x="578" y="177"/>
      <point x="591" y="201" type="curve"/>
      <point x="618" y="256"/>
      <point x="619" y="312"/>
      <point x="586" y="343" type="curve" smooth="yes"/>
      <point x="578" y="350"/>
      <point x="574" y="355"/>
      <point x="574" y="359" type="curve" smooth="yes"/>
      <point x="574" y="361"/>
      <point x="581" y="374"/>
      <point x="594" y="397" type="curve" smooth="yes"/>
      <point x="605" y="415"/>
      <point x="611" y="427"/>
      <point x="611" y="434" type="curve"/>
      <point x="611" y="435"/>
      <point x="611" y="436"/>
      <point x="610" y="436" type="curve"/>
      <point x="607" y="436"/>
      <point x="601" y="430"/>
      <point x="592" y="418" type="curve" smooth="yes"/>
      <point x="591" y="416"/>
      <point x="587" y="410"/>
      <point x="579" y="401" type="curve" smooth="yes"/>
      <point x="563" y="382"/>
      <point x="555" y="373"/>
      <point x="539" y="373" type="curve" smooth="yes"/>
      <point x="537" y="373"/>
      <point x="529" y="374"/>
      <point x="516" y="375" type="curve" smooth="yes"/>
      <point x="479" y="378"/>
      <point x="473" y="379"/>
      <point x="473" y="388" type="curve"/>
      <point x="474" y="394"/>
      <point x="484" y="406"/>
      <point x="505" y="426" type="curve" smooth="yes"/>
      <point x="526" y="445"/>
      <point x="542" y="459"/>
      <point x="555" y="466" type="curve" smooth="yes"/>
      <point x="584" y="483"/>
      <point x="605" y="492"/>
      <point x="618" y="492" type="curve" smooth="yes"/>
      <point x="628" y="492"/>
      <point x="640" y="487"/>
      <point x="653" y="478" type="curve" smooth="yes"/>
      <point x="703" y="445"/>
      <point x="729" y="397"/>
      <point x="732" y="334" type="curve"/>
      <point x="732" y="330" type="line" smooth="yes"/>
      <point x="732" y="327"/>
      <point x="732" y="325"/>
      <point x="732" y="322" type="curve" smooth="yes"/>
      <point x="732" y="318" type="line" smooth="yes"/>
      <point x="732" y="279"/>
      <point x="722" y="241"/>
      <point x="701" y="202" type="curve" smooth="yes"/>
      <point x="689" y="179"/>
      <point x="670" y="154"/>
      <point x="644" y="129" type="curve" smooth="yes"/>
      <point x="618" y="104"/>
      <point x="593" y="85"/>
      <point x="569" y="73" type="curve" smooth="yes"/>
      <point x="538" y="58"/>
      <point x="512" y="51"/>
      <point x="490" y="51" type="curve" smooth="yes"/>
      <point x="480" y="51"/>
      <point x="475" y="53"/>
    </contour>
    <contour>
      <point x="131" y="135" type="curve"/>
      <point x="131" y="135" type="line"/>
      <point x="130" y="150"/>
      <point x="130" y="157"/>
      <point x="130" y="158" type="curve"/>
      <point x="131" y="186"/>
      <point x="156" y="223"/>
      <point x="207" y="269" type="curve" smooth="yes"/>
      <point x="258" y="315"/>
      <point x="321" y="357"/>
      <point x="396" y="396" type="curve" smooth="yes"/>
      <point x="434" y="415"/>
      <point x="456" y="425"/>
      <point x="463" y="425" type="curve" smooth="yes"/>
      <point x="467" y="425"/>
      <point x="469" y="422"/>
      <point x="469" y="417" type="curve" smooth="yes"/>
      <point x="469" y="404"/>
      <point x="432" y="372"/>
      <point x="376" y="339" type="curve" smooth="yes"/>
      <point x="293" y="290"/>
      <point x="241" y="234"/>
      <point x="220" y="169" type="curve"/>
      <point x="209" y="138"/>
      <point x="205" y="133"/>
      <point x="180" y="133" type="curve" smooth="yes"/>
      <point x="178" y="133"/>
      <point x="175" y="133"/>
      <point x="172" y="133" type="curve" smooth="yes"/>
      <point x="169" y="133"/>
      <point x="155" y="134"/>
    </contour>
    <contour>
      <point x="408" y="247" type="curve" smooth="yes"/>
      <point x="408" y="254"/>
      <point x="416" y="273"/>
      <point x="431" y="305" type="curve" smooth="yes"/>
      <point x="443" y="331"/>
      <point x="455" y="346"/>
      <point x="466" y="351" type="curve" smooth="yes"/>
      <point x="478" y="356"/>
      <point x="489" y="358"/>
      <point x="500" y="358" type="curve" smooth="yes"/>
      <point x="513" y="358"/>
      <point x="520" y="355"/>
      <point x="520" y="349" type="curve" smooth="yes"/>
      <point x="520" y="337"/>
      <point x="497" y="311"/>
      <point x="450" y="271" type="curve" smooth="yes"/>
      <point x="428" y="252"/>
      <point x="415" y="243"/>
      <point x="411" y="243" type="curve" smooth="yes"/>
      <point x="409" y="243"/>
      <point x="408" y="244"/>
    </contour>
    <contour>
      <point x="404" y="116" type="curve" smooth="yes"/>
      <point x="396" y="116"/>
      <point x="391" y="127"/>
      <point x="389" y="148" type="curve"/>
      <point x="389" y="151" type="line" smooth="yes"/>
      <point x="389" y="153"/>
      <point x="389" y="155"/>
      <point x="389" y="157" type="curve" smooth="yes"/>
      <point x="389" y="160" type="line" smooth="yes"/>
      <point x="389" y="171"/>
      <point x="390" y="179"/>
      <point x="391" y="186" type="curve"/>
      <point x="396" y="197"/>
      <point x="412" y="214"/>
      <point x="439" y="235" type="curve" smooth="yes"/>
      <point x="474" y="264"/>
      <point x="501" y="289"/>
      <point x="522" y="309" type="curve" smooth="yes"/>
      <point x="543" y="329"/>
      <point x="555" y="339"/>
      <point x="559" y="339" type="curve" smooth="yes"/>
      <point x="562" y="339"/>
      <point x="568" y="335"/>
      <point x="576" y="327" type="curve" smooth="yes"/>
      <point x="583" y="320"/>
      <point x="587" y="304"/>
      <point x="587" y="281" type="curve" smooth="yes"/>
      <point x="587" y="258"/>
      <point x="583" y="238"/>
      <point x="576" y="223" type="curve" smooth="yes"/>
      <point x="566" y="202"/>
      <point x="542" y="173"/>
      <point x="505" y="138" type="curve" smooth="yes"/>
      <point x="468" y="103"/>
      <point x="443" y="85"/>
      <point x="431" y="85" type="curve" smooth="yes"/>
      <point x="424" y="85"/>
      <point x="421" y="87"/>
      <point x="421" y="90" type="curve" smooth="yes"/>
      <point x="421" y="96"/>
      <point x="429" y="105"/>
      <point x="445" y="117" type="curve" smooth="yes"/>
      <point x="462" y="130"/>
      <point x="477" y="144"/>
      <point x="491" y="160" type="curve" smooth="yes"/>
      <point x="504" y="176"/>
      <point x="511" y="188"/>
      <point x="511" y="195" type="curve" smooth="yes"/>
      <point x="511" y="198"/>
      <point x="510" y="199"/>
      <point x="507" y="199" type="curve" smooth="yes"/>
      <point x="503" y="199"/>
      <point x="488" y="186"/>
      <point x="463" y="160" type="curve" smooth="yes"/>
      <point x="434" y="131"/>
      <point x="415" y="116"/>
    </contour>
    <contour>
      <point x="249" y="166" type="curve" smooth="yes"/>
      <point x="249" y="171"/>
      <point x="254" y="184"/>
      <point x="263" y="204" type="curve"/>
      <point x="275" y="227"/>
      <point x="297" y="254"/>
      <point x="331" y="284" type="curve" smooth="yes"/>
      <point x="364" y="314"/>
      <point x="387" y="329"/>
      <point x="400" y="329" type="curve" smooth="yes"/>
      <point x="409" y="329"/>
      <point x="409" y="319"/>
      <point x="401" y="308" type="curve" smooth="yes"/>
      <point x="399" y="305"/>
      <point x="391" y="286"/>
      <point x="376" y="253" type="curve" smooth="yes"/>
      <point x="361" y="220"/>
      <point x="353" y="201"/>
      <point x="350" y="198" type="curve" smooth="yes"/>
      <point x="345" y="191"/>
      <point x="331" y="183"/>
      <point x="308" y="172" type="curve" smooth="yes"/>
      <point x="263" y="151"/>
      <point x="249" y="153"/>
    </contour>
    <contour>
      <point x="255" y="116" type="curve" smooth="yes"/>
      <point x="255" y="118"/>
      <point x="255" y="119"/>
      <point x="256" y="120" type="curve"/>
      <point x="259" y="129"/>
      <point x="290" y="146"/>
      <point x="322" y="158" type="curve"/>
      <point x="338" y="163"/>
      <point x="347" y="166"/>
      <point x="349" y="166" type="curve" smooth="yes"/>
      <point x="356" y="166"/>
      <point x="364" y="150"/>
      <point x="364" y="119" type="curve" smooth="yes"/>
      <point x="364" y="96" type="line"/>
      <point x="364" y="96"/>
      <point x="364" y="96"/>
      <point x="364" y="96" type="curve"/>
      <point x="339" y="93" type="line" smooth="yes"/>
      <point x="334" y="92"/>
      <point x="327" y="92"/>
      <point x="318" y="92" type="curve" smooth="yes"/>
      <point x="282" y="92"/>
      <point x="255" y="103"/>
    </contour>
    <contour>
      <point x="135" y="76" type="curve" smooth="yes"/>
      <point x="132" y="83"/>
      <point x="130" y="88"/>
      <point x="130" y="92" type="curve" smooth="yes"/>
      <point x="130" y="106"/>
      <point x="144" y="113"/>
      <point x="172" y="113" type="curve" smooth="yes"/>
      <point x="185" y="113" type="line"/>
      <point x="204" y="112"/>
      <point x="223" y="106"/>
      <point x="242" y="95" type="curve" smooth="yes"/>
      <point x="255" y="88"/>
      <point x="265" y="84"/>
      <point x="273" y="82" type="curve" smooth="yes"/>
      <point x="281" y="80"/>
      <point x="300" y="78"/>
      <point x="331" y="77" type="curve"/>
      <point x="372" y="74"/>
      <point x="393" y="72"/>
      <point x="396" y="69" type="curve" smooth="yes"/>
      <point x="397" y="68"/>
      <point x="397" y="67"/>
      <point x="397" y="66" type="curve"/>
      <point x="398" y="60"/>
      <point x="386" y="53"/>
      <point x="363" y="44" type="curve" smooth="yes"/>
      <point x="340" y="35"/>
      <point x="316" y="30"/>
      <point x="292" y="27" type="curve" smooth="yes"/>
      <point x="278" y="25"/>
      <point x="265" y="24"/>
      <point x="253" y="24" type="curve" smooth="yes"/>
      <point x="192" y="24"/>
      <point x="153" y="41"/>
    </contour>
  </outline>
</glyph>
<glyph name="quotesingle" format="2">
  <advance width="245"/>
  <unicode hex="0027"/>
  <outline>
    <contour>
      <point x="79" y="605" type="curve" smooth="yes"/>
      <point x="70" y="566"/>
      <point x="89" y="544"/>
      <point x="118" y="544" type="curve" smooth="yes"/>
      <point x="146" y="544"/>
      <point x="177" y="570"/>
      <point x="184" y="602" type="curve" smooth="yes"/>
      <point x="186" y="610"/>
      <point x="187" y="618"/>
      <point x="186" y="625" type="curve" smooth="yes"/>
      <point x="184" y="638"/>
      <point x="177" y="645"/>
      <point x="166" y="645" type="curve" smooth="yes"/>
      <point x="153" y="645"/>
      <point x="123" y="638"/>
      <point x="125" y="646" type="curve" smooth="yes"/>
      <point x="128" y="657"/>
      <point x="139" y="671"/>
      <point x="160" y="690" type="curve" smooth="yes"/>
      <point x="201" y="728"/>
      <point x="244" y="742"/>
      <point x="245" y="746" type="curve"/>
      <point x="245" y="748"/>
      <point x="242" y="749"/>
      <point x="237" y="749" type="curve"/>
      <point x="226" y="750"/>
      <point x="207" y="742"/>
      <point x="181" y="727" type="curve" smooth="yes"/>
      <point x="130" y="697"/>
      <point x="88" y="644"/>
    </contour>
  </outline>
</glyph>
<glyph name="parenleft" format="2">
  <advance width="359"/>
  <unicode hex="0028"/>
  <outline>
    <contour>
      <point x="29" y="-16" type="curve" smooth="yes"/>
      <point x="34" y="-23"/>
      <point x="38" y="-27"/>
      <point x="40" y="-27" type="curve" smooth="yes"/>
      <point x="42" y="-27"/>
      <point x="43" y="-22"/>
      <point x="43" y="-13" type="curve" smooth="yes"/>
      <point x="43" y="6"/>
      <point x="38" y="20"/>
      <point x="38" y="44" type="curve" smooth="yes"/>
      <point x="38" y="119"/>
      <point x="74" y="205"/>
      <point x="145" y="302" type="curve" smooth="yes"/>
      <point x="163" y="326"/>
      <point x="195" y="361"/>
      <point x="243" y="408" type="curve" smooth="yes"/>
      <point x="290" y="455"/>
      <point x="327" y="488"/>
      <point x="353" y="509" type="curve"/>
      <point x="416" y="557"/>
      <point x="473" y="594"/>
      <point x="527" y="621" type="curve" smooth="yes"/>
      <point x="580" y="648"/>
      <point x="631" y="668"/>
      <point x="679" y="682" type="curve" smooth="yes"/>
      <point x="727" y="696"/>
      <point x="751" y="707"/>
      <point x="751" y="714" type="curve"/>
      <point x="752" y="717"/>
      <point x="747" y="718"/>
      <point x="739" y="718" type="curve" smooth="yes"/>
      <point x="730" y="718"/>
      <point x="710" y="714"/>
      <point x="677" y="706" type="curve" smooth="yes"/>
      <point x="554" y="675"/>
      <point x="440" y="625"/>
      <point x="337" y="555" type="curve" smooth="yes"/>
      <point x="234" y="485"/>
      <point x="150" y="402"/>
      <point x="87" y="305" type="curve" smooth="yes"/>
      <point x="31" y="220"/>
      <point x="3" y="144"/>
      <point x="3" y="75" type="curve" smooth="yes"/>
      <point x="3" y="39"/>
      <point x="12" y="9"/>
    </contour>
  </outline>
</glyph>
<glyph name="parenright" format="2">
  <advance width="657"/>
  <unicode hex="0029"/>
  <outline>
    <contour>
      <point x="6" y="-18" type="curve" smooth="yes"/>
      <point x="9" y="-21"/>
      <point x="23" y="-22"/>
      <point x="63" y="-13" type="curve" smooth="yes"/>
      <point x="103" y="-4"/>
      <point x="124" y="11"/>
      <point x="135" y="11" type="curve"/>
      <point x="141" y="12"/>
      <point x="167" y="21"/>
      <point x="215" y="41" type="curve" smooth="yes"/>
      <point x="262" y="60"/>
      <point x="297" y="76"/>
      <point x="318" y="88" type="curve"/>
      <point x="410" y="137"/>
      <point x="490" y="197"/>
      <point x="558" y="269" type="curve" smooth="yes"/>
      <point x="626" y="340"/>
      <point x="676" y="416"/>
      <point x="709" y="497" type="curve" smooth="yes"/>
      <point x="727" y="541"/>
      <point x="736" y="584"/>
      <point x="736" y="626" type="curve" smooth="yes"/>
      <point x="736" y="649"/>
      <point x="733" y="670"/>
      <point x="726" y="687" type="curve" smooth="yes"/>
      <point x="717" y="710"/>
      <point x="701" y="731"/>
      <point x="694" y="731" type="curve"/>
      <point x="693" y="731"/>
      <point x="691" y="730"/>
      <point x="690" y="728" type="curve"/>
      <point x="690" y="726" type="line" smooth="yes"/>
      <point x="690" y="723"/>
      <point x="692" y="713"/>
      <point x="696" y="697" type="curve" smooth="yes"/>
      <point x="699" y="687"/>
      <point x="701" y="674"/>
      <point x="701" y="657" type="curve" smooth="yes"/>
      <point x="701" y="612"/>
      <point x="688" y="564"/>
      <point x="661" y="512" type="curve"/>
      <point x="619" y="427"/>
      <point x="548" y="338"/>
      <point x="449" y="246" type="curve" smooth="yes"/>
      <point x="350" y="154"/>
      <point x="255" y="89"/>
      <point x="166" y="51" type="curve" smooth="yes"/>
      <point x="117" y="30"/>
      <point x="85" y="13"/>
      <point x="73" y="12" type="curve"/>
      <point x="40" y="5"/>
      <point x="18" y="-2"/>
      <point x="7" y="-9" type="curve" smooth="yes"/>
      <point x="3" y="-12"/>
      <point x="3" y="-15"/>
    </contour>
  </outline>
</glyph>
<glyph name="asterisk" format="2">
  <advance width="387"/>
  <unicode hex="002A"/>
  <outline>
    <contour>
      <point x="85" y="556" type="curve" smooth="yes"/>
      <point x="85" y="551"/>
      <point x="89" y="549"/>
      <point x="98" y="549" type="curve" smooth="yes"/>
      <point x="107" y="549"/>
      <point x="124" y="563"/>
      <point x="149" y="591" type="curve" smooth="yes"/>
      <point x="188" y="633" type="line"/>
      <point x="188" y="632" type="line"/>
      <point x="207" y="591"/>
      <point x="218" y="567"/>
      <point x="220" y="561" type="curve" smooth="yes"/>
      <point x="222" y="554"/>
      <point x="227" y="550"/>
      <point x="234" y="550" type="curve" smooth="yes"/>
      <point x="242" y="550"/>
      <point x="249" y="557"/>
      <point x="249" y="565" type="curve" smooth="yes"/>
      <point x="249" y="573"/>
      <point x="244" y="588"/>
      <point x="234" y="609" type="curve" smooth="yes"/>
      <point x="222" y="633"/>
      <point x="216" y="645"/>
      <point x="216" y="646" type="curve"/>
      <point x="216" y="648"/>
      <point x="233" y="649"/>
      <point x="268" y="649" type="curve" smooth="yes"/>
      <point x="311" y="649"/>
      <point x="332" y="655"/>
      <point x="332" y="666" type="curve" smooth="yes"/>
      <point x="332" y="668"/>
      <point x="315" y="670"/>
      <point x="280" y="671" type="curve" smooth="yes"/>
      <point x="225" y="673" type="line"/>
      <point x="226" y="674" type="line"/>
      <point x="260" y="711" type="line" smooth="yes"/>
      <point x="283" y="736"/>
      <point x="295" y="754"/>
      <point x="295" y="765" type="curve" smooth="yes"/>
      <point x="295" y="768"/>
      <point x="293" y="770"/>
      <point x="290" y="770" type="curve" smooth="yes"/>
      <point x="287" y="770"/>
      <point x="271" y="755"/>
      <point x="242" y="726" type="curve" smooth="yes"/>
      <point x="198" y="681" type="line"/>
      <point x="197" y="681" type="line"/>
      <point x="172" y="727" type="line" smooth="yes"/>
      <point x="156" y="758"/>
      <point x="145" y="774"/>
      <point x="138" y="775" type="curve"/>
      <point x="137" y="775"/>
      <point x="135" y="775"/>
      <point x="134" y="775" type="curve"/>
      <point x="131" y="775"/>
      <point x="129" y="774"/>
      <point x="129" y="771" type="curve"/>
      <point x="129" y="770"/>
      <point x="135" y="754"/>
      <point x="148" y="724" type="curve" smooth="yes"/>
      <point x="161" y="694"/>
      <point x="167" y="678"/>
      <point x="167" y="676" type="curve" smooth="yes"/>
      <point x="167" y="672"/>
      <point x="148" y="670"/>
      <point x="110" y="670" type="curve" smooth="yes"/>
      <point x="72" y="670"/>
      <point x="53" y="666"/>
      <point x="53" y="659" type="curve"/>
      <point x="53" y="658"/>
      <point x="54" y="656"/>
      <point x="55" y="652" type="curve"/>
      <point x="58" y="646"/>
      <point x="75" y="643"/>
      <point x="108" y="643" type="curve" smooth="yes"/>
      <point x="158" y="643" type="line"/>
      <point x="159" y="643" type="line"/>
      <point x="122" y="605" type="line" smooth="yes"/>
      <point x="97" y="580"/>
      <point x="85" y="564"/>
    </contour>
  </outline>
</glyph>
<glyph name="plus" format="2">
  <advance width="368"/>
  <unicode hex="002B"/>
  <outline>
    <contour>
      <point x="60" y="4" type="curve"/>
      <point x="60" y="3"/>
      <point x="61" y="2"/>
      <point x="63" y="1" type="curve"/>
      <point x="64" y="1" type="line"/>
      <point x="72" y="1"/>
      <point x="106" y="38"/>
      <point x="166" y="112" type="curve" smooth="yes"/>
      <point x="217" y="174" type="line"/>
      <point x="313" y="180" type="line" smooth="yes"/>
      <point x="392" y="184"/>
      <point x="431" y="189"/>
      <point x="431" y="195" type="curve" smooth="yes"/>
      <point x="431" y="204"/>
      <point x="398" y="209"/>
      <point x="332" y="212" type="curve"/>
      <point x="283" y="213"/>
      <point x="258" y="215"/>
      <point x="258" y="218" type="curve" smooth="yes"/>
      <point x="258" y="222"/>
      <point x="277" y="248"/>
      <point x="314" y="296" type="curve" smooth="yes"/>
      <point x="350" y="341"/>
      <point x="368" y="369"/>
      <point x="368" y="379" type="curve"/>
      <point x="368" y="380"/>
      <point x="368" y="381"/>
      <point x="367" y="381" type="curve"/>
      <point x="363" y="381"/>
      <point x="355" y="375"/>
      <point x="342" y="362" type="curve" smooth="yes"/>
      <point x="317" y="338"/>
      <point x="276" y="289"/>
      <point x="221" y="214" type="curve"/>
      <point x="221" y="214" type="line"/>
      <point x="128" y="211" type="line" smooth="yes"/>
      <point x="43" y="208"/>
      <point x="1" y="203"/>
      <point x="1" y="195" type="curve" smooth="yes"/>
      <point x="1" y="190"/>
      <point x="28" y="185"/>
      <point x="82" y="182" type="curve" smooth="yes"/>
      <point x="142" y="179"/>
      <point x="172" y="174"/>
      <point x="172" y="167" type="curve" smooth="yes"/>
      <point x="172" y="162"/>
      <point x="153" y="135"/>
      <point x="116" y="85" type="curve" smooth="yes"/>
      <point x="79" y="35"/>
      <point x="60" y="8"/>
    </contour>
  </outline>
</glyph>
<glyph name="hyphen" format="2">
  <advance width="204"/>
  <unicode hex="002D"/>
  <outline>
    <contour>
      <point x="16" y="121" type="curve" smooth="yes"/>
      <point x="24" y="120"/>
      <point x="47" y="120"/>
      <point x="84" y="120" type="curve" smooth="yes"/>
      <point x="159" y="120"/>
      <point x="198" y="125"/>
      <point x="202" y="136" type="curve"/>
      <point x="202" y="137"/>
      <point x="203" y="137"/>
      <point x="199" y="141" type="curve"/>
      <point x="193" y="146"/>
      <point x="171" y="148"/>
      <point x="134" y="148" type="curve"/>
      <point x="73" y="149"/>
      <point x="36" y="146"/>
      <point x="23" y="142" type="curve"/>
      <point x="10" y="137"/>
      <point x="3" y="132"/>
      <point x="3" y="126" type="curve"/>
      <point x="4" y="123"/>
      <point x="8" y="122"/>
    </contour>
  </outline>
</glyph>
<glyph name="period" format="2">
  <advance width="238"/>
  <unicode hex="002E"/>
  <outline>
    <contour>
      <point x="85" y="-1" type="curve" smooth="yes"/>
      <point x="87" y="-11"/>
      <point x="96" y="-16"/>
      <point x="113" y="-16" type="curve" smooth="yes"/>
      <point x="120" y="-16"/>
      <point x="128" y="-15"/>
      <point x="138" y="-13" type="curve" smooth="yes"/>
      <point x="171" y="-7"/>
      <point x="189" y="2"/>
      <point x="192" y="15" type="curve" smooth="yes"/>
      <point x="201" y="55"/>
      <point x="186" y="79"/>
      <point x="154" y="79" type="curve" smooth="yes"/>
      <point x="145" y="79"/>
      <point x="135" y="77"/>
      <point x="123" y="73" type="curve" smooth="yes"/>
      <point x="96" y="64"/>
      <point x="81" y="17"/>
    </contour>
  </outline>
</glyph>
<glyph name="slash" format="2">
  <advance width="601"/>
  <unicode hex="002F"/>
  <outline>
    <contour>
      <point x="3" y="-10" type="curve"/>
      <point x="3" y="-11"/>
      <point x="3" y="-11"/>
      <point x="4" y="-11" type="curve"/>
      <point x="5" y="-11"/>
      <point x="8" y="-10"/>
      <point x="11" y="-9" type="curve"/>
      <point x="16" y="-5"/>
      <point x="87" y="65"/>
      <point x="222" y="201" type="curve" smooth="yes"/>
      <point x="357" y="337"/>
      <point x="436" y="417"/>
      <point x="457" y="441" type="curve" smooth="yes"/>
      <point x="477" y="464"/>
      <point x="525" y="514"/>
      <point x="601" y="593" type="curve" smooth="yes"/>
      <point x="702" y="696"/>
      <point x="752" y="752"/>
      <point x="752" y="761" type="curve" smooth="yes"/>
      <point x="752" y="764"/>
      <point x="751" y="765"/>
      <point x="749" y="765" type="curve" smooth="yes"/>
      <point x="742" y="765"/>
      <point x="693" y="718"/>
      <point x="600" y="623" type="curve" smooth="yes"/>
      <point x="513" y="533"/>
      <point x="467" y="484"/>
      <point x="461" y="475" type="curve" smooth="yes"/>
      <point x="460" y="473"/>
      <point x="429" y="441"/>
      <point x="368" y="378" type="curve" smooth="yes"/>
      <point x="125" y="131"/>
      <point x="3" y="1"/>
    </contour>
  </outline>
</glyph>
<glyph name="zero" format="2">
  <advance width="500"/>
  <unicode hex="0030"/>
  <outline>
    <contour>
      <point x="12" y="54" type="curve" smooth="yes"/>
      <point x="21" y="42"/>
      <point x="33" y="30"/>
      <point x="48" y="18" type="curve" smooth="yes"/>
      <point x="64" y="6"/>
      <point x="81" y="0"/>
      <point x="99" y="0" type="curve" smooth="yes"/>
      <point x="148" y="0"/>
      <point x="210" y="22"/>
      <point x="286" y="67" type="curve" smooth="yes"/>
      <point x="361" y="112"/>
      <point x="433" y="168"/>
      <point x="501" y="236" type="curve" smooth="yes"/>
      <point x="581" y="316"/>
      <point x="627" y="388"/>
      <point x="640" y="453" type="curve" smooth="yes"/>
      <point x="642" y="465"/>
      <point x="643" y="476"/>
      <point x="643" y="485" type="curve" smooth="yes"/>
      <point x="643" y="507"/>
      <point x="635" y="527"/>
      <point x="620" y="544" type="curve" smooth="yes"/>
      <point x="600" y="566"/>
      <point x="575" y="577"/>
      <point x="545" y="577" type="curve" smooth="yes"/>
      <point x="532" y="577"/>
      <point x="517" y="574"/>
      <point x="500" y="569" type="curve" smooth="yes"/>
      <point x="480" y="563"/>
      <point x="448" y="548"/>
      <point x="405" y="525" type="curve" smooth="yes"/>
      <point x="362" y="502"/>
      <point x="324" y="479"/>
      <point x="292" y="458" type="curve" smooth="yes"/>
      <point x="180" y="383"/>
      <point x="100" y="309"/>
      <point x="51" y="236" type="curve" smooth="yes"/>
      <point x="21" y="191"/>
      <point x="4" y="148"/>
      <point x="1" y="107" type="curve" smooth="yes"/>
      <point x="0" y="96"/>
      <point x="-4" y="77"/>
    </contour>
    <contour>
      <point x="48" y="67" type="curve" smooth="yes"/>
      <point x="48" y="78" type="line"/>
      <point x="54" y="144"/>
      <point x="109" y="230"/>
      <point x="213" y="337" type="curve" smooth="yes"/>
      <point x="318" y="444"/>
      <point x="415" y="513"/>
      <point x="505" y="545" type="curve"/>
      <point x="545" y="558"/>
      <point x="581" y="559"/>
      <point x="596" y="544" type="curve" smooth="yes"/>
      <point x="607" y="533"/>
      <point x="608" y="497"/>
      <point x="592" y="456" type="curve" smooth="yes"/>
      <point x="569" y="400"/>
      <point x="524" y="333"/>
      <point x="456" y="256" type="curve" smooth="yes"/>
      <point x="388" y="179"/>
      <point x="323" y="120"/>
      <point x="260" y="81" type="curve" smooth="yes"/>
      <point x="200" y="43"/>
      <point x="149" y="24"/>
      <point x="108" y="24" type="curve" smooth="yes"/>
      <point x="97" y="24"/>
      <point x="88" y="25"/>
      <point x="83" y="26" type="curve" smooth="yes"/>
      <point x="55" y="31"/>
      <point x="48" y="42"/>
    </contour>
  </outline>
</glyph>
<glyph name="one" format="2">
  <advance width="440"/>
  <unicode hex="0031"/>
  <outline>
    <contour>
      <point x="0" y="10" type="curve" smooth="yes"/>
      <point x="0" y="4"/>
      <point x="14" y="1"/>
      <point x="41" y="1" type="curve" smooth="yes"/>
      <point x="50" y="1"/>
      <point x="60" y="2"/>
      <point x="71" y="3" type="curve" smooth="yes"/>
      <point x="82" y="4"/>
      <point x="102" y="24"/>
      <point x="130" y="61" type="curve"/>
      <point x="157" y="94"/>
      <point x="255" y="202"/>
      <point x="426" y="384" type="curve"/>
      <point x="530" y="493"/>
      <point x="582" y="549"/>
      <point x="583" y="551" type="curve" smooth="yes"/>
      <point x="584" y="554"/>
      <point x="584" y="557"/>
      <point x="585" y="560" type="curve"/>
      <point x="585" y="561" type="line"/>
      <point x="583" y="561"/>
      <point x="565" y="547"/>
      <point x="532" y="519" type="curve" smooth="yes"/>
      <point x="383" y="397"/>
      <point x="249" y="305"/>
      <point x="130" y="242" type="curve" smooth="yes"/>
      <point x="90" y="221"/>
      <point x="70" y="208"/>
      <point x="70" y="205" type="curve"/>
      <point x="70" y="205" type="line"/>
      <point x="70" y="204"/>
      <point x="71" y="202"/>
      <point x="73" y="200" type="curve" smooth="yes"/>
      <point x="74" y="199"/>
      <point x="76" y="198"/>
      <point x="79" y="198" type="curve" smooth="yes"/>
      <point x="97" y="198"/>
      <point x="143" y="223"/>
      <point x="218" y="272" type="curve" smooth="yes"/>
      <point x="257" y="297"/>
      <point x="282" y="312"/>
      <point x="294" y="319" type="curve"/>
      <point x="295" y="320"/>
      <point x="312" y="331"/>
      <point x="345" y="353" type="curve"/>
      <point x="346" y="352" type="line"/>
      <point x="147" y="164" type="line" smooth="yes"/>
      <point x="49" y="72"/>
      <point x="0" y="21"/>
    </contour>
  </outline>
</glyph>
<glyph name="two" format="2">
  <advance width="600"/>
  <unicode hex="0032"/>
  <outline>
    <contour>
      <point x="266" y="237" type="curve"/>
      <point x="266" y="236"/>
      <point x="273" y="235"/>
      <point x="288" y="235" type="curve" smooth="yes"/>
      <point x="325" y="235"/>
      <point x="364" y="246"/>
      <point x="405" y="267" type="curve" smooth="yes"/>
      <point x="436" y="283"/>
      <point x="472" y="307"/>
      <point x="511" y="339" type="curve" smooth="yes"/>
      <point x="550" y="371"/>
      <point x="570" y="392"/>
      <point x="570" y="401" type="curve"/>
      <point x="571" y="407"/>
      <point x="569" y="410"/>
      <point x="567" y="410" type="curve" smooth="yes"/>
      <point x="564" y="410"/>
      <point x="550" y="399"/>
      <point x="525" y="376" type="curve" smooth="yes"/>
      <point x="452" y="311"/>
      <point x="377" y="268"/>
      <point x="298" y="249" type="curve" smooth="yes"/>
      <point x="277" y="244"/>
      <point x="266" y="240"/>
    </contour>
    <contour>
      <point x="4" y="0" type="curve" smooth="yes"/>
      <point x="8" y="0"/>
      <point x="18" y="6"/>
      <point x="33" y="17" type="curve" smooth="yes"/>
      <point x="52" y="30"/>
      <point x="70" y="36"/>
      <point x="89" y="36" type="curve" smooth="yes"/>
      <point x="108" y="36"/>
      <point x="141" y="30"/>
      <point x="188" y="18" type="curve" smooth="yes"/>
      <point x="235" y="6"/>
      <point x="269" y="0"/>
      <point x="288" y="0" type="curve" smooth="yes"/>
      <point x="325" y="0"/>
      <point x="365" y="12"/>
      <point x="407" y="37" type="curve" smooth="yes"/>
      <point x="424" y="47"/>
      <point x="445" y="63"/>
      <point x="473" y="86" type="curve" smooth="yes"/>
      <point x="500" y="109"/>
      <point x="517" y="125"/>
      <point x="524" y="135" type="curve" smooth="yes"/>
      <point x="529" y="142"/>
      <point x="531" y="148"/>
      <point x="531" y="151" type="curve"/>
      <point x="531" y="152"/>
      <point x="531" y="153"/>
      <point x="530" y="153" type="curve"/>
      <point x="524" y="153"/>
      <point x="510" y="142"/>
      <point x="487" y="121" type="curve" smooth="yes"/>
      <point x="438" y="74"/>
      <point x="392" y="50"/>
      <point x="350" y="50" type="curve" smooth="yes"/>
      <point x="347" y="50" type="line"/>
      <point x="336" y="51"/>
      <point x="306" y="56"/>
      <point x="258" y="68" type="curve" smooth="yes"/>
      <point x="210" y="79"/>
      <point x="181" y="85"/>
      <point x="170" y="85" type="curve" smooth="yes"/>
      <point x="159" y="85"/>
      <point x="149" y="86"/>
      <point x="138" y="89" type="curve" smooth="yes"/>
      <point x="127" y="92"/>
      <point x="121" y="91"/>
      <point x="157" y="111" type="curve" smooth="yes"/>
      <point x="182" y="124"/>
      <point x="219" y="139"/>
      <point x="266" y="157" type="curve" smooth="yes"/>
      <point x="453" y="232"/>
      <point x="568" y="283"/>
      <point x="611" y="312" type="curve" smooth="yes"/>
      <point x="690" y="364"/>
      <point x="740" y="429"/>
      <point x="744" y="488" type="curve"/>
      <point x="744" y="495" type="line" smooth="yes"/>
      <point x="744" y="526"/>
      <point x="730" y="548"/>
      <point x="703" y="561" type="curve" smooth="yes"/>
      <point x="686" y="570"/>
      <point x="659" y="574"/>
      <point x="621" y="574" type="curve" smooth="yes"/>
      <point x="604" y="574"/>
      <point x="590" y="573"/>
      <point x="578" y="570" type="curve"/>
      <point x="553" y="567"/>
      <point x="518" y="554"/>
      <point x="472" y="532" type="curve" smooth="yes"/>
      <point x="426" y="510"/>
      <point x="386" y="487"/>
      <point x="353" y="463" type="curve"/>
      <point x="332" y="450"/>
      <point x="309" y="430"/>
      <point x="285" y="404" type="curve" smooth="yes"/>
      <point x="262" y="378"/>
      <point x="245" y="357"/>
      <point x="237" y="339" type="curve" smooth="yes"/>
      <point x="220" y="303"/>
      <point x="221" y="271"/>
      <point x="234" y="260" type="curve"/>
      <point x="239" y="254"/>
      <point x="244" y="251"/>
      <point x="247" y="251" type="curve"/>
      <point x="248" y="257"/>
      <point x="250" y="266"/>
      <point x="252" y="279" type="curve" smooth="yes"/>
      <point x="256" y="314"/>
      <point x="276" y="349"/>
      <point x="312" y="386" type="curve"/>
      <point x="365" y="437"/>
      <point x="425" y="480"/>
      <point x="493" y="514" type="curve" smooth="yes"/>
      <point x="548" y="541"/>
      <point x="592" y="555"/>
      <point x="626" y="555" type="curve" smooth="yes"/>
      <point x="634" y="555"/>
      <point x="640" y="555"/>
      <point x="644" y="554" type="curve"/>
      <point x="681" y="550"/>
      <point x="688" y="546"/>
      <point x="688" y="511" type="curve" smooth="yes"/>
      <point x="688" y="473"/>
      <point x="663" y="430"/>
      <point x="612" y="381" type="curve" smooth="yes"/>
      <point x="544" y="316"/>
      <point x="440" y="254"/>
      <point x="300" y="194" type="curve" smooth="yes"/>
      <point x="215" y="157"/>
      <point x="138" y="116"/>
      <point x="68" y="70" type="curve" smooth="yes"/>
      <point x="23" y="40"/>
      <point x="0" y="19"/>
      <point x="0" y="7" type="curve" smooth="yes"/>
      <point x="0" y="2"/>
      <point x="1" y="0"/>
    </contour>
  </outline>
</glyph>
<glyph name="three" format="2">
  <advance width="535"/>
  <unicode hex="0033"/>
  <outline>
    <contour>
      <point x="0" y="86" type="curve" smooth="yes"/>
      <point x="0" y="57"/>
      <point x="18" y="34"/>
      <point x="55" y="17" type="curve"/>
      <point x="76" y="6"/>
      <point x="106" y="0"/>
      <point x="145" y="0" type="curve" smooth="yes"/>
      <point x="176" y="0"/>
      <point x="205" y="4"/>
      <point x="232" y="12" type="curve"/>
      <point x="287" y="26"/>
      <point x="336" y="48"/>
      <point x="382" y="79" type="curve" smooth="yes"/>
      <point x="427" y="110"/>
      <point x="458" y="142"/>
      <point x="475" y="176" type="curve" smooth="yes"/>
      <point x="482" y="189"/>
      <point x="486" y="206"/>
      <point x="487" y="225" type="curve" smooth="yes"/>
      <point x="488" y="238" type="line"/>
      <point x="488" y="249"/>
      <point x="482" y="264"/>
      <point x="470" y="282" type="curve" smooth="yes"/>
      <point x="459" y="299"/>
      <point x="453" y="311"/>
      <point x="453" y="317" type="curve" smooth="yes"/>
      <point x="453" y="322"/>
      <point x="470" y="330"/>
      <point x="503" y="343" type="curve" smooth="yes"/>
      <point x="556" y="364"/>
      <point x="595" y="386"/>
      <point x="621" y="409" type="curve" smooth="yes"/>
      <point x="634" y="421"/>
      <point x="646" y="438"/>
      <point x="658" y="459" type="curve"/>
      <point x="669" y="481"/>
      <point x="675" y="497"/>
      <point x="675" y="507" type="curve" smooth="yes"/>
      <point x="675" y="527"/>
      <point x="651" y="560"/>
      <point x="631" y="571" type="curve" smooth="yes"/>
      <point x="617" y="578"/>
      <point x="592" y="582"/>
      <point x="555" y="582" type="curve" smooth="yes"/>
      <point x="518" y="582"/>
      <point x="492" y="579"/>
      <point x="477" y="573" type="curve" smooth="yes"/>
      <point x="440" y="560"/>
      <point x="404" y="542"/>
      <point x="368" y="517" type="curve" smooth="yes"/>
      <point x="332" y="492"/>
      <point x="307" y="469"/>
      <point x="294" y="447" type="curve" smooth="yes"/>
      <point x="277" y="419"/>
      <point x="278" y="398"/>
      <point x="291" y="385" type="curve"/>
      <point x="300" y="373"/>
      <point x="305" y="373"/>
      <point x="344" y="373" type="curve"/>
      <point x="363" y="374"/>
      <point x="378" y="375"/>
      <point x="387" y="377" type="curve" smooth="yes"/>
      <point x="396" y="379"/>
      <point x="413" y="386"/>
      <point x="436" y="398" type="curve" smooth="yes"/>
      <point x="495" y="428"/>
      <point x="525" y="450"/>
      <point x="525" y="464" type="curve" smooth="yes"/>
      <point x="525" y="468"/>
      <point x="524" y="470"/>
      <point x="521" y="470" type="curve" smooth="yes"/>
      <point x="516" y="470"/>
      <point x="498" y="458"/>
      <point x="466" y="435" type="curve" smooth="yes"/>
      <point x="424" y="404"/>
      <point x="384" y="389"/>
      <point x="347" y="389" type="curve" smooth="yes"/>
      <point x="323" y="389"/>
      <point x="307" y="399"/>
      <point x="307" y="412" type="curve" smooth="yes"/>
      <point x="307" y="431"/>
      <point x="325" y="454"/>
      <point x="361" y="482" type="curve" smooth="yes"/>
      <point x="397" y="510"/>
      <point x="437" y="532"/>
      <point x="481" y="547" type="curve" smooth="yes"/>
      <point x="515" y="559"/>
      <point x="544" y="565"/>
      <point x="567" y="565" type="curve" smooth="yes"/>
      <point x="586" y="565"/>
      <point x="598" y="562"/>
      <point x="605" y="555" type="curve" smooth="yes"/>
      <point x="613" y="548"/>
      <point x="617" y="538"/>
      <point x="617" y="525" type="curve" smooth="yes"/>
      <point x="617" y="492"/>
      <point x="597" y="457"/>
      <point x="557" y="420" type="curve"/>
      <point x="528" y="395"/>
      <point x="498" y="375"/>
      <point x="465" y="362" type="curve" smooth="yes"/>
      <point x="432" y="349"/>
      <point x="388" y="337"/>
      <point x="331" y="327" type="curve" smooth="yes"/>
      <point x="312" y="324"/>
      <point x="302" y="321"/>
      <point x="302" y="318" type="curve" smooth="yes"/>
      <point x="302" y="313"/>
      <point x="315" y="311"/>
      <point x="340" y="311" type="curve" smooth="yes"/>
      <point x="412" y="311"/>
      <point x="438" y="295"/>
      <point x="438" y="254" type="curve"/>
      <point x="439" y="221"/>
      <point x="420" y="186"/>
      <point x="382" y="148" type="curve" smooth="yes"/>
      <point x="344" y="110"/>
      <point x="300" y="80"/>
      <point x="250" y="58" type="curve" smooth="yes"/>
      <point x="200" y="35"/>
      <point x="156" y="24"/>
      <point x="118" y="24" type="curve" smooth="yes"/>
      <point x="73" y="24"/>
      <point x="47" y="38"/>
      <point x="42" y="67" type="curve"/>
      <point x="41" y="76" type="line"/>
      <point x="41" y="112"/>
      <point x="78" y="159"/>
      <point x="126" y="183" type="curve" smooth="yes"/>
      <point x="140" y="190"/>
      <point x="162" y="197"/>
      <point x="191" y="203" type="curve" smooth="yes"/>
      <point x="221" y="209"/>
      <point x="236" y="215"/>
      <point x="236" y="220" type="curve" smooth="yes"/>
      <point x="236" y="223"/>
      <point x="231" y="225"/>
      <point x="220" y="227" type="curve" smooth="yes"/>
      <point x="217" y="228"/>
      <point x="211" y="228"/>
      <point x="202" y="228" type="curve" smooth="yes"/>
      <point x="169" y="228"/>
      <point x="132" y="217"/>
      <point x="90" y="194" type="curve" smooth="yes"/>
      <point x="48" y="171"/>
      <point x="21" y="147"/>
      <point x="9" y="120" type="curve" smooth="yes"/>
      <point x="3" y="107"/>
      <point x="0" y="95"/>
    </contour>
  </outline>
</glyph>
<glyph name="four" format="2">
  <advance width="740"/>
  <unicode hex="0034"/>
  <outline>
    <contour>
      <point x="11" y="133" type="curve" smooth="yes"/>
      <point x="28" y="133"/>
      <point x="55" y="139"/>
      <point x="92" y="150" type="curve" smooth="yes"/>
      <point x="126" y="160"/>
      <point x="154" y="165"/>
      <point x="175" y="165" type="curve"/>
      <point x="222" y="164"/>
      <point x="253" y="162"/>
      <point x="267" y="159" type="curve"/>
      <point x="277" y="158"/>
      <point x="282" y="154"/>
      <point x="282" y="148" type="curve" smooth="yes"/>
      <point x="282" y="143"/>
      <point x="267" y="121"/>
      <point x="237" y="82" type="curve" smooth="yes"/>
      <point x="202" y="38"/>
      <point x="184" y="13"/>
      <point x="184" y="8" type="curve"/>
      <point x="185" y="3"/>
      <point x="196" y="0"/>
      <point x="218" y="0" type="curve"/>
      <point x="240" y="1"/>
      <point x="256" y="4"/>
      <point x="265" y="11" type="curve" smooth="yes"/>
      <point x="274" y="18"/>
      <point x="291" y="40"/>
      <point x="317" y="76" type="curve" smooth="yes"/>
      <point x="342" y="112"/>
      <point x="360" y="133"/>
      <point x="370" y="140" type="curve" smooth="yes"/>
      <point x="378" y="145"/>
      <point x="408" y="153"/>
      <point x="460" y="163" type="curve"/>
      <point x="480" y="166"/>
      <point x="493" y="169"/>
      <point x="498" y="170" type="curve"/>
      <point x="525" y="179"/>
      <point x="551" y="195"/>
      <point x="579" y="220" type="curve" smooth="yes"/>
      <point x="606" y="245"/>
      <point x="620" y="266"/>
      <point x="620" y="283" type="curve" smooth="yes"/>
      <point x="620" y="292"/>
      <point x="618" y="296"/>
      <point x="615" y="296" type="curve" smooth="yes"/>
      <point x="610" y="296"/>
      <point x="601" y="286"/>
      <point x="590" y="265" type="curve"/>
      <point x="571" y="234"/>
      <point x="545" y="212"/>
      <point x="511" y="199" type="curve"/>
      <point x="486" y="191"/>
      <point x="463" y="187"/>
      <point x="442" y="187" type="curve" smooth="yes"/>
      <point x="428" y="187"/>
      <point x="421" y="190"/>
      <point x="421" y="195" type="curve" smooth="yes"/>
      <point x="421" y="204"/>
      <point x="458" y="250"/>
      <point x="532" y="333" type="curve" smooth="yes"/>
      <point x="628" y="440"/>
      <point x="676" y="496"/>
      <point x="676" y="502" type="curve"/>
      <point x="676" y="502" type="line"/>
      <point x="676" y="503"/>
      <point x="675" y="503"/>
      <point x="674" y="503" type="curve"/>
      <point x="668" y="503"/>
      <point x="607" y="447"/>
      <point x="491" y="336" type="curve"/>
      <point x="397" y="248"/>
      <point x="347" y="203"/>
      <point x="342" y="200" type="curve"/>
      <point x="328" y="195"/>
      <point x="290" y="193"/>
      <point x="229" y="193" type="curve" smooth="yes"/>
      <point x="209" y="193"/>
      <point x="199" y="194"/>
      <point x="199" y="195" type="curve"/>
      <point x="199" y="199"/>
      <point x="210" y="210"/>
      <point x="233" y="227" type="curve" smooth="yes"/>
      <point x="256" y="244"/>
      <point x="313" y="286"/>
      <point x="405" y="351" type="curve" smooth="yes"/>
      <point x="534" y="443"/>
      <point x="630" y="506"/>
      <point x="694" y="541" type="curve" smooth="yes"/>
      <point x="757" y="576"/>
      <point x="815" y="596"/>
      <point x="866" y="603" type="curve" smooth="yes"/>
      <point x="897" y="607"/>
      <point x="912" y="612"/>
      <point x="912" y="617" type="curve"/>
      <point x="912" y="618"/>
      <point x="908" y="621"/>
      <point x="901" y="624" type="curve"/>
      <point x="890" y="627"/>
      <point x="882" y="629"/>
      <point x="877" y="629" type="curve" smooth="yes"/>
      <point x="872" y="629"/>
      <point x="858" y="627"/>
      <point x="834" y="624" type="curve"/>
      <point x="763" y="613"/>
      <point x="618" y="529"/>
      <point x="401" y="372" type="curve" smooth="yes"/>
      <point x="322" y="315"/>
      <point x="259" y="272"/>
      <point x="212" y="244" type="curve" smooth="yes"/>
      <point x="165" y="216"/>
      <point x="118" y="192"/>
      <point x="69" y="173" type="curve"/>
      <point x="28" y="155"/>
      <point x="6" y="144"/>
      <point x="2" y="140" type="curve" smooth="yes"/>
      <point x="1" y="139"/>
      <point x="0" y="138"/>
      <point x="0" y="137" type="curve"/>
      <point x="0" y="134"/>
      <point x="4" y="133"/>
    </contour>
  </outline>
</glyph>
<glyph name="five" format="2">
  <advance width="590"/>
  <unicode hex="0035"/>
  <outline>
    <contour>
      <point x="18" y="40" type="curve" smooth="yes"/>
      <point x="42" y="13"/>
      <point x="76" y="0"/>
      <point x="121" y="0" type="curve" smooth="yes"/>
      <point x="166" y="0"/>
      <point x="215" y="11"/>
      <point x="269" y="33" type="curve" smooth="yes"/>
      <point x="323" y="55"/>
      <point x="368" y="78"/>
      <point x="403" y="102" type="curve" smooth="yes"/>
      <point x="474" y="151"/>
      <point x="516" y="217"/>
      <point x="516" y="275" type="curve" smooth="yes"/>
      <point x="516" y="333"/>
      <point x="473" y="373"/>
      <point x="389" y="378" type="curve"/>
      <point x="360" y="381"/>
      <point x="345" y="383"/>
      <point x="345" y="386" type="curve" smooth="yes"/>
      <point x="345" y="389"/>
      <point x="357" y="403"/>
      <point x="380" y="430" type="curve" smooth="yes"/>
      <point x="403" y="457"/>
      <point x="422" y="476"/>
      <point x="435" y="489" type="curve" smooth="yes"/>
      <point x="457" y="509"/>
      <point x="477" y="519"/>
      <point x="496" y="519" type="curve" smooth="yes"/>
      <point x="508" y="519"/>
      <point x="524" y="516"/>
      <point x="545" y="511" type="curve" smooth="yes"/>
      <point x="576" y="503"/>
      <point x="597" y="499"/>
      <point x="610" y="499" type="curve" smooth="yes"/>
      <point x="630" y="499"/>
      <point x="655" y="510"/>
      <point x="685" y="531" type="curve" smooth="yes"/>
      <point x="715" y="552"/>
      <point x="730" y="569"/>
      <point x="730" y="582" type="curve" smooth="yes"/>
      <point x="730" y="590"/>
      <point x="728" y="594"/>
      <point x="724" y="594" type="curve" smooth="yes"/>
      <point x="718" y="594"/>
      <point x="709" y="587"/>
      <point x="698" y="573" type="curve" smooth="yes"/>
      <point x="690" y="564"/>
      <point x="683" y="558"/>
      <point x="678" y="556" type="curve" smooth="yes"/>
      <point x="668" y="551"/>
      <point x="643" y="549"/>
      <point x="598" y="562" type="curve" smooth="yes"/>
      <point x="571" y="570"/>
      <point x="548" y="574"/>
      <point x="529" y="574" type="curve" smooth="yes"/>
      <point x="518" y="574"/>
      <point x="506" y="573"/>
      <point x="495" y="571" type="curve" smooth="yes"/>
      <point x="479" y="568"/>
      <point x="476" y="569"/>
      <point x="473" y="570" type="curve" smooth="yes"/>
      <point x="468" y="571"/>
      <point x="470" y="585"/>
      <point x="465" y="585" type="curve" smooth="yes"/>
      <point x="456" y="585"/>
      <point x="448" y="575"/>
      <point x="441" y="554" type="curve" smooth="yes"/>
      <point x="430" y="523"/>
      <point x="405" y="485"/>
      <point x="367" y="442" type="curve" smooth="yes"/>
      <point x="329" y="399"/>
      <point x="287" y="361"/>
      <point x="240" y="328" type="curve"/>
      <point x="205" y="302"/>
      <point x="188" y="286"/>
      <point x="188" y="279" type="curve" smooth="yes"/>
      <point x="188" y="276"/>
      <point x="190" y="274"/>
      <point x="194" y="274" type="curve" smooth="yes"/>
      <point x="205" y="274"/>
      <point x="221" y="283"/>
      <point x="244" y="301" type="curve" smooth="yes"/>
      <point x="283" y="330"/>
      <point x="319" y="348"/>
      <point x="352" y="355" type="curve" smooth="yes"/>
      <point x="358" y="356"/>
      <point x="367" y="357"/>
      <point x="379" y="357" type="curve" smooth="yes"/>
      <point x="406" y="357"/>
      <point x="428" y="348"/>
      <point x="446" y="329" type="curve" smooth="yes"/>
      <point x="457" y="318"/>
      <point x="463" y="309"/>
      <point x="463" y="300" type="curve" smooth="yes"/>
      <point x="463" y="239"/>
      <point x="420" y="176"/>
      <point x="334" y="112" type="curve" smooth="yes"/>
      <point x="253" y="53"/>
      <point x="179" y="23"/>
      <point x="112" y="23" type="curve"/>
      <point x="98" y="24" type="line" smooth="yes"/>
      <point x="59" y="27"/>
      <point x="39" y="49"/>
      <point x="39" y="78" type="curve" smooth="yes"/>
      <point x="39" y="112"/>
      <point x="60" y="145"/>
      <point x="101" y="177" type="curve" smooth="yes"/>
      <point x="136" y="204"/>
      <point x="179" y="220"/>
      <point x="228" y="225" type="curve" smooth="yes"/>
      <point x="253" y="227"/>
      <point x="266" y="231"/>
      <point x="266" y="236" type="curve" smooth="yes"/>
      <point x="266" y="238"/>
      <point x="261" y="240"/>
      <point x="250" y="242" type="curve" smooth="yes"/>
      <point x="246" y="243"/>
      <point x="240" y="243"/>
      <point x="233" y="243" type="curve"/>
      <point x="209" y="244"/>
      <point x="180" y="239"/>
      <point x="148" y="229" type="curve" smooth="yes"/>
      <point x="115" y="219"/>
      <point x="88" y="207"/>
      <point x="67" y="192" type="curve" smooth="yes"/>
      <point x="25" y="163"/>
      <point x="3" y="130"/>
      <point x="1" y="93" type="curve"/>
      <point x="0" y="88"/>
      <point x="0" y="82"/>
      <point x="0" y="75" type="curve" smooth="yes"/>
      <point x="0" y="64"/>
      <point x="6" y="53"/>
    </contour>
  </outline>
</glyph>
<glyph name="six" format="2">
  <advance width="540"/>
  <unicode hex="0036"/>
  <outline>
    <contour>
      <point x="19" y="27" type="curve" smooth="yes"/>
      <point x="38" y="9"/>
      <point x="65" y="0"/>
      <point x="99" y="0" type="curve" smooth="yes"/>
      <point x="146" y="0"/>
      <point x="199" y="16"/>
      <point x="259" y="47" type="curve" smooth="yes"/>
      <point x="319" y="78"/>
      <point x="373" y="120"/>
      <point x="422" y="173" type="curve"/>
      <point x="471" y="222"/>
      <point x="488" y="255"/>
      <point x="489" y="299" type="curve"/>
      <point x="489" y="310" type="line" smooth="yes"/>
      <point x="489" y="361"/>
      <point x="466" y="380"/>
      <point x="411" y="380" type="curve" smooth="yes"/>
      <point x="390" y="380"/>
      <point x="371" y="378"/>
      <point x="355" y="373" type="curve" smooth="yes"/>
      <point x="339" y="368"/>
      <point x="313" y="358"/>
      <point x="278" y="342" type="curve"/>
      <point x="265" y="335"/>
      <point x="247" y="327"/>
      <point x="225" y="320" type="curve" smooth="yes"/>
      <point x="217" y="317"/>
      <point x="216" y="318"/>
      <point x="216" y="319" type="curve"/>
      <point x="217" y="322"/>
      <point x="231" y="337"/>
      <point x="260" y="363" type="curve" smooth="yes"/>
      <point x="289" y="389"/>
      <point x="318" y="414"/>
      <point x="348" y="438" type="curve" smooth="yes"/>
      <point x="463" y="529"/>
      <point x="554" y="583"/>
      <point x="621" y="600" type="curve" smooth="yes"/>
      <point x="654" y="609"/>
      <point x="670" y="616"/>
      <point x="670" y="619" type="curve"/>
      <point x="670" y="620"/>
      <point x="670" y="621"/>
      <point x="669" y="622" type="curve" smooth="yes"/>
      <point x="664" y="627"/>
      <point x="655" y="629"/>
      <point x="611" y="616" type="curve" smooth="yes"/>
      <point x="581" y="608"/>
      <point x="536" y="588"/>
      <point x="477" y="557" type="curve" smooth="yes"/>
      <point x="418" y="526"/>
      <point x="363" y="493"/>
      <point x="314" y="460" type="curve" smooth="yes"/>
      <point x="169" y="363"/>
      <point x="62" y="257"/>
      <point x="19" y="168" type="curve" smooth="yes"/>
      <point x="6" y="141"/>
      <point x="0" y="114"/>
      <point x="0" y="86" type="curve" smooth="yes"/>
      <point x="0" y="58"/>
      <point x="6" y="38"/>
    </contour>
    <contour>
      <point x="50" y="66" type="curve" smooth="yes"/>
      <point x="50" y="110"/>
      <point x="76" y="158"/>
      <point x="129" y="211" type="curve" smooth="yes"/>
      <point x="206" y="287"/>
      <point x="274" y="334"/>
      <point x="333" y="353" type="curve"/>
      <point x="352" y="358"/>
      <point x="371" y="360"/>
      <point x="393" y="360" type="curve" smooth="yes"/>
      <point x="414" y="360"/>
      <point x="429" y="357"/>
      <point x="437" y="351" type="curve"/>
      <point x="446" y="346"/>
      <point x="450" y="339"/>
      <point x="450" y="329" type="curve"/>
      <point x="449" y="316" type="line" smooth="yes"/>
      <point x="446" y="282"/>
      <point x="411" y="233"/>
      <point x="346" y="170" type="curve" smooth="yes"/>
      <point x="261" y="89"/>
      <point x="189" y="41"/>
      <point x="132" y="26" type="curve" smooth="yes"/>
      <point x="71" y="9"/>
      <point x="50" y="16"/>
    </contour>
  </outline>
</glyph>
<glyph name="seven" format="2">
  <advance width="535"/>
  <unicode hex="0037"/>
  <outline>
    <contour>
      <point x="2" y="6" type="curve" smooth="yes"/>
      <point x="5" y="3"/>
      <point x="19" y="1"/>
      <point x="44" y="1" type="curve" smooth="yes"/>
      <point x="59" y="1"/>
      <point x="69" y="2"/>
      <point x="76" y="4" type="curve" smooth="yes"/>
      <point x="83" y="7"/>
      <point x="99" y="26"/>
      <point x="123" y="60" type="curve" smooth="yes"/>
      <point x="180" y="143"/>
      <point x="285" y="245"/>
      <point x="438" y="364" type="curve" smooth="yes"/>
      <point x="595" y="485"/>
      <point x="673" y="558"/>
      <point x="673" y="581" type="curve" smooth="yes"/>
      <point x="673" y="585"/>
      <point x="672" y="587"/>
      <point x="669" y="587" type="curve" smooth="yes"/>
      <point x="663" y="587"/>
      <point x="652" y="579"/>
      <point x="635" y="562" type="curve" smooth="yes"/>
      <point x="623" y="550"/>
      <point x="614" y="543"/>
      <point x="608" y="541" type="curve" smooth="yes"/>
      <point x="602" y="539"/>
      <point x="591" y="537"/>
      <point x="576" y="535" type="curve"/>
      <point x="565" y="535" type="line" smooth="yes"/>
      <point x="543" y="535"/>
      <point x="515" y="539"/>
      <point x="483" y="548" type="curve" smooth="yes"/>
      <point x="450" y="557"/>
      <point x="421" y="561"/>
      <point x="396" y="561" type="curve" smooth="yes"/>
      <point x="345" y="561"/>
      <point x="337" y="564"/>
      <point x="337" y="580" type="curve" smooth="yes"/>
      <point x="337" y="591"/>
      <point x="334" y="593"/>
      <point x="333" y="593" type="curve"/>
      <point x="330" y="593"/>
      <point x="327" y="589"/>
      <point x="325" y="582" type="curve" smooth="yes"/>
      <point x="324" y="577"/>
      <point x="307" y="557"/>
      <point x="274" y="522" type="curve" smooth="yes"/>
      <point x="232" y="477"/>
      <point x="211" y="451"/>
      <point x="211" y="443" type="curve" smooth="yes"/>
      <point x="211" y="440"/>
      <point x="212" y="439"/>
      <point x="213" y="439" type="curve"/>
      <point x="220" y="439"/>
      <point x="241" y="453"/>
      <point x="274" y="482" type="curve"/>
      <point x="296" y="504"/>
      <point x="309" y="509"/>
      <point x="321" y="518" type="curve"/>
      <point x="326" y="520"/>
      <point x="330" y="521"/>
      <point x="336" y="521" type="curve" smooth="yes"/>
      <point x="341" y="521"/>
      <point x="365" y="514"/>
      <point x="406" y="501" type="curve"/>
      <point x="438" y="492"/>
      <point x="469" y="487"/>
      <point x="499" y="485" type="curve" smooth="yes"/>
      <point x="529" y="483"/>
      <point x="544" y="480"/>
      <point x="544" y="477" type="curve"/>
      <point x="545" y="474"/>
      <point x="494" y="438"/>
      <point x="393" y="369" type="curve" smooth="yes"/>
      <point x="292" y="300"/>
      <point x="219" y="247"/>
      <point x="176" y="212" type="curve" smooth="yes"/>
      <point x="133" y="177"/>
      <point x="92" y="137"/>
      <point x="55" y="92" type="curve" smooth="yes"/>
      <point x="18" y="47"/>
      <point x="0" y="21"/>
      <point x="0" y="12" type="curve" smooth="yes"/>
      <point x="0" y="9"/>
      <point x="1" y="7"/>
    </contour>
  </outline>
</glyph>
<glyph name="eight" format="2">
  <advance width="550"/>
  <unicode hex="0038"/>
  <outline>
    <contour>
      <point x="30" y="30" type="curve" smooth="yes"/>
      <point x="50" y="10"/>
      <point x="81" y="0"/>
      <point x="124" y="0" type="curve" smooth="yes"/>
      <point x="137" y="0"/>
      <point x="144" y="0"/>
      <point x="144" y="0" type="curve"/>
      <point x="180" y="2"/>
      <point x="213" y="9"/>
      <point x="242" y="20" type="curve" smooth="yes"/>
      <point x="284" y="37"/>
      <point x="324" y="60"/>
      <point x="362" y="90" type="curve" smooth="yes"/>
      <point x="400" y="119"/>
      <point x="426" y="147"/>
      <point x="439" y="172" type="curve" smooth="yes"/>
      <point x="448" y="191"/>
      <point x="453" y="212"/>
      <point x="453" y="234" type="curve" smooth="yes"/>
      <point x="453" y="247"/>
      <point x="452" y="262"/>
      <point x="450" y="279" type="curve"/>
      <point x="449" y="298"/>
      <point x="448" y="309"/>
      <point x="448" y="312" type="curve"/>
      <point x="449" y="325"/>
      <point x="452" y="334"/>
      <point x="458" y="339" type="curve" smooth="yes"/>
      <point x="464" y="344"/>
      <point x="479" y="350"/>
      <point x="503" y="358" type="curve" smooth="yes"/>
      <point x="564" y="379"/>
      <point x="611" y="405"/>
      <point x="646" y="434" type="curve" smooth="yes"/>
      <point x="675" y="459"/>
      <point x="689" y="484"/>
      <point x="689" y="511" type="curve" smooth="yes"/>
      <point x="689" y="536"/>
      <point x="676" y="554"/>
      <point x="651" y="567" type="curve" smooth="yes"/>
      <point x="636" y="574"/>
      <point x="614" y="578"/>
      <point x="583" y="578" type="curve" smooth="yes"/>
      <point x="553" y="578"/>
      <point x="526" y="574"/>
      <point x="504" y="566" type="curve" smooth="yes"/>
      <point x="481" y="558"/>
      <point x="456" y="545"/>
      <point x="428" y="528" type="curve" smooth="yes"/>
      <point x="400" y="511"/>
      <point x="378" y="494"/>
      <point x="361" y="478" type="curve"/>
      <point x="338" y="454"/>
      <point x="326" y="425"/>
      <point x="326" y="392" type="curve" smooth="yes"/>
      <point x="326" y="381"/>
      <point x="326" y="373"/>
      <point x="327" y="368" type="curve" smooth="yes"/>
      <point x="331" y="330" type="line"/>
      <point x="330" y="330" type="line"/>
      <point x="313" y="324"/>
      <point x="304" y="321"/>
      <point x="304" y="321" type="curve"/>
      <point x="237" y="296"/>
      <point x="185" y="273"/>
      <point x="147" y="252" type="curve" smooth="yes"/>
      <point x="109" y="231"/>
      <point x="76" y="208"/>
      <point x="48" y="181" type="curve"/>
      <point x="16" y="148"/>
      <point x="0" y="119"/>
      <point x="0" y="92" type="curve" smooth="yes"/>
      <point x="0" y="71"/>
      <point x="10" y="50"/>
    </contour>
    <contour>
      <point x="420" y="357" type="curve"/>
      <point x="401" y="362"/>
      <point x="391" y="383"/>
      <point x="391" y="418" type="curve" smooth="yes"/>
      <point x="391" y="434"/>
      <point x="394" y="447"/>
      <point x="399" y="458" type="curve" smooth="yes"/>
      <point x="408" y="477"/>
      <point x="428" y="497"/>
      <point x="460" y="519" type="curve" smooth="yes"/>
      <point x="492" y="541"/>
      <point x="523" y="555"/>
      <point x="552" y="561" type="curve"/>
      <point x="563" y="564"/>
      <point x="575" y="565"/>
      <point x="588" y="565" type="curve" smooth="yes"/>
      <point x="629" y="565"/>
      <point x="653" y="551"/>
      <point x="653" y="526" type="curve" smooth="yes"/>
      <point x="653" y="507"/>
      <point x="640" y="485"/>
      <point x="614" y="460" type="curve"/>
      <point x="593" y="438"/>
      <point x="560" y="415"/>
      <point x="517" y="392" type="curve" smooth="yes"/>
      <point x="474" y="369"/>
      <point x="443" y="357"/>
      <point x="425" y="357" type="curve" smooth="yes"/>
      <point x="421" y="357" type="line"/>
      <point x="420" y="357"/>
      <point x="420" y="357"/>
    </contour>
    <contour>
      <point x="62" y="39" type="curve" smooth="yes"/>
      <point x="53" y="50"/>
      <point x="48" y="63"/>
      <point x="48" y="78" type="curve" smooth="yes"/>
      <point x="48" y="109"/>
      <point x="65" y="141"/>
      <point x="99" y="177" type="curve" smooth="yes"/>
      <point x="133" y="212"/>
      <point x="177" y="242"/>
      <point x="232" y="267" type="curve" smooth="yes"/>
      <point x="281" y="290"/>
      <point x="315" y="301"/>
      <point x="334" y="301" type="curve" smooth="yes"/>
      <point x="337" y="301" type="line"/>
      <point x="352" y="300"/>
      <point x="355" y="297"/>
      <point x="368" y="270" type="curve" smooth="yes"/>
      <point x="392" y="223"/>
      <point x="389" y="199"/>
      <point x="376" y="167" type="curve"/>
      <point x="361" y="126"/>
      <point x="329" y="91"/>
      <point x="281" y="63" type="curve" smooth="yes"/>
      <point x="232" y="34"/>
      <point x="181" y="20"/>
      <point x="128" y="20" type="curve" smooth="yes"/>
      <point x="114" y="20" type="line"/>
      <point x="82" y="23"/>
      <point x="77" y="23"/>
    </contour>
  </outline>
</glyph>
<glyph name="nine" format="2">
  <advance width="535"/>
  <unicode hex="0039"/>
  <outline>
    <contour>
      <point x="0" y="10" type="curve" smooth="yes"/>
      <point x="0" y="3"/>
      <point x="5" y="0"/>
      <point x="14" y="0" type="curve" smooth="yes"/>
      <point x="26" y="0"/>
      <point x="52" y="7"/>
      <point x="91" y="20" type="curve" smooth="yes"/>
      <point x="148" y="39"/>
      <point x="214" y="69"/>
      <point x="291" y="112" type="curve" smooth="yes"/>
      <point x="378" y="159"/>
      <point x="440" y="199"/>
      <point x="478" y="231" type="curve" smooth="yes"/>
      <point x="529" y="274"/>
      <point x="572" y="316"/>
      <point x="606" y="355" type="curve" smooth="yes"/>
      <point x="645" y="399"/>
      <point x="669" y="435"/>
      <point x="679" y="462" type="curve" smooth="yes"/>
      <point x="686" y="482"/>
      <point x="690" y="503"/>
      <point x="690" y="524" type="curve" smooth="yes"/>
      <point x="690" y="561"/>
      <point x="679" y="586"/>
      <point x="656" y="599" type="curve"/>
      <point x="641" y="606"/>
      <point x="621" y="610"/>
      <point x="596" y="611" type="curve"/>
      <point x="584" y="610"/>
      <point x="572" y="609"/>
      <point x="559" y="607" type="curve" smooth="yes"/>
      <point x="532" y="603"/>
      <point x="495" y="590"/>
      <point x="446" y="567" type="curve" smooth="yes"/>
      <point x="399" y="544"/>
      <point x="359" y="521"/>
      <point x="326" y="497" type="curve" smooth="yes"/>
      <point x="284" y="466"/>
      <point x="250" y="433"/>
      <point x="225" y="398" type="curve" smooth="yes"/>
      <point x="199" y="362"/>
      <point x="186" y="331"/>
      <point x="185" y="303" type="curve"/>
      <point x="186" y="286"/>
      <point x="191" y="273"/>
      <point x="200" y="263" type="curve" smooth="yes"/>
      <point x="219" y="242"/>
      <point x="242" y="231"/>
      <point x="268" y="231" type="curve"/>
      <point x="268" y="231"/>
      <point x="269" y="231"/>
      <point x="269" y="231" type="curve"/>
      <point x="300" y="231"/>
      <point x="346" y="245"/>
      <point x="409" y="272" type="curve" smooth="yes"/>
      <point x="436" y="283"/>
      <point x="451" y="289"/>
      <point x="455" y="289" type="curve"/>
      <point x="456" y="289"/>
      <point x="456" y="289"/>
      <point x="456" y="288" type="curve"/>
      <point x="455" y="281"/>
      <point x="434" y="260"/>
      <point x="392" y="225" type="curve" smooth="yes"/>
      <point x="362" y="201"/>
      <point x="324" y="173"/>
      <point x="278" y="142" type="curve" smooth="yes"/>
      <point x="186" y="80"/>
      <point x="109" y="43"/>
      <point x="47" y="32" type="curve" smooth="yes"/>
      <point x="26" y="28"/>
      <point x="12" y="25"/>
      <point x="7" y="22" type="curve" smooth="yes"/>
      <point x="2" y="19"/>
      <point x="0" y="15"/>
    </contour>
    <contour>
      <point x="241" y="260" type="curve"/>
      <point x="240" y="279"/>
      <point x="239" y="289"/>
      <point x="239" y="289" type="curve"/>
      <point x="239" y="320"/>
      <point x="264" y="361"/>
      <point x="313" y="414" type="curve" smooth="yes"/>
      <point x="354" y="457"/>
      <point x="396" y="494"/>
      <point x="441" y="525" type="curve" smooth="yes"/>
      <point x="485" y="556"/>
      <point x="525" y="576"/>
      <point x="559" y="585" type="curve" smooth="yes"/>
      <point x="596" y="594"/>
      <point x="604" y="594"/>
      <point x="621" y="587" type="curve"/>
      <point x="645" y="582"/>
      <point x="648" y="575"/>
      <point x="648" y="544" type="curve" smooth="yes"/>
      <point x="648" y="508"/>
      <point x="624" y="466"/>
      <point x="577" y="417" type="curve" smooth="yes"/>
      <point x="530" y="369"/>
      <point x="470" y="327"/>
      <point x="399" y="291" type="curve" smooth="yes"/>
      <point x="356" y="268"/>
      <point x="316" y="257"/>
      <point x="281" y="257" type="curve" smooth="yes"/>
      <point x="270" y="257" type="line"/>
      <point x="267" y="258"/>
      <point x="257" y="259"/>
    </contour>
  </outline>
</glyph>
<glyph name="colon" format="2">
  <advance width="238"/>
  <unicode hex="003A"/>
  <outline>
    <contour>
      <point x="85" y="-1" type="curve" smooth="yes"/>
      <point x="87" y="-11"/>
      <point x="96" y="-16"/>
      <point x="113" y="-16" type="curve" smooth="yes"/>
      <point x="120" y="-16"/>
      <point x="128" y="-15"/>
      <point x="138" y="-13" type="curve" smooth="yes"/>
      <point x="171" y="-7"/>
      <point x="189" y="2"/>
      <point x="192" y="15" type="curve" smooth="yes"/>
      <point x="201" y="55"/>
      <point x="186" y="79"/>
      <point x="154" y="79" type="curve" smooth="yes"/>
      <point x="145" y="79"/>
      <point x="135" y="77"/>
      <point x="123" y="73" type="curve" smooth="yes"/>
      <point x="96" y="64"/>
      <point x="81" y="17"/>
    </contour>
    <contour>
      <point x="208" y="130" type="curve" smooth="yes"/>
      <point x="210" y="120"/>
      <point x="219" y="115"/>
      <point x="236" y="115" type="curve" smooth="yes"/>
      <point x="243" y="115"/>
      <point x="251" y="116"/>
      <point x="261" y="118" type="curve" smooth="yes"/>
      <point x="294" y="124"/>
      <point x="312" y="133"/>
      <point x="315" y="146" type="curve" smooth="yes"/>
      <point x="324" y="186"/>
      <point x="309" y="210"/>
      <point x="277" y="210" type="curve" smooth="yes"/>
      <point x="268" y="210"/>
      <point x="258" y="208"/>
      <point x="246" y="204" type="curve" smooth="yes"/>
      <point x="219" y="195"/>
      <point x="204" y="148"/>
    </contour>
  </outline>
</glyph>
<glyph name="semicolon" format="2">
  <advance width="238"/>
  <unicode hex="003B"/>
  <outline>
    <contour>
      <point x="208" y="130" type="curve" smooth="yes"/>
      <point x="210" y="120"/>
      <point x="219" y="115"/>
      <point x="236" y="115" type="curve" smooth="yes"/>
      <point x="243" y="115"/>
      <point x="251" y="116"/>
      <point x="261" y="118" type="curve" smooth="yes"/>
      <point x="294" y="124"/>
      <point x="312" y="133"/>
      <point x="315" y="146" type="curve" smooth="yes"/>
      <point x="324" y="186"/>
      <point x="309" y="210"/>
      <point x="277" y="210" type="curve" smooth="yes"/>
      <point x="268" y="210"/>
      <point x="258" y="208"/>
      <point x="246" y="204" type="curve" smooth="yes"/>
      <point x="219" y="195"/>
      <point x="204" y="148"/>
    </contour>
    <contour>
      <point x="35" y="-125" type="curve"/>
      <point x="36" y="-125" type="line"/>
      <point x="61" y="-126"/>
      <point x="92" y="-110"/>
      <point x="127" y="-78" type="curve" smooth="yes"/>
      <point x="162" y="-46"/>
      <point x="184" y="-15"/>
      <point x="191" y="15" type="curve" smooth="yes"/>
      <point x="200" y="55"/>
      <point x="186" y="78"/>
      <point x="154" y="78" type="curve" smooth="yes"/>
      <point x="145" y="78"/>
      <point x="135" y="76"/>
      <point x="123" y="72" type="curve" smooth="yes"/>
      <point x="97" y="63"/>
      <point x="82" y="18"/>
      <point x="86" y="-1" type="curve" smooth="yes"/>
      <point x="88" y="-14"/>
      <point x="94" y="-21"/>
      <point x="104" y="-21" type="curve" smooth="yes"/>
      <point x="118" y="-21"/>
      <point x="147" y="-14"/>
      <point x="145" y="-22" type="curve"/>
      <point x="144" y="-33"/>
      <point x="132" y="-47"/>
      <point x="112" y="-66" type="curve" smooth="yes"/>
      <point x="92" y="-85"/>
      <point x="73" y="-99"/>
      <point x="55" y="-107" type="curve" smooth="yes"/>
      <point x="19" y="-123"/>
      <point x="23" y="-125"/>
    </contour>
  </outline>
</glyph>
<glyph name="equal" format="2">
  <advance width="476"/>
  <unicode hex="003D"/>
  <outline>
    <contour>
      <point x="6" y="184" type="curve" smooth="yes"/>
      <point x="15" y="175"/>
      <point x="74" y="170"/>
      <point x="181" y="170" type="curve" smooth="yes"/>
      <point x="226" y="170"/>
      <point x="276" y="172"/>
      <point x="331" y="175" type="curve" smooth="yes"/>
      <point x="400" y="179"/>
      <point x="434" y="184"/>
      <point x="434" y="191" type="curve"/>
      <point x="434" y="192"/>
      <point x="433" y="193"/>
      <point x="432" y="194" type="curve" smooth="yes"/>
      <point x="429" y="197"/>
      <point x="384" y="200"/>
      <point x="296" y="203" type="curve" smooth="yes"/>
      <point x="151" y="207" type="line"/>
      <point x="137" y="207"/>
      <point x="106" y="206"/>
      <point x="59" y="203" type="curve" smooth="yes"/>
      <point x="22" y="201"/>
      <point x="3" y="196"/>
      <point x="3" y="189" type="curve"/>
      <point x="3" y="188"/>
      <point x="4" y="186"/>
    </contour>
    <contour>
      <point x="92" y="271" type="curve"/>
      <point x="95" y="268"/>
      <point x="159" y="266"/>
      <point x="287" y="266" type="curve" smooth="yes"/>
      <point x="414" y="266"/>
      <point x="485" y="267"/>
      <point x="499" y="269" type="curve" smooth="yes"/>
      <point x="510" y="271"/>
      <point x="516" y="274"/>
      <point x="516" y="277" type="curve" smooth="yes"/>
      <point x="516" y="279"/>
      <point x="514" y="281"/>
      <point x="509" y="283" type="curve" smooth="yes"/>
      <point x="501" y="286"/>
      <point x="420" y="288"/>
      <point x="265" y="288" type="curve" smooth="yes"/>
      <point x="178" y="288"/>
      <point x="128" y="287"/>
      <point x="116" y="285" type="curve" smooth="yes"/>
      <point x="99" y="282"/>
      <point x="90" y="278"/>
      <point x="90" y="275" type="curve"/>
      <point x="91" y="272"/>
      <point x="92" y="271"/>
    </contour>
  </outline>
</glyph>
<glyph name="question" format="2">
  <advance width="607"/>
  <unicode hex="003F"/>
  <outline>
    <contour>
      <point x="0" y="19" type="curve" smooth="yes"/>
      <point x="0" y="6"/>
      <point x="7" y="0"/>
      <point x="22" y="0" type="curve" smooth="yes"/>
      <point x="29" y="0"/>
      <point x="37" y="2"/>
      <point x="46" y="7" type="curve" smooth="yes"/>
      <point x="85" y="26"/>
      <point x="111" y="54"/>
      <point x="111" y="73" type="curve" smooth="yes"/>
      <point x="111" y="80"/>
      <point x="108" y="85"/>
      <point x="101" y="88" type="curve"/>
      <point x="97" y="91"/>
      <point x="93" y="92"/>
      <point x="91" y="92" type="curve" smooth="yes"/>
      <point x="88" y="92"/>
      <point x="79" y="88"/>
      <point x="62" y="80" type="curve" smooth="yes"/>
      <point x="47" y="74"/>
      <point x="33" y="64"/>
      <point x="20" y="51" type="curve" smooth="yes"/>
      <point x="7" y="38"/>
      <point x="0" y="27"/>
    </contour>
    <contour>
      <point x="106" y="136" type="curve" smooth="yes"/>
      <point x="106" y="122"/>
      <point x="118" y="115"/>
      <point x="141" y="115" type="curve" smooth="yes"/>
      <point x="150" y="115"/>
      <point x="163" y="117"/>
      <point x="179" y="121" type="curve"/>
      <point x="190" y="125"/>
      <point x="203" y="132"/>
      <point x="218" y="142" type="curve" smooth="yes"/>
      <point x="233" y="152"/>
      <point x="240" y="159"/>
      <point x="240" y="164" type="curve"/>
      <point x="240" y="165"/>
      <point x="240" y="165"/>
      <point x="239" y="166" type="curve"/>
      <point x="238" y="166" type="line"/>
      <point x="231" y="166"/>
      <point x="216" y="161"/>
      <point x="192" y="150" type="curve" smooth="yes"/>
      <point x="168" y="139"/>
      <point x="152" y="133"/>
      <point x="144" y="133" type="curve" smooth="yes"/>
      <point x="137" y="133"/>
      <point x="133" y="137"/>
      <point x="133" y="145" type="curve" smooth="yes"/>
      <point x="133" y="167"/>
      <point x="207" y="209"/>
      <point x="355" y="270" type="curve" smooth="yes"/>
      <point x="491" y="327"/>
      <point x="575" y="373"/>
      <point x="607" y="410" type="curve" smooth="yes"/>
      <point x="639" y="448"/>
      <point x="655" y="488"/>
      <point x="655" y="530" type="curve" smooth="yes"/>
      <point x="655" y="543"/>
      <point x="653" y="555"/>
      <point x="648" y="566" type="curve" smooth="yes"/>
      <point x="636" y="591"/>
      <point x="603" y="616"/>
      <point x="576" y="620" type="curve"/>
      <point x="563" y="621"/>
      <point x="550" y="630"/>
      <point x="539" y="647" type="curve" smooth="yes"/>
      <point x="528" y="664"/>
      <point x="518" y="674"/>
      <point x="511" y="677" type="curve"/>
      <point x="500" y="684"/>
      <point x="481" y="688"/>
      <point x="454" y="688" type="curve" smooth="yes"/>
      <point x="447" y="688"/>
      <point x="441" y="688"/>
      <point x="438" y="687" type="curve" smooth="yes"/>
      <point x="427" y="685"/>
      <point x="421" y="682"/>
      <point x="421" y="678" type="curve" smooth="yes"/>
      <point x="421" y="670"/>
      <point x="436" y="666"/>
      <point x="465" y="666" type="curve" smooth="yes"/>
      <point x="494" y="666"/>
      <point x="511" y="658"/>
      <point x="515" y="643" type="curve"/>
      <point x="516" y="641" type="line"/>
      <point x="516" y="640" type="line"/>
      <point x="516" y="638" type="line" smooth="yes"/>
      <point x="516" y="629"/>
      <point x="508" y="626"/>
      <point x="457" y="614" type="curve"/>
      <point x="404" y="603"/>
      <point x="348" y="576"/>
      <point x="287" y="534" type="curve" smooth="yes"/>
      <point x="226" y="492"/>
      <point x="188" y="453"/>
      <point x="172" y="418" type="curve"/>
      <point x="157" y="389"/>
      <point x="158" y="344"/>
      <point x="170" y="328" type="curve" smooth="yes"/>
      <point x="179" y="317"/>
      <point x="183" y="316"/>
      <point x="223" y="316" type="curve"/>
      <point x="243" y="317"/>
      <point x="257" y="318"/>
      <point x="266" y="320" type="curve" smooth="yes"/>
      <point x="275" y="322"/>
      <point x="289" y="328"/>
      <point x="310" y="338" type="curve" smooth="yes"/>
      <point x="339" y="353"/>
      <point x="368" y="372"/>
      <point x="399" y="396" type="curve" smooth="yes"/>
      <point x="430" y="420"/>
      <point x="454" y="444"/>
      <point x="473" y="467" type="curve" smooth="yes"/>
      <point x="492" y="489"/>
      <point x="510" y="516"/>
      <point x="525" y="548" type="curve" smooth="yes"/>
      <point x="536" y="571"/>
      <point x="543" y="584"/>
      <point x="547" y="588" type="curve" smooth="yes"/>
      <point x="551" y="592"/>
      <point x="557" y="595"/>
      <point x="566" y="596" type="curve"/>
      <point x="573" y="596" type="line" smooth="yes"/>
      <point x="596" y="596"/>
      <point x="607" y="582"/>
      <point x="607" y="554" type="curve"/>
      <point x="604" y="478"/>
      <point x="527" y="401"/>
      <point x="350" y="308" type="curve"/>
      <point x="227" y="241"/>
      <point x="155" y="198"/>
      <point x="133" y="178" type="curve" smooth="yes"/>
      <point x="115" y="161"/>
      <point x="106" y="147"/>
    </contour>
    <contour>
      <point x="182" y="355" type="curve" smooth="yes"/>
      <point x="182" y="364"/>
      <point x="186" y="379"/>
      <point x="195" y="398" type="curve" smooth="yes"/>
      <point x="208" y="426"/>
      <point x="236" y="458"/>
      <point x="279" y="493" type="curve" smooth="yes"/>
      <point x="322" y="528"/>
      <point x="364" y="555"/>
      <point x="406" y="572" type="curve"/>
      <point x="449" y="591"/>
      <point x="479" y="601"/>
      <point x="495" y="601" type="curve" smooth="yes"/>
      <point x="503" y="601"/>
      <point x="509" y="599"/>
      <point x="513" y="594" type="curve" smooth="yes"/>
      <point x="516" y="589"/>
      <point x="517" y="585"/>
      <point x="517" y="582" type="curve" smooth="yes"/>
      <point x="517" y="553"/>
      <point x="476" y="492"/>
      <point x="413" y="435" type="curve"/>
      <point x="342" y="368"/>
      <point x="278" y="334"/>
      <point x="222" y="334" type="curve" smooth="yes"/>
      <point x="195" y="334"/>
      <point x="182" y="341"/>
    </contour>
  </outline>
</glyph>
<glyph name="at" format="2">
  <advance width="417"/>
  <unicode hex="0040"/>
  <outline>
    <contour>
      <point x="0" y="44" type="curve" smooth="yes"/>
      <point x="0" y="-28"/>
      <point x="46" y="-64"/>
      <point x="139" y="-64" type="curve" smooth="yes"/>
      <point x="219" y="-64"/>
      <point x="286" y="-38"/>
      <point x="340" y="13" type="curve" smooth="yes"/>
      <point x="362" y="34"/>
      <point x="384" y="57"/>
      <point x="405" y="82" type="curve" smooth="yes"/>
      <point x="426" y="107"/>
      <point x="440" y="127"/>
      <point x="446" y="140" type="curve" smooth="yes"/>
      <point x="452" y="153"/>
      <point x="455" y="169"/>
      <point x="455" y="187" type="curve" smooth="yes"/>
      <point x="455" y="198"/>
      <point x="453" y="209"/>
      <point x="450" y="218" type="curve" smooth="yes"/>
      <point x="441" y="240"/>
      <point x="423" y="259"/>
      <point x="395" y="274" type="curve" smooth="yes"/>
      <point x="380" y="282"/>
      <point x="352" y="286"/>
      <point x="311" y="286" type="curve" smooth="yes"/>
      <point x="282" y="286"/>
      <point x="260" y="284"/>
      <point x="244" y="279" type="curve"/>
      <point x="199" y="268"/>
      <point x="154" y="246"/>
      <point x="111" y="213" type="curve" smooth="yes"/>
      <point x="68" y="180"/>
      <point x="36" y="145"/>
      <point x="17" y="108" type="curve" smooth="yes"/>
      <point x="6" y="85"/>
      <point x="0" y="64"/>
    </contour>
    <contour>
      <point x="24" y="43" type="curve" smooth="yes"/>
      <point x="24" y="51"/>
      <point x="25" y="59"/>
      <point x="27" y="68" type="curve" smooth="yes"/>
      <point x="38" y="120"/>
      <point x="70" y="165"/>
      <point x="122" y="204" type="curve" smooth="yes"/>
      <point x="187" y="252"/>
      <point x="252" y="276"/>
      <point x="316" y="276" type="curve" smooth="yes"/>
      <point x="337" y="276"/>
      <point x="357" y="273"/>
      <point x="376" y="267" type="curve" smooth="yes"/>
      <point x="387" y="264"/>
      <point x="400" y="256"/>
      <point x="414" y="243" type="curve" smooth="yes"/>
      <point x="434" y="225" type="line"/>
      <point x="434" y="225" type="line"/>
      <point x="431" y="188" type="line" smooth="yes"/>
      <point x="429" y="153"/>
      <point x="420" y="127"/>
      <point x="405" y="108" type="curve"/>
      <point x="398" y="101"/>
      <point x="393" y="102"/>
      <point x="388" y="106" type="curve"/>
      <point x="385" y="107"/>
      <point x="383" y="108"/>
      <point x="382" y="108" type="curve"/>
      <point x="377" y="108"/>
      <point x="350" y="90"/>
      <point x="301" y="55" type="curve" smooth="yes"/>
      <point x="285" y="44"/>
      <point x="274" y="38"/>
      <point x="269" y="38" type="curve"/>
      <point x="268" y="38" type="line"/>
      <point x="267" y="38"/>
      <point x="267" y="39"/>
      <point x="267" y="41" type="curve" smooth="yes"/>
      <point x="267" y="47"/>
      <point x="292" y="80"/>
      <point x="343" y="141" type="curve" smooth="yes"/>
      <point x="373" y="176"/>
      <point x="388" y="199"/>
      <point x="388" y="209" type="curve" smooth="yes"/>
      <point x="388" y="218"/>
      <point x="377" y="219"/>
      <point x="348" y="206" type="curve" smooth="yes"/>
      <point x="319" y="193"/>
      <point x="319" y="194"/>
      <point x="306" y="201" type="curve"/>
      <point x="299" y="206"/>
      <point x="289" y="208"/>
      <point x="278" y="208" type="curve" smooth="yes"/>
      <point x="259" y="208"/>
      <point x="231" y="196"/>
      <point x="193" y="173" type="curve" smooth="yes"/>
      <point x="128" y="134"/>
      <point x="96" y="91"/>
      <point x="96" y="45" type="curve" smooth="yes"/>
      <point x="96" y="15"/>
      <point x="107" y="0"/>
      <point x="128" y="0" type="curve" smooth="yes"/>
      <point x="147" y="0"/>
      <point x="169" y="10"/>
      <point x="196" y="31" type="curve"/>
      <point x="212" y="42"/>
      <point x="221" y="47"/>
      <point x="223" y="47" type="curve"/>
      <point x="225" y="48"/>
      <point x="226" y="42"/>
      <point x="226" y="30" type="curve" smooth="yes"/>
      <point x="226" y="18"/>
      <point x="230" y="10"/>
      <point x="237" y="6" type="curve" smooth="yes"/>
      <point x="242" y="3"/>
      <point x="247" y="1"/>
      <point x="252" y="1" type="curve" smooth="yes"/>
      <point x="263" y="1"/>
      <point x="282" y="9"/>
      <point x="311" y="24" type="curve"/>
      <point x="346" y="44" type="line"/>
      <point x="347" y="45" type="line"/>
      <point x="346" y="44" type="line"/>
      <point x="339" y="29" type="line"/>
      <point x="329" y="10"/>
      <point x="303" y="-8"/>
      <point x="261" y="-26" type="curve" smooth="yes"/>
      <point x="219" y="-43"/>
      <point x="179" y="-52"/>
      <point x="140" y="-52" type="curve" smooth="yes"/>
      <point x="117" y="-52"/>
      <point x="99" y="-49"/>
      <point x="85" y="-43" type="curve"/>
      <point x="44" y="-28"/>
      <point x="24" y="1"/>
    </contour>
    <contour>
      <point x="135" y="45" type="curve" smooth="yes"/>
      <point x="135" y="58"/>
      <point x="150" y="80"/>
      <point x="181" y="111" type="curve" smooth="yes"/>
      <point x="222" y="151"/>
      <point x="268" y="182"/>
      <point x="285" y="182" type="curve" smooth="yes"/>
      <point x="290" y="182"/>
      <point x="293" y="180"/>
      <point x="293" y="175" type="curve" smooth="yes"/>
      <point x="293" y="162"/>
      <point x="270" y="133"/>
      <point x="223" y="90" type="curve" smooth="yes"/>
      <point x="184" y="53"/>
      <point x="157" y="34"/>
      <point x="143" y="34" type="curve" smooth="yes"/>
      <point x="139" y="34"/>
      <point x="135" y="38"/>
    </contour>
  </outline>
</glyph>
<glyph name="D" format="2">
  <advance width="800"/>
  <unicode hex="0044"/>
  <outline>
    <contour>
      <point x="0" y="28" type="curve" smooth="yes"/>
      <point x="0" y="15"/>
      <point x="11" y="7"/>
      <point x="33" y="4" type="curve" smooth="yes"/>
      <point x="55" y="1"/>
      <point x="124" y="0"/>
      <point x="240" y="0" type="curve" smooth="yes"/>
      <point x="323" y="0" type="line" smooth="yes"/>
      <point x="386" y="0"/>
      <point x="426" y="1"/>
      <point x="443" y="2" type="curve" smooth="yes"/>
      <point x="460" y="3"/>
      <point x="477" y="6"/>
      <point x="494" y="11" type="curve" smooth="yes"/>
      <point x="543" y="26"/>
      <point x="595" y="51"/>
      <point x="650" y="88" type="curve" smooth="yes"/>
      <point x="673" y="103"/>
      <point x="700" y="127"/>
      <point x="731" y="159" type="curve" smooth="yes"/>
      <point x="762" y="191"/>
      <point x="787" y="220"/>
      <point x="804" y="247" type="curve"/>
      <point x="829" y="284"/>
      <point x="845" y="319"/>
      <point x="854" y="351" type="curve" smooth="yes"/>
      <point x="862" y="383"/>
      <point x="866" y="428"/>
      <point x="866" y="487" type="curve" smooth="yes"/>
      <point x="866" y="490"/>
      <point x="866" y="496"/>
      <point x="866" y="505" type="curve" smooth="yes"/>
      <point x="866" y="538"/>
      <point x="871" y="560"/>
      <point x="880" y="571" type="curve" smooth="yes"/>
      <point x="886" y="577"/>
      <point x="917" y="590"/>
      <point x="972" y="609" type="curve" smooth="yes"/>
      <point x="996" y="618"/>
      <point x="1008" y="625"/>
      <point x="1008" y="630" type="curve" smooth="yes"/>
      <point x="1008" y="633"/>
      <point x="1005" y="635"/>
      <point x="998" y="635" type="curve" smooth="yes"/>
      <point x="976" y="635"/>
      <point x="944" y="626"/>
      <point x="903" y="608" type="curve" smooth="yes"/>
      <point x="870" y="593"/>
      <point x="848" y="586"/>
      <point x="839" y="586" type="curve" smooth="yes"/>
      <point x="830" y="586"/>
      <point x="812" y="594"/>
      <point x="787" y="610" type="curve"/>
      <point x="725" y="647"/>
      <point x="654" y="665"/>
      <point x="574" y="665" type="curve" smooth="yes"/>
      <point x="550" y="665"/>
      <point x="529" y="663"/>
      <point x="510" y="660" type="curve" smooth="yes"/>
      <point x="454" y="651"/>
      <point x="396" y="630"/>
      <point x="335" y="597" type="curve" smooth="yes"/>
      <point x="272" y="563"/>
      <point x="216" y="523"/>
      <point x="169" y="476" type="curve"/>
      <point x="96" y="406"/>
      <point x="60" y="343"/>
      <point x="60" y="287" type="curve" smooth="yes"/>
      <point x="60" y="284"/>
      <point x="60" y="281"/>
      <point x="60" y="279" type="curve" smooth="yes"/>
      <point x="60" y="256"/>
      <point x="64" y="238"/>
      <point x="73" y="225" type="curve" smooth="yes"/>
      <point x="82" y="212"/>
      <point x="98" y="201"/>
      <point x="121" y="191" type="curve" smooth="yes"/>
      <point x="177" y="166"/>
      <point x="261" y="188"/>
      <point x="374" y="257" type="curve" smooth="yes"/>
      <point x="453" y="306"/>
      <point x="512" y="355"/>
      <point x="553" y="404" type="curve"/>
      <point x="583" y="442"/>
      <point x="598" y="472"/>
      <point x="598" y="493" type="curve" smooth="yes"/>
      <point x="598" y="507"/>
      <point x="592" y="519"/>
      <point x="580" y="528" type="curve"/>
      <point x="559" y="547"/>
      <point x="518" y="548"/>
      <point x="458" y="529" type="curve" smooth="yes"/>
      <point x="415" y="516"/>
      <point x="364" y="487"/>
      <point x="305" y="442" type="curve" smooth="yes"/>
      <point x="249" y="399"/>
      <point x="206" y="357"/>
      <point x="176" y="314" type="curve" smooth="yes"/>
      <point x="165" y="297"/>
      <point x="159" y="285"/>
      <point x="159" y="278" type="curve" smooth="yes"/>
      <point x="159" y="275"/>
      <point x="160" y="274"/>
      <point x="163" y="274" type="curve" smooth="yes"/>
      <point x="166" y="274"/>
      <point x="188" y="294"/>
      <point x="228" y="335" type="curve" smooth="yes"/>
      <point x="294" y="403"/>
      <point x="364" y="455"/>
      <point x="438" y="490" type="curve" smooth="yes"/>
      <point x="461" y="501"/>
      <point x="477" y="508"/>
      <point x="488" y="511" type="curve" smooth="yes"/>
      <point x="515" y="520"/>
      <point x="540" y="521"/>
      <point x="562" y="514" type="curve" smooth="yes"/>
      <point x="566" y="513"/>
      <point x="569" y="508"/>
      <point x="571" y="501" type="curve"/>
      <point x="572" y="500"/>
      <point x="572" y="497"/>
      <point x="572" y="492" type="curve" smooth="yes"/>
      <point x="572" y="471"/>
      <point x="556" y="441"/>
      <point x="523" y="403" type="curve" smooth="yes"/>
      <point x="490" y="365"/>
      <point x="450" y="330"/>
      <point x="404" y="299" type="curve" smooth="yes"/>
      <point x="372" y="278"/>
      <point x="336" y="257"/>
      <point x="297" y="238" type="curve" smooth="yes"/>
      <point x="258" y="219"/>
      <point x="229" y="207"/>
      <point x="210" y="202" type="curve"/>
      <point x="199" y="200"/>
      <point x="188" y="199"/>
      <point x="179" y="199" type="curve" smooth="yes"/>
      <point x="138" y="199"/>
      <point x="106" y="218"/>
      <point x="85" y="255" type="curve" smooth="yes"/>
      <point x="80" y="264"/>
      <point x="78" y="273"/>
      <point x="78" y="283" type="curve" smooth="yes"/>
      <point x="78" y="328"/>
      <point x="115" y="385"/>
      <point x="189" y="455" type="curve" smooth="yes"/>
      <point x="252" y="514"/>
      <point x="318" y="560"/>
      <point x="388" y="592" type="curve" smooth="yes"/>
      <point x="458" y="624"/>
      <point x="527" y="640"/>
      <point x="596" y="640" type="curve" smooth="yes"/>
      <point x="611" y="640"/>
      <point x="619" y="640"/>
      <point x="622" y="639" type="curve"/>
      <point x="659" y="638"/>
      <point x="697" y="628"/>
      <point x="738" y="609" type="curve" smooth="yes"/>
      <point x="777" y="592"/>
      <point x="797" y="575"/>
      <point x="797" y="560" type="curve" smooth="yes"/>
      <point x="797" y="555"/>
      <point x="778" y="535"/>
      <point x="741" y="499" type="curve" smooth="yes"/>
      <point x="687" y="448"/>
      <point x="623" y="372"/>
      <point x="550" y="270" type="curve" smooth="yes"/>
      <point x="461" y="147"/>
      <point x="380" y="71"/>
      <point x="307" y="44" type="curve" smooth="yes"/>
      <point x="290" y="38"/>
      <point x="249" y="35"/>
      <point x="182" y="35" type="curve" smooth="yes"/>
      <point x="137" y="35"/>
      <point x="95" y="37"/>
      <point x="57" y="40" type="curve" smooth="yes"/>
      <point x="38" y="42"/>
      <point x="19" y="43"/>
      <point x="0" y="44" type="curve"/>
      <point x="0" y="39"/>
      <point x="0" y="34"/>
    </contour>
    <contour>
      <point x="349" y="25" type="curve" smooth="yes"/>
      <point x="349" y="28"/>
      <point x="368" y="44"/>
      <point x="407" y="71" type="curve" smooth="yes"/>
      <point x="482" y="125"/>
      <point x="548" y="192"/>
      <point x="605" y="272" type="curve" smooth="yes"/>
      <point x="668" y="361"/>
      <point x="719" y="428"/>
      <point x="757" y="473" type="curve" smooth="yes"/>
      <point x="787" y="508"/>
      <point x="810" y="526"/>
      <point x="827" y="526" type="curve" smooth="yes"/>
      <point x="831" y="526" type="line" smooth="yes"/>
      <point x="834" y="526"/>
      <point x="835" y="520"/>
      <point x="836" y="509" type="curve" smooth="yes"/>
      <point x="839" y="486"/>
      <point x="840" y="464"/>
      <point x="840" y="444" type="curve" smooth="yes"/>
      <point x="840" y="395"/>
      <point x="833" y="355"/>
      <point x="818" y="326" type="curve" smooth="yes"/>
      <point x="746" y="180"/>
      <point x="634" y="85"/>
      <point x="481" y="40" type="curve" smooth="yes"/>
      <point x="438" y="28"/>
      <point x="399" y="22"/>
      <point x="364" y="22" type="curve" smooth="yes"/>
      <point x="354" y="22"/>
      <point x="349" y="23"/>
    </contour>
  </outline>
</glyph>
<glyph name="E" format="2">
  <advance width="400"/>
  <unicode hex="0045"/>
  <anchor x="613" y="720" name="top"/>
  <outline>
    <contour>
      <point x="155" y="0" type="curve" smooth="yes"/>
      <point x="286" y="0"/>
      <point x="526" y="118"/>
      <point x="526" y="199" type="curve" smooth="yes"/>
      <point x="526" y="234"/>
      <point x="491" y="264"/>
      <point x="451" y="264" type="curve" smooth="yes"/>
      <point x="369" y="264"/>
      <point x="188" y="174"/>
      <point x="82" y="44" type="curve"/>
      <point x="101" y="34" type="line"/>
      <point x="193" y="139"/>
      <point x="366" y="245"/>
      <point x="451" y="245" type="curve" smooth="yes"/>
      <point x="473" y="245"/>
      <point x="496" y="226"/>
      <point x="496" y="209" type="curve" smooth="yes"/>
      <point x="496" y="137"/>
      <point x="277" y="26"/>
      <point x="165" y="26" type="curve" smooth="yes"/>
      <point x="94" y="26"/>
      <point x="62" y="66"/>
      <point x="62" y="115" type="curve" smooth="yes"/>
      <point x="62" y="226"/>
      <point x="141" y="309"/>
      <point x="324" y="363" type="curve"/>
      <point x="334" y="365"/>
      <point x="352" y="367"/>
      <point x="379" y="368" type="curve" smooth="yes"/>
      <point x="423" y="370"/>
      <point x="446" y="377"/>
      <point x="446" y="386" type="curve" smooth="yes"/>
      <point x="446" y="388"/>
      <point x="446" y="390"/>
      <point x="445" y="391" type="curve"/>
      <point x="442" y="400"/>
      <point x="409" y="411"/>
      <point x="384" y="411" type="curve" smooth="yes"/>
      <point x="367" y="411"/>
      <point x="358" y="419"/>
      <point x="358" y="434" type="curve" smooth="yes"/>
      <point x="358" y="545"/>
      <point x="532" y="631"/>
      <point x="650" y="631" type="curve" smooth="yes"/>
      <point x="677" y="631"/>
      <point x="700" y="622"/>
      <point x="700" y="592" type="curve" smooth="yes"/>
      <point x="700" y="419"/>
      <point x="301" y="247"/>
      <point x="105" y="247" type="curve"/>
      <point x="95" y="229" type="line"/>
      <point x="317" y="229"/>
      <point x="730" y="405"/>
      <point x="730" y="586" type="curve" smooth="yes"/>
      <point x="730" y="645"/>
      <point x="695" y="659"/>
      <point x="629" y="659" type="curve" smooth="yes"/>
      <point x="531" y="659"/>
      <point x="326" y="553"/>
      <point x="326" y="448" type="curve" smooth="yes"/>
      <point x="326" y="437"/>
      <point x="328" y="419"/>
      <point x="336" y="396" type="curve"/>
      <point x="191" y="341"/>
      <point x="32" y="279"/>
      <point x="32" y="119" type="curve" smooth="yes"/>
      <point x="32" y="50"/>
      <point x="65" y="0"/>
    </contour>
    <contour>
      <point x="91" y="245" type="line"/>
      <point x="-86" y="245"/>
      <point x="-214" y="302"/>
      <point x="-214" y="363" type="curve" smooth="yes"/>
      <point x="-214" y="441"/>
      <point x="-107" y="500"/>
      <point x="32" y="500" type="curve" smooth="yes"/>
      <point x="108" y="500"/>
      <point x="161" y="489"/>
      <point x="232" y="463" type="curve"/>
      <point x="237" y="473" type="line"/>
      <point x="197" y="501"/>
      <point x="114" y="521"/>
      <point x="36" y="521" type="curve" smooth="yes"/>
      <point x="-117" y="521"/>
      <point x="-240" y="452"/>
      <point x="-240" y="367" type="curve" smooth="yes"/>
      <point x="-240" y="286"/>
      <point x="-108" y="228"/>
      <point x="74" y="228" type="curve"/>
    </contour>
    <contour>
      <point x="102" y="-267" type="curve" smooth="yes"/>
      <point x="185" y="-267"/>
      <point x="279" y="-224"/>
      <point x="343" y="-158" type="curve" smooth="yes"/>
      <point x="412" y="-87"/>
      <point x="446" y="-34"/>
      <point x="446" y="-18" type="curve" smooth="yes"/>
      <point x="446" y="-14"/>
      <point x="445" y="-11"/>
      <point x="442" y="-9" type="curve"/>
      <point x="441" y="-8"/>
      <point x="440" y="-8"/>
      <point x="439" y="-8" type="curve" smooth="yes"/>
      <point x="437" y="-8"/>
      <point x="409" y="-43"/>
      <point x="369" y="-94" type="curve" smooth="yes"/>
      <point x="317" y="-160"/>
      <point x="208" y="-245"/>
      <point x="117" y="-245" type="curve" smooth="yes"/>
      <point x="65" y="-245"/>
      <point x="26" y="-211"/>
      <point x="26" y="-165" type="curve" smooth="yes"/>
      <point x="26" y="-105"/>
      <point x="63" y="-24"/>
      <point x="93" y="22" type="curve"/>
      <point x="70" y="34" type="line"/>
      <point x="33" y="-25"/>
      <point x="0" y="-113"/>
      <point x="0" y="-160" type="curve" smooth="yes"/>
      <point x="0" y="-218"/>
      <point x="47" y="-267"/>
    </contour>
  </outline>
</glyph>
<glyph name="F" format="2">
  <advance width="730"/>
  <unicode hex="0046"/>
  <outline>
    <contour>
      <point x="27" y="72" type="curve" smooth="yes"/>
      <point x="27" y="146"/>
      <point x="174" y="157"/>
      <point x="222" y="157" type="curve" smooth="yes"/>
      <point x="275" y="157"/>
      <point x="318" y="152"/>
      <point x="353" y="141" type="curve" smooth="yes"/>
      <point x="418" y="120"/>
      <point x="451" y="101"/>
      <point x="451" y="86" type="curve" smooth="yes"/>
      <point x="451" y="75"/>
      <point x="410" y="59"/>
      <point x="327" y="41" type="curve" smooth="yes"/>
      <point x="272" y="29"/>
      <point x="225" y="28"/>
      <point x="169" y="28" type="curve" smooth="yes"/>
      <point x="139" y="28"/>
      <point x="27" y="41"/>
    </contour>
    <contour>
      <point x="441" y="353" type="curve" smooth="yes"/>
      <point x="441" y="436"/>
      <point x="669" y="599"/>
      <point x="733" y="599" type="curve"/>
      <point x="747" y="599"/>
      <point x="752" y="588"/>
      <point x="752" y="571" type="curve" smooth="yes"/>
      <point x="752" y="472"/>
      <point x="564" y="322"/>
      <point x="475" y="322" type="curve" smooth="yes"/>
      <point x="455" y="322"/>
      <point x="441" y="328"/>
    </contour>
    <contour>
      <point x="264" y="366" type="curve"/>
      <point x="271" y="367"/>
      <point x="279" y="381"/>
      <point x="288" y="408" type="curve" smooth="yes"/>
      <point x="306" y="464"/>
      <point x="379" y="540"/>
      <point x="426" y="579" type="curve" smooth="yes"/>
      <point x="479" y="622"/>
      <point x="568" y="647"/>
      <point x="634" y="647" type="curve" smooth="yes"/>
      <point x="693" y="647"/>
      <point x="722" y="642"/>
      <point x="722" y="633" type="curve" smooth="yes"/>
      <point x="722" y="630"/>
      <point x="704" y="618"/>
      <point x="667" y="599" type="curve" smooth="yes"/>
      <point x="595" y="561"/>
      <point x="411" y="441"/>
      <point x="411" y="349" type="curve" smooth="yes"/>
      <point x="411" y="315"/>
      <point x="438" y="291"/>
      <point x="471" y="291" type="curve" smooth="yes"/>
      <point x="579" y="291"/>
      <point x="797" y="469"/>
      <point x="797" y="593" type="curve" smooth="yes"/>
      <point x="797" y="606"/>
      <point x="793" y="615"/>
      <point x="786" y="622" type="curve"/>
      <point x="786" y="625"/>
      <point x="797" y="628"/>
      <point x="820" y="629" type="curve" smooth="yes"/>
      <point x="863" y="632"/>
      <point x="948" y="637"/>
      <point x="1073" y="643" type="curve" smooth="yes"/>
      <point x="1187" y="648"/>
      <point x="1246" y="651"/>
      <point x="1250" y="652" type="curve" smooth="yes"/>
      <point x="1254" y="653"/>
      <point x="1256" y="658"/>
      <point x="1256" y="667" type="curve" smooth="yes"/>
      <point x="1256" y="672"/>
      <point x="1256" y="676"/>
      <point x="1256" y="680" type="curve"/>
      <point x="1088" y="680"/>
      <point x="929" y="676"/>
      <point x="764" y="646" type="curve"/>
      <point x="712" y="675"/>
      <point x="689" y="679"/>
      <point x="625" y="679" type="curve" smooth="yes"/>
      <point x="490" y="679"/>
      <point x="327" y="556"/>
      <point x="271" y="434" type="curve" smooth="yes"/>
      <point x="262" y="415"/>
      <point x="258" y="397"/>
      <point x="258" y="380" type="curve" smooth="yes"/>
      <point x="258" y="371"/>
      <point x="260" y="366"/>
    </contour>
    <contour>
      <point x="226" y="-290" type="curve" smooth="yes"/>
      <point x="364" y="-290"/>
      <point x="546" y="-208"/>
      <point x="546" y="-50" type="curve" smooth="yes"/>
      <point x="546" y="-17"/>
      <point x="533" y="32"/>
      <point x="518" y="62" type="curve"/>
      <point x="515" y="67"/>
      <point x="514" y="70"/>
      <point x="514" y="71" type="curve"/>
      <point x="516" y="80"/>
      <point x="528" y="91"/>
      <point x="550" y="102" type="curve" smooth="yes"/>
      <point x="619" y="137"/>
      <point x="695" y="202"/>
      <point x="779" y="297" type="curve"/>
      <point x="802" y="299"/>
      <point x="814" y="300"/>
      <point x="815" y="300" type="curve"/>
      <point x="842" y="302"/>
      <point x="870" y="306"/>
      <point x="898" y="313" type="curve" smooth="yes"/>
      <point x="937" y="322"/>
      <point x="955" y="331"/>
      <point x="954" y="340" type="curve"/>
      <point x="954" y="342"/>
      <point x="950" y="343"/>
      <point x="941" y="343" type="curve" smooth="yes"/>
      <point x="932" y="343"/>
      <point x="923" y="342"/>
      <point x="913" y="340" type="curve" smooth="yes"/>
      <point x="902" y="338"/>
      <point x="890" y="337"/>
      <point x="875" y="337" type="curve" smooth="yes"/>
      <point x="852" y="338"/>
      <point x="833" y="339"/>
      <point x="818" y="342" type="curve"/>
      <point x="865" y="411"/>
      <point x="964" y="530"/>
      <point x="1028" y="572" type="curve" smooth="yes"/>
      <point x="1062" y="595"/>
      <point x="1079" y="610"/>
      <point x="1079" y="617" type="curve" smooth="yes"/>
      <point x="1079" y="620"/>
      <point x="1077" y="622"/>
      <point x="1074" y="622" type="curve"/>
      <point x="1005" y="614"/>
      <point x="826" y="422"/>
      <point x="767" y="354" type="curve"/>
      <point x="723" y="350"/>
      <point x="585" y="326"/>
      <point x="585" y="304" type="curve" smooth="yes"/>
      <point x="585" y="300"/>
      <point x="597" y="299"/>
      <point x="619" y="299" type="curve" smooth="yes"/>
      <point x="653" y="299"/>
      <point x="687" y="300"/>
      <point x="720" y="302" type="curve"/>
      <point x="682" y="244"/>
      <point x="535" y="106"/>
      <point x="476" y="106" type="curve"/>
      <point x="473" y="106"/>
      <point x="463" y="112"/>
      <point x="444" y="123" type="curve" smooth="yes"/>
      <point x="375" y="164"/>
      <point x="296" y="184"/>
      <point x="207" y="184" type="curve" smooth="yes"/>
      <point x="149" y="184"/>
      <point x="0" y="156"/>
      <point x="0" y="76" type="curve" smooth="yes"/>
      <point x="0" y="5"/>
      <point x="108" y="0"/>
      <point x="155" y="0" type="curve" smooth="yes"/>
      <point x="237" y="0"/>
      <point x="345" y="8"/>
      <point x="421" y="40" type="curve" smooth="yes"/>
      <point x="450" y="52"/>
      <point x="469" y="58"/>
      <point x="478" y="58" type="curve"/>
      <point x="479" y="58"/>
      <point x="480" y="58"/>
      <point x="481" y="57" type="curve"/>
      <point x="517" y="28"/>
      <point x="522" y="-9"/>
      <point x="522" y="-54" type="curve" smooth="yes"/>
      <point x="522" y="-193"/>
      <point x="354" y="-248"/>
      <point x="238" y="-248" type="curve" smooth="yes"/>
      <point x="160" y="-248"/>
      <point x="94" y="-231"/>
      <point x="32" y="-180" type="curve" smooth="yes"/>
      <point x="14" y="-165"/>
      <point x="3" y="-157"/>
      <point x="-2" y="-157" type="curve"/>
      <point x="-3" y="-157"/>
      <point x="-4" y="-158"/>
      <point x="-4" y="-160" type="curve" smooth="yes"/>
      <point x="-4" y="-237"/>
      <point x="157" y="-290"/>
    </contour>
  </outline>
</glyph>
<glyph name="G" format="2">
  <advance width="874"/>
  <unicode hex="0047"/>
  <outline>
    <contour>
      <point x="110" y="280" type="curve" smooth="yes"/>
      <point x="125" y="277"/>
      <point x="161" y="275"/>
      <point x="216" y="275" type="curve"/>
      <point x="307" y="276"/>
      <point x="362" y="278"/>
      <point x="381" y="283" type="curve" smooth="yes"/>
      <point x="410" y="290"/>
      <point x="413" y="289"/>
      <point x="414" y="286" type="curve"/>
      <point x="414" y="283"/>
      <point x="407" y="271"/>
      <point x="392" y="248" type="curve" smooth="yes"/>
      <point x="378" y="226"/>
      <point x="363" y="200"/>
      <point x="347" y="170" type="curve"/>
      <point x="332" y="140"/>
      <point x="323" y="114"/>
      <point x="321" y="93" type="curve"/>
      <point x="320" y="91"/>
      <point x="320" y="86"/>
      <point x="320" y="79" type="curve" smooth="yes"/>
      <point x="320" y="48"/>
      <point x="334" y="26"/>
      <point x="362" y="13" type="curve"/>
      <point x="378" y="4"/>
      <point x="394" y="0"/>
      <point x="410" y="0" type="curve"/>
      <point x="441" y="1"/>
      <point x="484" y="15"/>
      <point x="540" y="42" type="curve" smooth="yes"/>
      <point x="632" y="88"/>
      <point x="729" y="158"/>
      <point x="832" y="253" type="curve"/>
      <point x="878" y="294" type="line"/>
      <point x="878" y="294" type="line"/>
      <point x="934" y="300" type="line" smooth="yes"/>
      <point x="964" y="303"/>
      <point x="992" y="307"/>
      <point x="1017" y="313" type="curve" smooth="yes"/>
      <point x="1054" y="321"/>
      <point x="1073" y="330"/>
      <point x="1073" y="340" type="curve" smooth="yes"/>
      <point x="1073" y="342"/>
      <point x="1069" y="343"/>
      <point x="1060" y="343" type="curve" smooth="yes"/>
      <point x="1051" y="343"/>
      <point x="1042" y="342"/>
      <point x="1032" y="340" type="curve" smooth="yes"/>
      <point x="1021" y="338"/>
      <point x="1009" y="337"/>
      <point x="994" y="337" type="curve"/>
      <point x="959" y="338"/>
      <point x="941" y="341"/>
      <point x="941" y="348" type="curve" smooth="yes"/>
      <point x="941" y="354"/>
      <point x="960" y="377"/>
      <point x="998" y="417" type="curve" smooth="yes"/>
      <point x="1036" y="457"/>
      <point x="1055" y="479"/>
      <point x="1055" y="482" type="curve"/>
      <point x="1054" y="488"/>
      <point x="1051" y="493"/>
      <point x="1046" y="496" type="curve"/>
      <point x="1043" y="498"/>
      <point x="1042" y="499"/>
      <point x="1041" y="499" type="curve"/>
      <point x="1032" y="496"/>
      <point x="1017" y="482"/>
      <point x="997" y="459" type="curve" smooth="yes"/>
      <point x="972" y="431"/>
      <point x="949" y="406"/>
      <point x="927" y="384" type="curve" smooth="yes"/>
      <point x="898" y="354" type="line"/>
      <point x="897" y="354" type="line"/>
      <point x="858" y="349" type="line" smooth="yes"/>
      <point x="829" y="346"/>
      <point x="795" y="340"/>
      <point x="757" y="329" type="curve" smooth="yes"/>
      <point x="722" y="318"/>
      <point x="704" y="310"/>
      <point x="704" y="304" type="curve" smooth="yes"/>
      <point x="704" y="301"/>
      <point x="727" y="300"/>
      <point x="774" y="300" type="curve" smooth="yes"/>
      <point x="846" y="300" type="line"/>
      <point x="845" y="299" type="line"/>
      <point x="815" y="269" type="line" smooth="yes"/>
      <point x="782" y="236"/>
      <point x="738" y="200"/>
      <point x="682" y="161" type="curve" smooth="yes"/>
      <point x="626" y="121"/>
      <point x="577" y="91"/>
      <point x="535" y="71" type="curve" smooth="yes"/>
      <point x="479" y="45"/>
      <point x="433" y="32"/>
      <point x="396" y="32" type="curve" smooth="yes"/>
      <point x="364" y="32"/>
      <point x="346" y="60"/>
      <point x="346" y="75" type="curve" smooth="yes"/>
      <point x="346" y="82"/>
      <point x="352" y="98"/>
      <point x="364" y="121" type="curve" smooth="yes"/>
      <point x="389" y="167"/>
      <point x="429" y="218"/>
      <point x="483" y="274" type="curve" smooth="yes"/>
      <point x="528" y="320" type="line"/>
      <point x="569" y="334"/>
      <point x="592" y="342"/>
      <point x="595" y="343" type="curve" smooth="yes"/>
      <point x="667" y="368"/>
      <point x="731" y="395"/>
      <point x="786" y="426" type="curve" smooth="yes"/>
      <point x="847" y="461"/>
      <point x="898" y="496"/>
      <point x="937" y="532" type="curve" smooth="yes"/>
      <point x="980" y="572"/>
      <point x="1002" y="602"/>
      <point x="1002" y="621" type="curve" smooth="yes"/>
      <point x="1002" y="640"/>
      <point x="980" y="656"/>
      <point x="955" y="656" type="curve" smooth="yes"/>
      <point x="942" y="656"/>
      <point x="926" y="652"/>
      <point x="905" y="644" type="curve" smooth="yes"/>
      <point x="872" y="631"/>
      <point x="816" y="597"/>
      <point x="737" y="544" type="curve" smooth="yes"/>
      <point x="662" y="493"/>
      <point x="595" y="443"/>
      <point x="538" y="394" type="curve" smooth="yes"/>
      <point x="497" y="359"/>
      <point x="454" y="335"/>
      <point x="409" y="321" type="curve" smooth="yes"/>
      <point x="364" y="307"/>
      <point x="306" y="300"/>
      <point x="233" y="300" type="curve" smooth="yes"/>
      <point x="196" y="300" type="line" smooth="yes"/>
      <point x="178" y="300"/>
      <point x="155" y="301"/>
      <point x="126" y="303" type="curve" smooth="yes"/>
      <point x="111" y="304"/>
      <point x="97" y="308"/>
      <point x="83" y="315" type="curve" smooth="yes"/>
      <point x="48" y="332"/>
      <point x="30" y="358"/>
      <point x="30" y="392" type="curve" smooth="yes"/>
      <point x="30" y="418"/>
      <point x="41" y="442"/>
      <point x="63" y="463" type="curve" smooth="yes"/>
      <point x="92" y="490"/>
      <point x="131" y="506"/>
      <point x="182" y="513" type="curve" smooth="yes"/>
      <point x="228" y="519"/>
      <point x="261" y="522"/>
      <point x="280" y="522" type="curve"/>
      <point x="329" y="521"/>
      <point x="381" y="517"/>
      <point x="435" y="508" type="curve" smooth="yes"/>
      <point x="455" y="505"/>
      <point x="468" y="504"/>
      <point x="475" y="504" type="curve" smooth="yes"/>
      <point x="482" y="504"/>
      <point x="485" y="505"/>
      <point x="485" y="508" type="curve"/>
      <point x="486" y="512"/>
      <point x="475" y="519"/>
      <point x="452" y="530" type="curve" smooth="yes"/>
      <point x="430" y="540"/>
      <point x="409" y="546"/>
      <point x="389" y="549" type="curve" smooth="yes"/>
      <point x="296" y="562"/>
      <point x="221" y="561"/>
      <point x="164" y="545" type="curve" smooth="yes"/>
      <point x="108" y="530"/>
      <point x="64" y="503"/>
      <point x="31" y="466" type="curve"/>
      <point x="10" y="441"/>
      <point x="0" y="416"/>
      <point x="0" y="392" type="curve" smooth="yes"/>
      <point x="0" y="373"/>
      <point x="7" y="355"/>
      <point x="20" y="338" type="curve" smooth="yes"/>
      <point x="45" y="306"/>
      <point x="75" y="287"/>
    </contour>
    <contour>
      <point x="590" y="378" type="curve" smooth="yes"/>
      <point x="590" y="381"/>
      <point x="610" y="401"/>
      <point x="649" y="437" type="curve" smooth="yes"/>
      <point x="688" y="473"/>
      <point x="720" y="499"/>
      <point x="744" y="516" type="curve"/>
      <point x="784" y="547"/>
      <point x="828" y="575"/>
      <point x="875" y="599" type="curve" smooth="yes"/>
      <point x="916" y="620"/>
      <point x="942" y="631"/>
      <point x="955" y="631" type="curve" smooth="yes"/>
      <point x="962" y="631"/>
      <point x="967" y="628"/>
      <point x="970" y="623" type="curve"/>
      <point x="973" y="620"/>
      <point x="974" y="616"/>
      <point x="974" y="613" type="curve" smooth="yes"/>
      <point x="974" y="602"/>
      <point x="961" y="585"/>
      <point x="936" y="562" type="curve" smooth="yes"/>
      <point x="863" y="493"/>
      <point x="780" y="440"/>
      <point x="687" y="403" type="curve" smooth="yes"/>
      <point x="638" y="384"/>
      <point x="608" y="374"/>
      <point x="597" y="374" type="curve" smooth="yes"/>
      <point x="592" y="374"/>
      <point x="590" y="375"/>
    </contour>
  </outline>
</glyph>
<glyph name="I" format="2">
  <advance width="740"/>
  <unicode hex="0049"/>
  <outline>
    <contour>
      <point x="7" y="-186" type="curve"/>
      <point x="25" y="-203"/>
      <point x="45" y="-217"/>
      <point x="66" y="-230" type="curve"/>
      <point x="121" y="-262"/>
      <point x="181" y="-278"/>
      <point x="248" y="-278" type="curve" smooth="yes"/>
      <point x="314" y="-278"/>
      <point x="375" y="-267"/>
      <point x="428" y="-244" type="curve" smooth="yes"/>
      <point x="482" y="-221"/>
      <point x="524" y="-190"/>
      <point x="555" y="-149" type="curve" smooth="yes"/>
      <point x="578" y="-118"/>
      <point x="589" y="-83"/>
      <point x="589" y="-44" type="curve" smooth="yes"/>
      <point x="589" y="-37"/>
      <point x="589" y="-30"/>
      <point x="588" y="-23" type="curve"/>
      <point x="586" y="6"/>
      <point x="580" y="30"/>
      <point x="570" y="47" type="curve" smooth="yes"/>
      <point x="560" y="64"/>
      <point x="555" y="76"/>
      <point x="555" y="83" type="curve" smooth="yes"/>
      <point x="555" y="88"/>
      <point x="569" y="100"/>
      <point x="596" y="119" type="curve" smooth="yes"/>
      <point x="629" y="142"/>
      <point x="664" y="174"/>
      <point x="702" y="214" type="curve" smooth="yes"/>
      <point x="735" y="247"/>
      <point x="757" y="267"/>
      <point x="769" y="276" type="curve" smooth="yes"/>
      <point x="781" y="285"/>
      <point x="799" y="295"/>
      <point x="822" y="307" type="curve"/>
      <point x="884" y="336"/>
      <point x="933" y="370"/>
      <point x="970" y="409" type="curve" smooth="yes"/>
      <point x="984" y="424"/>
      <point x="997" y="441"/>
      <point x="1009" y="462" type="curve" smooth="yes"/>
      <point x="1021" y="482"/>
      <point x="1027" y="497"/>
      <point x="1026" y="504" type="curve"/>
      <point x="1026" y="505"/>
      <point x="1026" y="505"/>
      <point x="1025" y="506" type="curve"/>
      <point x="1025" y="506"/>
      <point x="1025" y="506"/>
      <point x="1025" y="507" type="curve"/>
      <point x="1023" y="508"/>
      <point x="1022" y="509"/>
      <point x="1021" y="509" type="curve"/>
      <point x="1016" y="509"/>
      <point x="1004" y="495"/>
      <point x="985" y="468" type="curve" smooth="yes"/>
      <point x="959" y="431"/>
      <point x="920" y="393"/>
      <point x="869" y="356" type="curve"/>
      <point x="837" y="331"/>
      <point x="813" y="319"/>
      <point x="798" y="319" type="curve" smooth="yes"/>
      <point x="795" y="319"/>
      <point x="794" y="320"/>
      <point x="794" y="322" type="curve" smooth="yes"/>
      <point x="794" y="334"/>
      <point x="812" y="365"/>
      <point x="849" y="414" type="curve" smooth="yes"/>
      <point x="870" y="441"/>
      <point x="895" y="469"/>
      <point x="925" y="498" type="curve" smooth="yes"/>
      <point x="955" y="527"/>
      <point x="979" y="548"/>
      <point x="998" y="561" type="curve"/>
      <point x="1035" y="584"/>
      <point x="1085" y="602"/>
      <point x="1147" y="614" type="curve" smooth="yes"/>
      <point x="1173" y="619"/>
      <point x="1186" y="626"/>
      <point x="1186" y="637" type="curve" smooth="yes"/>
      <point x="1186" y="639"/>
      <point x="1186" y="641"/>
      <point x="1185" y="642" type="curve"/>
      <point x="1183" y="647"/>
      <point x="1172" y="649"/>
      <point x="1152" y="649" type="curve" smooth="yes"/>
      <point x="1139" y="649"/>
      <point x="1127" y="647"/>
      <point x="1118" y="644" type="curve" smooth="yes"/>
      <point x="1109" y="641"/>
      <point x="1073" y="633"/>
      <point x="1010" y="621" type="curve" smooth="yes"/>
      <point x="928" y="604"/>
      <point x="868" y="589"/>
      <point x="831" y="576" type="curve" smooth="yes"/>
      <point x="794" y="562"/>
      <point x="757" y="542"/>
      <point x="721" y="515" type="curve" smooth="yes"/>
      <point x="666" y="472"/>
      <point x="639" y="427"/>
      <point x="639" y="380" type="curve" smooth="yes"/>
      <point x="639" y="375"/>
      <point x="639" y="371"/>
      <point x="640" y="367" type="curve"/>
      <point x="641" y="356"/>
      <point x="644" y="346"/>
      <point x="650" y="339" type="curve" smooth="yes"/>
      <point x="658" y="330"/>
      <point x="671" y="318"/>
      <point x="690" y="304" type="curve"/>
      <point x="696" y="299"/>
      <point x="702" y="294"/>
      <point x="708" y="290" type="curve"/>
      <point x="708" y="290"/>
      <point x="708" y="290"/>
      <point x="709" y="290" type="curve"/>
      <point x="684" y="265"/>
      <point x="660" y="239"/>
      <point x="635" y="214" type="curve" smooth="yes"/>
      <point x="591" y="169"/>
      <point x="560" y="139"/>
      <point x="542" y="125" type="curve"/>
      <point x="535" y="120"/>
      <point x="529" y="115"/>
      <point x="523" y="111" type="curve"/>
      <point x="523" y="110"/>
      <point x="523" y="110"/>
      <point x="522" y="111" type="curve"/>
      <point x="503" y="119"/>
      <point x="484" y="128"/>
      <point x="465" y="137" type="curve" smooth="yes"/>
      <point x="422" y="158"/>
      <point x="388" y="171"/>
      <point x="364" y="178" type="curve"/>
      <point x="340" y="184"/>
      <point x="309" y="188"/>
      <point x="270" y="189" type="curve"/>
      <point x="242" y="189" type="line" smooth="yes"/>
      <point x="133" y="189"/>
      <point x="58" y="167"/>
      <point x="18" y="122" type="curve"/>
      <point x="-6" y="97"/>
      <point x="-5" y="70"/>
      <point x="22" y="43" type="curve" smooth="yes"/>
      <point x="37" y="28"/>
      <point x="56" y="17"/>
      <point x="77" y="12" type="curve"/>
      <point x="98" y="6"/>
      <point x="133" y="3"/>
      <point x="182" y="1" type="curve"/>
      <point x="196" y="0"/>
      <point x="213" y="0"/>
      <point x="233" y="0" type="curve" smooth="yes"/>
      <point x="263" y="0"/>
      <point x="296" y="4"/>
      <point x="332" y="12" type="curve" smooth="yes"/>
      <point x="372" y="20"/>
      <point x="413" y="31"/>
      <point x="456" y="45" type="curve" smooth="yes"/>
      <point x="494" y="57"/>
      <point x="516" y="63"/>
      <point x="523" y="63" type="curve" smooth="yes"/>
      <point x="546" y="63"/>
      <point x="558" y="26"/>
      <point x="558" y="-48" type="curve" smooth="yes"/>
      <point x="558" y="-106"/>
      <point x="531" y="-151"/>
      <point x="477" y="-183" type="curve" smooth="yes"/>
      <point x="438" y="-205"/>
      <point x="392" y="-221"/>
      <point x="338" y="-231" type="curve" smooth="yes"/>
      <point x="295" y="-238"/>
      <point x="261" y="-242"/>
      <point x="234" y="-242" type="curve" smooth="yes"/>
      <point x="165" y="-242"/>
      <point x="95" y="-219"/>
      <point x="25" y="-172" type="curve" smooth="yes"/>
      <point x="3" y="-157"/>
      <point x="-11" y="-150"/>
      <point x="-17" y="-150" type="curve" smooth="yes"/>
      <point x="-20" y="-150"/>
      <point x="-21" y="-152"/>
      <point x="-21" y="-153" type="curve"/>
      <point x="-21" y="-158"/>
      <point x="-12" y="-169"/>
    </contour>
    <contour>
      <point x="672" y="346" type="curve"/>
      <point x="667" y="356"/>
      <point x="664" y="368"/>
      <point x="664" y="381" type="curve" smooth="yes"/>
      <point x="664" y="410"/>
      <point x="677" y="440"/>
      <point x="702" y="471" type="curve" smooth="yes"/>
      <point x="724" y="497"/>
      <point x="760" y="521"/>
      <point x="811" y="544" type="curve" smooth="yes"/>
      <point x="862" y="567"/>
      <point x="909" y="579"/>
      <point x="952" y="581" type="curve" smooth="yes"/>
      <point x="974" y="582" type="line"/>
      <point x="975" y="582" type="line"/>
      <point x="856" y="464" type="line" smooth="yes"/>
      <point x="787" y="396"/>
      <point x="743" y="353"/>
      <point x="722" y="335" type="curve"/>
      <point x="714" y="329"/>
      <point x="707" y="326"/>
      <point x="700" y="326" type="curve" smooth="yes"/>
      <point x="688" y="326"/>
      <point x="679" y="333"/>
    </contour>
    <contour>
      <point x="47" y="55" type="curve"/>
      <point x="38" y="62"/>
      <point x="33" y="73"/>
      <point x="33" y="86" type="curve" smooth="yes"/>
      <point x="33" y="97"/>
      <point x="37" y="106"/>
      <point x="44" y="113" type="curve"/>
      <point x="60" y="131"/>
      <point x="93" y="147"/>
      <point x="144" y="161" type="curve"/>
      <point x="165" y="166"/>
      <point x="196" y="169"/>
      <point x="235" y="169" type="curve" smooth="yes"/>
      <point x="294" y="169"/>
      <point x="341" y="163"/>
      <point x="376" y="152" type="curve" smooth="yes"/>
      <point x="437" y="132"/>
      <point x="473" y="116"/>
      <point x="484" y="104" type="curve"/>
      <point x="488" y="101"/>
      <point x="487" y="100"/>
      <point x="487" y="99" type="curve"/>
      <point x="487" y="91"/>
      <point x="463" y="79"/>
      <point x="415" y="64" type="curve" smooth="yes"/>
      <point x="375" y="51"/>
      <point x="345" y="43"/>
      <point x="325" y="40" type="curve" smooth="yes"/>
      <point x="305" y="37"/>
      <point x="270" y="34"/>
      <point x="219" y="33" type="curve"/>
      <point x="207" y="32"/>
      <point x="190" y="32"/>
      <point x="169" y="32" type="curve" smooth="yes"/>
      <point x="105" y="32"/>
      <point x="64" y="40"/>
    </contour>
  </outline>
</glyph>
<glyph name="J" format="2">
  <advance width="880"/>
  <unicode hex="004A"/>
  <outline>
    <contour>
      <point x="57" y="-330" type="curve" smooth="yes"/>
      <point x="49" y="-330"/>
      <point x="43" y="-340"/>
      <point x="75" y="-361" type="curve"/>
      <point x="90" y="-372"/>
      <point x="109" y="-382"/>
      <point x="130" y="-391" type="curve" smooth="yes"/>
      <point x="147" y="-398"/>
      <point x="161" y="-403"/>
      <point x="172" y="-404" type="curve" smooth="yes"/>
      <point x="212" y="-408"/>
      <point x="242" y="-410"/>
      <point x="263" y="-410" type="curve" smooth="yes"/>
      <point x="323" y="-410"/>
      <point x="378" y="-401"/>
      <point x="429" y="-384" type="curve" smooth="yes"/>
      <point x="472" y="-369"/>
      <point x="511" y="-343"/>
      <point x="546" y="-305" type="curve" smooth="yes"/>
      <point x="566" y="-282"/>
      <point x="580" y="-262"/>
      <point x="587" y="-245" type="curve" smooth="yes"/>
      <point x="594" y="-228"/>
      <point x="597" y="-204"/>
      <point x="597" y="-171" type="curve" smooth="yes"/>
      <point x="597" y="-138"/>
      <point x="592" y="-111"/>
      <point x="581" y="-89" type="curve" smooth="yes"/>
      <point x="571" y="-69"/>
      <point x="566" y="-56"/>
      <point x="566" y="-51" type="curve" smooth="yes"/>
      <point x="566" y="-48"/>
      <point x="577" y="-39"/>
      <point x="600" y="-23" type="curve" smooth="yes"/>
      <point x="605" y="-20"/>
      <point x="664" y="37"/>
      <point x="776" y="147" type="curve" smooth="yes"/>
      <point x="791" y="162"/>
      <point x="841" y="211"/>
      <point x="924" y="292" type="curve"/>
      <point x="924" y="292" type="line"/>
      <point x="958" y="308"/>
      <point x="976" y="316"/>
      <point x="977" y="317" type="curve"/>
      <point x="1038" y="346"/>
      <point x="1083" y="377"/>
      <point x="1113" y="410" type="curve" smooth="yes"/>
      <point x="1125" y="422"/>
      <point x="1138" y="438"/>
      <point x="1151" y="459" type="curve" smooth="yes"/>
      <point x="1167" y="485"/>
      <point x="1175" y="503"/>
      <point x="1175" y="513" type="curve" smooth="yes"/>
      <point x="1175" y="517"/>
      <point x="1174" y="519"/>
      <point x="1171" y="519" type="curve"/>
      <point x="1164" y="518"/>
      <point x="1155" y="509"/>
      <point x="1143" y="490" type="curve" smooth="yes"/>
      <point x="1128" y="467"/>
      <point x="1103" y="439"/>
      <point x="1068" y="406" type="curve" smooth="yes"/>
      <point x="1033" y="373"/>
      <point x="1005" y="351"/>
      <point x="982" y="340" type="curve" smooth="yes"/>
      <point x="970" y="334"/>
      <point x="962" y="331"/>
      <point x="959" y="331" type="curve" smooth="yes"/>
      <point x="954" y="331"/>
      <point x="952" y="335"/>
      <point x="952" y="343" type="curve" smooth="yes"/>
      <point x="952" y="356"/>
      <point x="972" y="388"/>
      <point x="1013" y="439" type="curve" smooth="yes"/>
      <point x="1054" y="489"/>
      <point x="1088" y="525"/>
      <point x="1117" y="548" type="curve" smooth="yes"/>
      <point x="1155" y="579"/>
      <point x="1204" y="602"/>
      <point x="1263" y="617" type="curve" smooth="yes"/>
      <point x="1296" y="626"/>
      <point x="1315" y="631"/>
      <point x="1322" y="634" type="curve" smooth="yes"/>
      <point x="1329" y="637"/>
      <point x="1332" y="641"/>
      <point x="1332" y="646" type="curve" smooth="yes"/>
      <point x="1332" y="656"/>
      <point x="1324" y="661"/>
      <point x="1309" y="661" type="curve" smooth="yes"/>
      <point x="1298" y="661"/>
      <point x="1281" y="658"/>
      <point x="1260" y="651" type="curve" smooth="yes"/>
      <point x="1242" y="646"/>
      <point x="1203" y="638"/>
      <point x="1143" y="627" type="curve" smooth="yes"/>
      <point x="1083" y="617"/>
      <point x="1034" y="605"/>
      <point x="997" y="592" type="curve" smooth="yes"/>
      <point x="959" y="579"/>
      <point x="922" y="559"/>
      <point x="885" y="534" type="curve" smooth="yes"/>
      <point x="858" y="516"/>
      <point x="836" y="492"/>
      <point x="818" y="463" type="curve" smooth="yes"/>
      <point x="799" y="434"/>
      <point x="790" y="408"/>
      <point x="790" y="385" type="curve" smooth="yes"/>
      <point x="790" y="377"/>
      <point x="791" y="371"/>
      <point x="793" y="366" type="curve" smooth="yes"/>
      <point x="799" y="354"/>
      <point x="811" y="340"/>
      <point x="828" y="324" type="curve"/>
      <point x="829" y="324"/>
      <point x="839" y="315"/>
      <point x="858" y="297" type="curve"/>
      <point x="858" y="297"/>
      <point x="858" y="297"/>
      <point x="859" y="297" type="curve"/>
      <point x="806" y="244"/>
      <point x="754" y="192"/>
      <point x="701" y="140" type="curve"/>
      <point x="596" y="33"/>
      <point x="540" y="-21"/>
      <point x="533" y="-21" type="curve" smooth="yes"/>
      <point x="524" y="-21"/>
      <point x="500" y="-11"/>
      <point x="461" y="9" type="curve" smooth="yes"/>
      <point x="423" y="28"/>
      <point x="389" y="41"/>
      <point x="359" y="48" type="curve" smooth="yes"/>
      <point x="335" y="54"/>
      <point x="300" y="57"/>
      <point x="254" y="57" type="curve" smooth="yes"/>
      <point x="173" y="57"/>
      <point x="109" y="43"/>
      <point x="61" y="16" type="curve" smooth="yes"/>
      <point x="1" y="-17"/>
      <point x="-15" y="-51"/>
      <point x="14" y="-85" type="curve" smooth="yes"/>
      <point x="25" y="-98"/>
      <point x="36" y="-107"/>
      <point x="48" y="-112" type="curve" smooth="yes"/>
      <point x="75" y="-125"/>
      <point x="124" y="-131"/>
      <point x="195" y="-131" type="curve" smooth="yes"/>
      <point x="214" y="-131"/>
      <point x="228" y="-131"/>
      <point x="237" y="-130" type="curve" smooth="yes"/>
      <point x="300" y="-125"/>
      <point x="337" y="-122"/>
      <point x="348" y="-119" type="curve"/>
      <point x="378" y="-114"/>
      <point x="413" y="-105"/>
      <point x="453" y="-93" type="curve" smooth="yes"/>
      <point x="493" y="-81"/>
      <point x="520" y="-75"/>
      <point x="533" y="-74" type="curve"/>
      <point x="554" y="-74"/>
      <point x="566" y="-101"/>
      <point x="569" y="-156" type="curve" smooth="yes"/>
      <point x="570" y="-170"/>
      <point x="570" y="-184"/>
      <point x="569" y="-198" type="curve" smooth="yes"/>
      <point x="568" y="-230"/>
      <point x="556" y="-258"/>
      <point x="533" y="-281" type="curve" smooth="yes"/>
      <point x="476" y="-336"/>
      <point x="389" y="-366"/>
      <point x="271" y="-371" type="curve"/>
      <point x="261" y="-372"/>
      <point x="247" y="-372"/>
      <point x="230" y="-372" type="curve"/>
      <point x="177" y="-371"/>
      <point x="132" y="-362"/>
      <point x="97" y="-345" type="curve" smooth="yes"/>
      <point x="75" y="-335"/>
      <point x="62" y="-330"/>
    </contour>
    <contour>
      <point x="814" y="392" type="curve" smooth="yes"/>
      <point x="814" y="399"/>
      <point x="815" y="404"/>
      <point x="816" y="407" type="curve" smooth="yes"/>
      <point x="824" y="454"/>
      <point x="859" y="496"/>
      <point x="920" y="533" type="curve" smooth="yes"/>
      <point x="981" y="570"/>
      <point x="1039" y="589"/>
      <point x="1092" y="588" type="curve"/>
      <point x="1126" y="588" type="line"/>
      <point x="1127" y="588" type="line"/>
      <point x="1126" y="587" type="line"/>
      <point x="1100" y="565" type="line" smooth="yes"/>
      <point x="1086" y="553"/>
      <point x="1044" y="512"/>
      <point x="974" y="442" type="curve" smooth="yes"/>
      <point x="904" y="372"/>
      <point x="865" y="337"/>
      <point x="857" y="336" type="curve"/>
      <point x="832" y="336"/>
      <point x="814" y="359"/>
    </contour>
    <contour>
      <point x="56" y="-86" type="curve" smooth="yes"/>
      <point x="21" y="-65"/>
      <point x="19" y="-43"/>
      <point x="50" y="-20" type="curve" smooth="yes"/>
      <point x="71" y="-5"/>
      <point x="111" y="17"/>
      <point x="203" y="37" type="curve"/>
      <point x="213" y="38"/>
      <point x="228" y="39"/>
      <point x="248" y="39" type="curve" smooth="yes"/>
      <point x="299" y="39"/>
      <point x="361" y="26"/>
      <point x="434" y="-1" type="curve" smooth="yes"/>
      <point x="477" y="-16"/>
      <point x="498" y="-28"/>
      <point x="498" y="-36" type="curve" smooth="yes"/>
      <point x="498" y="-41"/>
      <point x="488" y="-48"/>
      <point x="467" y="-56" type="curve" smooth="yes"/>
      <point x="385" y="-88"/>
      <point x="294" y="-104"/>
      <point x="193" y="-104" type="curve" smooth="yes"/>
      <point x="172" y="-104"/>
      <point x="151" y="-103"/>
      <point x="131" y="-101" type="curve" smooth="yes"/>
      <point x="91" y="-97"/>
      <point x="66" y="-92"/>
    </contour>
  </outline>
</glyph>
<glyph name="L" format="2">
  <advance width="866"/>
  <unicode hex="004C"/>
  <outline>
    <contour>
      <point x="11" y="43" type="curve"/>
      <point x="20" y="34"/>
      <point x="32" y="26"/>
      <point x="49" y="19" type="curve" smooth="yes"/>
      <point x="108" y="-5"/>
      <point x="198" y="-7"/>
      <point x="319" y="12" type="curve"/>
      <point x="346" y="17"/>
      <point x="390" y="29"/>
      <point x="453" y="48" type="curve" smooth="yes"/>
      <point x="483" y="57"/>
      <point x="506" y="63"/>
      <point x="522" y="65" type="curve" smooth="yes"/>
      <point x="539" y="67"/>
      <point x="578" y="69"/>
      <point x="640" y="70" type="curve" smooth="yes"/>
      <point x="714" y="71"/>
      <point x="759" y="74"/>
      <point x="775" y="77" type="curve" smooth="yes"/>
      <point x="797" y="81"/>
      <point x="816" y="90"/>
      <point x="833" y="104" type="curve"/>
      <point x="842" y="111"/>
      <point x="850" y="120"/>
      <point x="857" y="130" type="curve"/>
      <point x="864" y="141"/>
      <point x="867" y="148"/>
      <point x="867" y="152" type="curve" smooth="yes"/>
      <point x="867" y="154"/>
      <point x="866" y="155"/>
      <point x="865" y="155" type="curve"/>
      <point x="862" y="155"/>
      <point x="856" y="148"/>
      <point x="845" y="135" type="curve" smooth="yes"/>
      <point x="830" y="118"/>
      <point x="815" y="106"/>
      <point x="798" y="101" type="curve" smooth="yes"/>
      <point x="782" y="96"/>
      <point x="748" y="94"/>
      <point x="696" y="93" type="curve"/>
      <point x="656" y="93" type="line" smooth="yes"/>
      <point x="615" y="93"/>
      <point x="591" y="94"/>
      <point x="584" y="95" type="curve"/>
      <point x="563" y="100" type="line"/>
      <point x="562" y="100" type="line"/>
      <point x="600" y="128" type="line" smooth="yes"/>
      <point x="626" y="148"/>
      <point x="660" y="179"/>
      <point x="701" y="222" type="curve" smooth="yes"/>
      <point x="731" y="253"/>
      <point x="751" y="272"/>
      <point x="762" y="281" type="curve" smooth="yes"/>
      <point x="773" y="290"/>
      <point x="788" y="298"/>
      <point x="809" y="306" type="curve" smooth="yes"/>
      <point x="865" y="328"/>
      <point x="910" y="357"/>
      <point x="944" y="393" type="curve" smooth="yes"/>
      <point x="960" y="410"/>
      <point x="976" y="431"/>
      <point x="993" y="455" type="curve" smooth="yes"/>
      <point x="1010" y="479"/>
      <point x="1018" y="494"/>
      <point x="1018" y="500" type="curve" smooth="yes"/>
      <point x="1018" y="506"/>
      <point x="1017" y="509"/>
      <point x="1014" y="509" type="curve"/>
      <point x="1009" y="510"/>
      <point x="998" y="499"/>
      <point x="983" y="478" type="curve" smooth="yes"/>
      <point x="960" y="445"/>
      <point x="927" y="412"/>
      <point x="886" y="378" type="curve" smooth="yes"/>
      <point x="842" y="341"/>
      <point x="812" y="323"/>
      <point x="797" y="323" type="curve" smooth="yes"/>
      <point x="795" y="323" type="line"/>
      <point x="784" y="324" type="line"/>
      <point x="783" y="324" type="line"/>
      <point x="783" y="325" type="line"/>
      <point x="795" y="348" type="line" smooth="yes"/>
      <point x="812" y="379"/>
      <point x="839" y="417"/>
      <point x="878" y="461" type="curve" smooth="yes"/>
      <point x="915" y="502"/>
      <point x="948" y="533"/>
      <point x="978" y="553" type="curve" smooth="yes"/>
      <point x="1015" y="578"/>
      <point x="1061" y="597"/>
      <point x="1117" y="611" type="curve" smooth="yes"/>
      <point x="1158" y="622"/>
      <point x="1179" y="631"/>
      <point x="1179" y="640" type="curve" smooth="yes"/>
      <point x="1179" y="643"/>
      <point x="1177" y="645"/>
      <point x="1173" y="648" type="curve"/>
      <point x="1168" y="651"/>
      <point x="1162" y="652"/>
      <point x="1153" y="652" type="curve" smooth="yes"/>
      <point x="1144" y="652"/>
      <point x="1124" y="648"/>
      <point x="1093" y="640" type="curve"/>
      <point x="1062" y="633"/>
      <point x="1019" y="624"/>
      <point x="963" y="613" type="curve" smooth="yes"/>
      <point x="907" y="603"/>
      <point x="860" y="591"/>
      <point x="823" y="577" type="curve" smooth="yes"/>
      <point x="785" y="563"/>
      <point x="751" y="544"/>
      <point x="720" y="520" type="curve" smooth="yes"/>
      <point x="685" y="493"/>
      <point x="659" y="462"/>
      <point x="643" y="426" type="curve" smooth="yes"/>
      <point x="635" y="408"/>
      <point x="631" y="393"/>
      <point x="631" y="380" type="curve" smooth="yes"/>
      <point x="631" y="355"/>
      <point x="645" y="333"/>
      <point x="673" y="314" type="curve" smooth="yes"/>
      <point x="687" y="305"/>
      <point x="694" y="297"/>
      <point x="694" y="290" type="curve" smooth="yes"/>
      <point x="694" y="285"/>
      <point x="666" y="254"/>
      <point x="609" y="198" type="curve" smooth="yes"/>
      <point x="552" y="141"/>
      <point x="521" y="113"/>
      <point x="516" y="113" type="curve" smooth="yes"/>
      <point x="512" y="113"/>
      <point x="495" y="120"/>
      <point x="464" y="135" type="curve"/>
      <point x="439" y="148"/>
      <point x="407" y="160"/>
      <point x="368" y="173" type="curve" smooth="yes"/>
      <point x="329" y="186"/>
      <point x="283" y="192"/>
      <point x="232" y="192" type="curve" smooth="yes"/>
      <point x="181" y="192"/>
      <point x="133" y="185"/>
      <point x="90" y="172" type="curve" smooth="yes"/>
      <point x="49" y="159"/>
      <point x="22" y="142"/>
      <point x="9" y="121" type="curve"/>
      <point x="3" y="110"/>
      <point x="0" y="97"/>
      <point x="0" y="80" type="curve" smooth="yes"/>
      <point x="0" y="63"/>
      <point x="4" y="51"/>
    </contour>
    <contour>
      <point x="666" y="345" type="curve"/>
      <point x="659" y="357"/>
      <point x="655" y="370"/>
      <point x="655" y="384" type="curve" smooth="yes"/>
      <point x="655" y="437"/>
      <point x="705" y="498"/>
      <point x="782" y="538" type="curve"/>
      <point x="805" y="549"/>
      <point x="834" y="559"/>
      <point x="868" y="569" type="curve" smooth="yes"/>
      <point x="902" y="579"/>
      <point x="927" y="584"/>
      <point x="944" y="583" type="curve"/>
      <point x="952" y="583"/>
      <point x="956" y="582"/>
      <point x="956" y="580" type="curve" smooth="yes"/>
      <point x="956" y="577"/>
      <point x="921" y="541"/>
      <point x="852" y="470" type="curve" smooth="yes"/>
      <point x="783" y="399"/>
      <point x="738" y="355"/>
      <point x="719" y="338" type="curve"/>
      <point x="708" y="329"/>
      <point x="699" y="325"/>
      <point x="692" y="325" type="curve" smooth="yes"/>
      <point x="684" y="325"/>
      <point x="675" y="332"/>
    </contour>
    <contour>
      <point x="49" y="48" type="curve" smooth="yes"/>
      <point x="28" y="59"/>
      <point x="18" y="71"/>
      <point x="18" y="85" type="curve" smooth="yes"/>
      <point x="18" y="102"/>
      <point x="34" y="118"/>
      <point x="66" y="135" type="curve" smooth="yes"/>
      <point x="115" y="160"/>
      <point x="170" y="173"/>
      <point x="232" y="173" type="curve" smooth="yes"/>
      <point x="261" y="173"/>
      <point x="288" y="170"/>
      <point x="313" y="165" type="curve" smooth="yes"/>
      <point x="339" y="160"/>
      <point x="371" y="151"/>
      <point x="410" y="137" type="curve" smooth="yes"/>
      <point x="449" y="122"/>
      <point x="470" y="112"/>
      <point x="475" y="106" type="curve"/>
      <point x="478" y="101"/>
      <point x="480" y="99"/>
      <point x="480" y="98" type="curve"/>
      <point x="479" y="92"/>
      <point x="465" y="84"/>
      <point x="437" y="74" type="curve" smooth="yes"/>
      <point x="388" y="57"/>
      <point x="351" y="46"/>
      <point x="326" y="42" type="curve" smooth="yes"/>
      <point x="285" y="35"/>
      <point x="242" y="32"/>
      <point x="196" y="32" type="curve" smooth="yes"/>
      <point x="173" y="32"/>
      <point x="135" y="34"/>
      <point x="84" y="37" type="curve" smooth="yes"/>
      <point x="72" y="38"/>
      <point x="60" y="42"/>
    </contour>
  </outline>
</glyph>
<glyph name="N" format="2">
  <advance width="970"/>
  <unicode hex="004E"/>
  <outline>
    <contour>
      <point x="25" y="-203" type="curve"/>
      <point x="49" y="-228"/>
      <point x="86" y="-249"/>
      <point x="135" y="-267" type="curve"/>
      <point x="157" y="-276"/>
      <point x="184" y="-280"/>
      <point x="217" y="-280" type="curve" smooth="yes"/>
      <point x="276" y="-280"/>
      <point x="329" y="-271"/>
      <point x="377" y="-252" type="curve" smooth="yes"/>
      <point x="412" y="-238"/>
      <point x="445" y="-217"/>
      <point x="477" y="-189" type="curve"/>
      <point x="510" y="-162"/>
      <point x="533" y="-133"/>
      <point x="547" y="-104" type="curve" smooth="yes"/>
      <point x="558" y="-81"/>
      <point x="564" y="-56"/>
      <point x="564" y="-29" type="curve" smooth="yes"/>
      <point x="564" y="-3"/>
      <point x="560" y="22"/>
      <point x="551" y="45" type="curve" smooth="yes"/>
      <point x="545" y="60"/>
      <point x="542" y="74"/>
      <point x="542" y="86" type="curve"/>
      <point x="543" y="98"/>
      <point x="548" y="106"/>
      <point x="556" y="109" type="curve" smooth="yes"/>
      <point x="582" y="121"/>
      <point x="690" y="208"/>
      <point x="879" y="369" type="curve" smooth="yes"/>
      <point x="929" y="411"/>
      <point x="956" y="432"/>
      <point x="960" y="432" type="curve"/>
      <point x="961" y="432"/>
      <point x="961" y="432"/>
      <point x="961" y="431" type="curve"/>
      <point x="961" y="426"/>
      <point x="953" y="411"/>
      <point x="937" y="387" type="curve" smooth="yes"/>
      <point x="921" y="363"/>
      <point x="896" y="321"/>
      <point x="861" y="262" type="curve" smooth="yes"/>
      <point x="826" y="203"/>
      <point x="799" y="160"/>
      <point x="780" y="132" type="curve"/>
      <point x="760" y="105"/>
      <point x="737" y="77"/>
      <point x="710" y="48" type="curve" smooth="yes"/>
      <point x="681" y="18"/>
      <point x="666" y="-1"/>
      <point x="666" y="-8" type="curve" smooth="yes"/>
      <point x="666" y="-16"/>
      <point x="672" y="-16"/>
      <point x="685" y="-9" type="curve" smooth="yes"/>
      <point x="696" y="-2"/>
      <point x="705" y="5"/>
      <point x="712" y="12" type="curve" smooth="yes"/>
      <point x="755" y="55"/>
      <point x="837" y="125"/>
      <point x="957" y="221" type="curve" smooth="yes"/>
      <point x="1077" y="316"/>
      <point x="1177" y="392"/>
      <point x="1258" y="449" type="curve" smooth="yes"/>
      <point x="1303" y="480"/>
      <point x="1330" y="500"/>
      <point x="1341" y="509" type="curve" smooth="yes"/>
      <point x="1351" y="518"/>
      <point x="1356" y="524"/>
      <point x="1356" y="529" type="curve" smooth="yes"/>
      <point x="1356" y="534"/>
      <point x="1354" y="536"/>
      <point x="1351" y="536" type="curve" smooth="yes"/>
      <point x="1347" y="536"/>
      <point x="1333" y="527"/>
      <point x="1310" y="509" type="curve"/>
      <point x="1264" y="476"/>
      <point x="1240" y="458"/>
      <point x="1237" y="457" type="curve" smooth="yes"/>
      <point x="1200" y="439"/>
      <point x="1112" y="375"/>
      <point x="972" y="266" type="curve" smooth="yes"/>
      <point x="931" y="233"/>
      <point x="906" y="214"/>
      <point x="897" y="208" type="curve" smooth="yes"/>
      <point x="888" y="203"/>
      <point x="884" y="200"/>
      <point x="883" y="200" type="curve"/>
      <point x="882" y="200"/>
      <point x="882" y="200"/>
      <point x="882" y="201" type="curve"/>
      <point x="882" y="202"/>
      <point x="883" y="205"/>
      <point x="884" y="209" type="curve" smooth="yes"/>
      <point x="888" y="220"/>
      <point x="911" y="262"/>
      <point x="954" y="337" type="curve" smooth="yes"/>
      <point x="997" y="412"/>
      <point x="1025" y="460"/>
      <point x="1040" y="482" type="curve" smooth="yes"/>
      <point x="1055" y="503"/>
      <point x="1083" y="533"/>
      <point x="1123" y="572" type="curve" smooth="yes"/>
      <point x="1163" y="611"/>
      <point x="1183" y="633"/>
      <point x="1183" y="639" type="curve" smooth="yes"/>
      <point x="1183" y="642"/>
      <point x="1182" y="644"/>
      <point x="1179" y="644" type="curve" smooth="yes"/>
      <point x="1174" y="644"/>
      <point x="1167" y="641"/>
      <point x="1157" y="634" type="curve" smooth="yes"/>
      <point x="1145" y="626"/>
      <point x="1101" y="588"/>
      <point x="1024" y="521" type="curve" smooth="yes"/>
      <point x="913" y="424"/>
      <point x="806" y="333"/>
      <point x="701" y="248" type="curve" smooth="yes"/>
      <point x="596" y="162"/>
      <point x="537" y="117"/>
      <point x="522" y="113" type="curve"/>
      <point x="522" y="112"/>
      <point x="522" y="112"/>
      <point x="522" y="113" type="curve"/>
      <point x="521" y="112"/>
      <point x="521" y="112"/>
      <point x="520" y="112" type="curve"/>
      <point x="517" y="112" type="line" smooth="yes"/>
      <point x="510" y="112"/>
      <point x="499" y="117"/>
      <point x="484" y="126" type="curve" smooth="yes"/>
      <point x="417" y="170"/>
      <point x="330" y="192"/>
      <point x="223" y="192" type="curve" smooth="yes"/>
      <point x="133" y="192"/>
      <point x="66" y="170"/>
      <point x="22" y="126" type="curve" smooth="yes"/>
      <point x="-5" y="99"/>
      <point x="-7" y="71"/>
      <point x="18" y="44" type="curve" smooth="yes"/>
      <point x="31" y="31"/>
      <point x="46" y="21"/>
      <point x="63" y="15" type="curve" smooth="yes"/>
      <point x="80" y="9"/>
      <point x="106" y="4"/>
      <point x="140" y="1" type="curve" smooth="yes"/>
      <point x="148" y="0"/>
      <point x="156" y="0"/>
      <point x="164" y="0" type="curve" smooth="yes"/>
      <point x="200" y="0"/>
      <point x="241" y="3"/>
      <point x="288" y="8" type="curve"/>
      <point x="337" y="15"/>
      <point x="393" y="30"/>
      <point x="456" y="53" type="curve" smooth="yes"/>
      <point x="483" y="63"/>
      <point x="501" y="68"/>
      <point x="509" y="68" type="curve" smooth="yes"/>
      <point x="529" y="68"/>
      <point x="539" y="37"/>
      <point x="539" y="-24" type="curve" smooth="yes"/>
      <point x="539" y="-57"/>
      <point x="534" y="-83"/>
      <point x="523" y="-102" type="curve" smooth="yes"/>
      <point x="514" y="-119"/>
      <point x="503" y="-134"/>
      <point x="488" y="-149" type="curve" smooth="yes"/>
      <point x="473" y="-164"/>
      <point x="460" y="-175"/>
      <point x="448" y="-182" type="curve" smooth="yes"/>
      <point x="403" y="-207"/>
      <point x="365" y="-223"/>
      <point x="336" y="-230" type="curve"/>
      <point x="291" y="-239"/>
      <point x="249" y="-244"/>
      <point x="212" y="-244" type="curve" smooth="yes"/>
      <point x="146" y="-244"/>
      <point x="91" y="-226"/>
      <point x="46" y="-191" type="curve"/>
      <point x="32" y="-179"/>
      <point x="21" y="-173"/>
      <point x="13" y="-173" type="curve" smooth="yes"/>
      <point x="9" y="-173"/>
      <point x="7" y="-175"/>
      <point x="7" y="-178" type="curve" smooth="yes"/>
      <point x="7" y="-183"/>
      <point x="13" y="-192"/>
    </contour>
    <contour>
      <point x="33" y="74" type="curve"/>
      <point x="33" y="82" type="line" smooth="yes"/>
      <point x="33" y="111"/>
      <point x="57" y="134"/>
      <point x="105" y="151" type="curve" smooth="yes"/>
      <point x="143" y="164"/>
      <point x="192" y="170"/>
      <point x="253" y="167" type="curve"/>
      <point x="309" y="166"/>
      <point x="350" y="163"/>
      <point x="377" y="156" type="curve" smooth="yes"/>
      <point x="403" y="149"/>
      <point x="433" y="135"/>
      <point x="466" y="114" type="curve"/>
      <point x="484" y="104"/>
      <point x="489" y="99"/>
      <point x="480" y="92" type="curve" smooth="yes"/>
      <point x="474" y="87"/>
      <point x="448" y="77"/>
      <point x="402" y="62" type="curve" smooth="yes"/>
      <point x="354" y="47"/>
      <point x="311" y="39"/>
      <point x="273" y="36" type="curve" smooth="yes"/>
      <point x="230" y="32"/>
      <point x="196" y="30"/>
      <point x="171" y="30" type="curve" smooth="yes"/>
      <point x="82" y="30"/>
      <point x="36" y="45"/>
    </contour>
  </outline>
</glyph>
<glyph name="O" format="2">
  <advance width="820"/>
  <unicode hex="004F"/>
  <outline>
    <contour>
      <point x="58" y="297" type="curve" smooth="yes"/>
      <point x="80" y="282"/>
      <point x="103" y="273"/>
      <point x="126" y="272" type="curve" smooth="yes"/>
      <point x="149" y="271"/>
      <point x="161" y="270"/>
      <point x="163" y="270" type="curve"/>
      <point x="177" y="269"/>
      <point x="188" y="269"/>
      <point x="196" y="268" type="curve" smooth="yes"/>
      <point x="204" y="267"/>
      <point x="218" y="267"/>
      <point x="237" y="267" type="curve"/>
      <point x="312" y="268"/>
      <point x="362" y="273"/>
      <point x="385" y="280" type="curve" smooth="yes"/>
      <point x="390" y="281"/>
      <point x="395" y="282"/>
      <point x="399" y="283" type="curve"/>
      <point x="403" y="283"/>
      <point x="405" y="281"/>
      <point x="405" y="277" type="curve" smooth="yes"/>
      <point x="405" y="270"/>
      <point x="400" y="260"/>
      <point x="389" y="247" type="curve" smooth="yes"/>
      <point x="338" y="182"/>
      <point x="313" y="122"/>
      <point x="313" y="68" type="curve" smooth="yes"/>
      <point x="313" y="23"/>
      <point x="341" y="0"/>
      <point x="398" y="0" type="curve" smooth="yes"/>
      <point x="413" y="0"/>
      <point x="425" y="1"/>
      <point x="433" y="3" type="curve"/>
      <point x="491" y="13"/>
      <point x="556" y="43"/>
      <point x="627" y="92" type="curve" smooth="yes"/>
      <point x="702" y="143"/>
      <point x="797" y="224"/>
      <point x="914" y="333" type="curve" smooth="yes"/>
      <point x="991" y="406"/>
      <point x="1042" y="450"/>
      <point x="1067" y="463" type="curve" smooth="yes"/>
      <point x="1098" y="479"/>
      <point x="1126" y="508"/>
      <point x="1153" y="549" type="curve"/>
      <point x="1170" y="578"/>
      <point x="1179" y="596"/>
      <point x="1179" y="604" type="curve" smooth="yes"/>
      <point x="1179" y="607"/>
      <point x="1178" y="608"/>
      <point x="1176" y="608" type="curve" smooth="yes"/>
      <point x="1169" y="608"/>
      <point x="1153" y="591"/>
      <point x="1129" y="558" type="curve"/>
      <point x="1122" y="547"/>
      <point x="1110" y="533"/>
      <point x="1094" y="517" type="curve" smooth="yes"/>
      <point x="1078" y="500"/>
      <point x="1067" y="492"/>
      <point x="1062" y="492" type="curve" smooth="yes"/>
      <point x="1059" y="492"/>
      <point x="1058" y="493"/>
      <point x="1058" y="496" type="curve" smooth="yes"/>
      <point x="1058" y="503"/>
      <point x="1064" y="514"/>
      <point x="1076" y="530" type="curve" smooth="yes"/>
      <point x="1088" y="546"/>
      <point x="1099" y="564"/>
      <point x="1110" y="584" type="curve" smooth="yes"/>
      <point x="1132" y="624"/>
      <point x="1128" y="630"/>
      <point x="1119" y="630" type="curve" smooth="yes"/>
      <point x="1110" y="630"/>
      <point x="1098" y="622"/>
      <point x="1083" y="605" type="curve" smooth="yes"/>
      <point x="1069" y="590"/>
      <point x="1053" y="565"/>
      <point x="1035" y="529" type="curve" smooth="yes"/>
      <point x="1004" y="468"/>
      <point x="946" y="397"/>
      <point x="863" y="316" type="curve" smooth="yes"/>
      <point x="665" y="123"/>
      <point x="512" y="26"/>
      <point x="405" y="26" type="curve" smooth="yes"/>
      <point x="402" y="26" type="line" smooth="yes"/>
      <point x="360" y="26"/>
      <point x="339" y="39"/>
      <point x="339" y="66" type="curve" smooth="yes"/>
      <point x="339" y="85"/>
      <point x="350" y="110"/>
      <point x="371" y="143" type="curve" smooth="yes"/>
      <point x="389" y="171"/>
      <point x="410" y="199"/>
      <point x="436" y="227" type="curve" smooth="yes"/>
      <point x="461" y="255"/>
      <point x="485" y="277"/>
      <point x="506" y="293" type="curve" smooth="yes"/>
      <point x="531" y="313"/>
      <point x="558" y="327"/>
      <point x="585" y="336" type="curve" smooth="yes"/>
      <point x="683" y="369"/>
      <point x="775" y="413"/>
      <point x="861" y="470" type="curve" smooth="yes"/>
      <point x="918" y="507"/>
      <point x="957" y="541"/>
      <point x="976" y="571" type="curve" smooth="yes"/>
      <point x="987" y="588"/>
      <point x="993" y="602"/>
      <point x="993" y="614" type="curve" smooth="yes"/>
      <point x="993" y="635"/>
      <point x="979" y="645"/>
      <point x="951" y="645" type="curve" smooth="yes"/>
      <point x="934" y="645"/>
      <point x="915" y="641"/>
      <point x="896" y="633" type="curve" smooth="yes"/>
      <point x="852" y="615"/>
      <point x="794" y="581"/>
      <point x="721" y="530" type="curve" smooth="yes"/>
      <point x="644" y="477"/>
      <point x="569" y="419"/>
      <point x="494" y="356" type="curve" smooth="yes"/>
      <point x="467" y="334"/>
      <point x="443" y="319"/>
      <point x="422" y="311" type="curve" smooth="yes"/>
      <point x="385" y="298"/>
      <point x="327" y="291"/>
      <point x="247" y="291" type="curve" smooth="yes"/>
      <point x="167" y="291"/>
      <point x="112" y="298"/>
      <point x="82" y="312" type="curve"/>
      <point x="47" y="327"/>
      <point x="30" y="353"/>
      <point x="30" y="388" type="curve"/>
      <point x="31" y="413"/>
      <point x="41" y="437"/>
      <point x="63" y="458" type="curve" smooth="yes"/>
      <point x="85" y="480"/>
      <point x="112" y="495"/>
      <point x="146" y="504" type="curve" smooth="yes"/>
      <point x="179" y="513"/>
      <point x="227" y="517"/>
      <point x="289" y="517" type="curve" smooth="yes"/>
      <point x="328" y="517"/>
      <point x="366" y="512"/>
      <point x="404" y="502" type="curve" smooth="yes"/>
      <point x="442" y="492"/>
      <point x="465" y="487"/>
      <point x="472" y="487" type="curve" smooth="yes"/>
      <point x="475" y="487"/>
      <point x="476" y="488"/>
      <point x="476" y="490" type="curve" smooth="yes"/>
      <point x="476" y="492"/>
      <point x="474" y="495"/>
      <point x="470" y="500" type="curve" smooth="yes"/>
      <point x="461" y="511"/>
      <point x="431" y="522"/>
      <point x="380" y="536" type="curve" smooth="yes"/>
      <point x="329" y="549"/>
      <point x="290" y="556"/>
      <point x="261" y="556" type="curve" smooth="yes"/>
      <point x="175" y="556"/>
      <point x="105" y="531"/>
      <point x="51" y="481" type="curve" smooth="yes"/>
      <point x="17" y="450"/>
      <point x="0" y="420"/>
      <point x="0" y="389" type="curve" smooth="yes"/>
      <point x="0" y="354"/>
      <point x="19" y="324"/>
    </contour>
    <contour>
      <point x="568" y="360" type="curve"/>
      <point x="569" y="369"/>
      <point x="604" y="402"/>
      <point x="674" y="459" type="curve" smooth="yes"/>
      <point x="744" y="516"/>
      <point x="801" y="557"/>
      <point x="846" y="583" type="curve"/>
      <point x="886" y="608"/>
      <point x="920" y="620"/>
      <point x="949" y="620" type="curve" smooth="yes"/>
      <point x="958" y="620"/>
      <point x="963" y="618"/>
      <point x="965" y="614" type="curve" smooth="yes"/>
      <point x="966" y="611"/>
      <point x="967" y="609"/>
      <point x="967" y="606" type="curve" smooth="yes"/>
      <point x="967" y="593"/>
      <point x="952" y="572"/>
      <point x="923" y="543" type="curve" smooth="yes"/>
      <point x="900" y="520"/>
      <point x="876" y="500"/>
      <point x="852" y="484" type="curve" smooth="yes"/>
      <point x="828" y="468"/>
      <point x="793" y="449"/>
      <point x="746" y="426" type="curve" smooth="yes"/>
      <point x="651" y="379"/>
      <point x="594" y="356"/>
      <point x="574" y="356" type="curve" smooth="yes"/>
      <point x="570" y="356"/>
      <point x="568" y="357"/>
    </contour>
  </outline>
</glyph>
<glyph name="Q" format="2">
  <advance width="820"/>
  <unicode hex="0051"/>
  <outline>
    <contour>
      <point x="86" y="283" type="curve" smooth="yes"/>
      <point x="97" y="279"/>
      <point x="124" y="275"/>
      <point x="169" y="271" type="curve" smooth="yes"/>
      <point x="178" y="270"/>
      <point x="192" y="270"/>
      <point x="212" y="270" type="curve" smooth="yes"/>
      <point x="319" y="270"/>
      <point x="386" y="274"/>
      <point x="413" y="282" type="curve" smooth="yes"/>
      <point x="421" y="285"/>
      <point x="425" y="284"/>
      <point x="425" y="279" type="curve" smooth="yes"/>
      <point x="425" y="273"/>
      <point x="416" y="258"/>
      <point x="399" y="234" type="curve"/>
      <point x="374" y="196"/>
      <point x="354" y="158"/>
      <point x="341" y="119" type="curve" smooth="yes"/>
      <point x="334" y="97"/>
      <point x="330" y="81"/>
      <point x="330" y="70" type="curve" smooth="yes"/>
      <point x="330" y="60"/>
      <point x="334" y="49"/>
      <point x="341" y="36" type="curve" smooth="yes"/>
      <point x="352" y="17"/>
      <point x="378" y="6"/>
      <point x="419" y="1" type="curve"/>
      <point x="462" y="-3"/>
      <point x="473" y="-9"/>
      <point x="473" y="-28" type="curve" smooth="yes"/>
      <point x="473" y="-38"/>
      <point x="465" y="-52"/>
      <point x="450" y="-70" type="curve" smooth="yes"/>
      <point x="435" y="-89"/>
      <point x="423" y="-98"/>
      <point x="415" y="-98" type="curve"/>
      <point x="414" y="-98"/>
      <point x="413" y="-98"/>
      <point x="412" y="-97" type="curve" smooth="yes"/>
      <point x="409" y="-94"/>
      <point x="408" y="-88"/>
      <point x="408" y="-78" type="curve" smooth="yes"/>
      <point x="408" y="-68"/>
      <point x="407" y="-62"/>
      <point x="406" y="-60" type="curve"/>
      <point x="405" y="-59"/>
      <point x="401" y="-57"/>
      <point x="394" y="-55" type="curve" smooth="yes"/>
      <point x="392" y="-54"/>
      <point x="389" y="-54"/>
      <point x="385" y="-54" type="curve" smooth="yes"/>
      <point x="370" y="-54"/>
      <point x="363" y="-63"/>
      <point x="363" y="-81" type="curve" smooth="yes"/>
      <point x="363" y="-84"/>
      <point x="363" y="-86"/>
      <point x="363" y="-88" type="curve" smooth="yes"/>
      <point x="363" y="-111"/>
      <point x="377" y="-122"/>
      <point x="405" y="-122" type="curve" smooth="yes"/>
      <point x="439" y="-122"/>
      <point x="465" y="-109"/>
      <point x="484" y="-83" type="curve" smooth="yes"/>
      <point x="491" y="-74"/>
      <point x="494" y="-60"/>
      <point x="495" y="-41" type="curve"/>
      <point x="496" y="-35"/>
      <point x="496" y="-29"/>
      <point x="496" y="-24" type="curve" smooth="yes"/>
      <point x="496" y="13"/>
      <point x="496" y="18"/>
      <point x="504" y="18" type="curve" smooth="yes"/>
      <point x="509" y="18"/>
      <point x="530" y="28"/>
      <point x="565" y="47" type="curve" smooth="yes"/>
      <point x="600" y="66"/>
      <point x="631" y="84"/>
      <point x="658" y="102" type="curve" smooth="yes"/>
      <point x="720" y="143"/>
      <point x="805" y="215"/>
      <point x="914" y="318" type="curve" smooth="yes"/>
      <point x="1001" y="401"/>
      <point x="1057" y="449"/>
      <point x="1081" y="462" type="curve"/>
      <point x="1106" y="474"/>
      <point x="1131" y="496"/>
      <point x="1157" y="528" type="curve" smooth="yes"/>
      <point x="1183" y="561"/>
      <point x="1196" y="586"/>
      <point x="1196" y="603" type="curve"/>
      <point x="1197" y="606"/>
      <point x="1197" y="610"/>
      <point x="1196" y="613" type="curve" smooth="yes"/>
      <point x="1194" y="618" type="line"/>
      <point x="1194" y="617"/>
      <point x="1192" y="616"/>
      <point x="1188" y="614" type="curve"/>
      <point x="1187" y="613"/>
      <point x="1184" y="611"/>
      <point x="1181" y="607" type="curve" smooth="yes"/>
      <point x="1178" y="603"/>
      <point x="1174" y="597"/>
      <point x="1169" y="590" type="curve" smooth="yes"/>
      <point x="1163" y="583"/>
      <point x="1155" y="573"/>
      <point x="1146" y="560" type="curve" smooth="yes"/>
      <point x="1137" y="547"/>
      <point x="1125" y="533"/>
      <point x="1112" y="516" type="curve" smooth="yes"/>
      <point x="1099" y="499"/>
      <point x="1089" y="491"/>
      <point x="1082" y="491" type="curve" smooth="yes"/>
      <point x="1077" y="491"/>
      <point x="1074" y="494"/>
      <point x="1074" y="499" type="curve" smooth="yes"/>
      <point x="1074" y="504"/>
      <point x="1076" y="509"/>
      <point x="1081" y="514" type="curve" smooth="yes"/>
      <point x="1092" y="526"/>
      <point x="1106" y="546"/>
      <point x="1121" y="574" type="curve" smooth="yes"/>
      <point x="1137" y="603"/>
      <point x="1145" y="621"/>
      <point x="1145" y="629" type="curve" smooth="yes"/>
      <point x="1145" y="633"/>
      <point x="1142" y="635"/>
      <point x="1137" y="635" type="curve" smooth="yes"/>
      <point x="1132" y="635"/>
      <point x="1122" y="628"/>
      <point x="1108" y="613" type="curve" smooth="yes"/>
      <point x="1086" y="590"/>
      <point x="1066" y="561"/>
      <point x="1048" y="525" type="curve" smooth="yes"/>
      <point x="1021" y="472"/>
      <point x="970" y="408"/>
      <point x="895" y="333" type="curve" smooth="yes"/>
      <point x="820" y="257"/>
      <point x="744" y="192"/>
      <point x="667" y="137" type="curve" smooth="yes"/>
      <point x="590" y="82"/>
      <point x="527" y="48"/>
      <point x="478" y="36" type="curve" smooth="yes"/>
      <point x="459" y="31"/>
      <point x="439" y="28"/>
      <point x="420" y="28" type="curve" smooth="yes"/>
      <point x="401" y="28"/>
      <point x="386" y="31"/>
      <point x="374" y="38" type="curve" smooth="yes"/>
      <point x="361" y="45"/>
      <point x="355" y="55"/>
      <point x="355" y="67" type="curve" smooth="yes"/>
      <point x="355" y="84"/>
      <point x="367" y="111"/>
      <point x="391" y="146" type="curve" smooth="yes"/>
      <point x="415" y="182"/>
      <point x="445" y="219"/>
      <point x="481" y="258" type="curve" smooth="yes"/>
      <point x="517" y="296"/>
      <point x="556" y="322"/>
      <point x="598" y="335" type="curve" smooth="yes"/>
      <point x="693" y="365"/>
      <point x="785" y="410"/>
      <point x="876" y="469" type="curve" smooth="yes"/>
      <point x="917" y="496"/>
      <point x="950" y="523"/>
      <point x="974" y="550" type="curve" smooth="yes"/>
      <point x="999" y="578"/>
      <point x="1011" y="601"/>
      <point x="1010" y="619" type="curve"/>
      <point x="1010" y="630"/>
      <point x="1006" y="638"/>
      <point x="999" y="643" type="curve" smooth="yes"/>
      <point x="992" y="648"/>
      <point x="982" y="650"/>
      <point x="971" y="650" type="curve" smooth="yes"/>
      <point x="960" y="650"/>
      <point x="945" y="647"/>
      <point x="926" y="640" type="curve" smooth="yes"/>
      <point x="887" y="626"/>
      <point x="828" y="592"/>
      <point x="748" y="539" type="curve" smooth="yes"/>
      <point x="659" y="479"/>
      <point x="585" y="424"/>
      <point x="528" y="373" type="curve" smooth="yes"/>
      <point x="489" y="338"/>
      <point x="464" y="320"/>
      <point x="451" y="317" type="curve" smooth="yes"/>
      <point x="382" y="300"/>
      <point x="311" y="292"/>
      <point x="237" y="292" type="curve" smooth="yes"/>
      <point x="166" y="292"/>
      <point x="116" y="298"/>
      <point x="88" y="310" type="curve" smooth="yes"/>
      <point x="65" y="319"/>
      <point x="49" y="330"/>
      <point x="42" y="343" type="curve" smooth="yes"/>
      <point x="35" y="356"/>
      <point x="31" y="371"/>
      <point x="31" y="388" type="curve" smooth="yes"/>
      <point x="31" y="402"/>
      <point x="34" y="415"/>
      <point x="39" y="427" type="curve" smooth="yes"/>
      <point x="42" y="434"/>
      <point x="48" y="442"/>
      <point x="59" y="453" type="curve" smooth="yes"/>
      <point x="86" y="483"/>
      <point x="126" y="502"/>
      <point x="177" y="510" type="curve" smooth="yes"/>
      <point x="228" y="518"/>
      <point x="270" y="522"/>
      <point x="303" y="522" type="curve" smooth="yes"/>
      <point x="339" y="522"/>
      <point x="385" y="515"/>
      <point x="441" y="501" type="curve" smooth="yes"/>
      <point x="470" y="494"/>
      <point x="487" y="490"/>
      <point x="491" y="490" type="curve" smooth="yes"/>
      <point x="496" y="490"/>
      <point x="498" y="491"/>
      <point x="498" y="493" type="curve" smooth="yes"/>
      <point x="498" y="495"/>
      <point x="497" y="497"/>
      <point x="494" y="499" type="curve" smooth="yes"/>
      <point x="483" y="510"/>
      <point x="453" y="522"/>
      <point x="404" y="536" type="curve" smooth="yes"/>
      <point x="355" y="549"/>
      <point x="307" y="556"/>
      <point x="261" y="556" type="curve" smooth="yes"/>
      <point x="240" y="556"/>
      <point x="219" y="555"/>
      <point x="199" y="552" type="curve" smooth="yes"/>
      <point x="149" y="545"/>
      <point x="103" y="524"/>
      <point x="62" y="490" type="curve" smooth="yes"/>
      <point x="21" y="456"/>
      <point x="0" y="422"/>
      <point x="0" y="389" type="curve" smooth="yes"/>
      <point x="0" y="374"/>
      <point x="2" y="362"/>
      <point x="7" y="353" type="curve" smooth="yes"/>
      <point x="11" y="344"/>
      <point x="20" y="332"/>
      <point x="34" y="318" type="curve" smooth="yes"/>
      <point x="51" y="301"/>
      <point x="69" y="289"/>
    </contour>
    <contour>
      <point x="585" y="361" type="curve"/>
      <point x="585" y="362" type="line"/>
      <point x="585" y="373"/>
      <point x="618" y="404"/>
      <point x="685" y="457" type="curve" smooth="yes"/>
      <point x="752" y="510"/>
      <point x="809" y="551"/>
      <point x="858" y="581" type="curve"/>
      <point x="909" y="610"/>
      <point x="945" y="624"/>
      <point x="966" y="624" type="curve" smooth="yes"/>
      <point x="974" y="624"/>
      <point x="980" y="622"/>
      <point x="984" y="617" type="curve"/>
      <point x="985" y="616"/>
      <point x="986" y="613"/>
      <point x="986" y="609" type="curve" smooth="yes"/>
      <point x="986" y="601"/>
      <point x="974" y="584"/>
      <point x="950" y="557" type="curve" smooth="yes"/>
      <point x="908" y="511"/>
      <point x="846" y="468"/>
      <point x="763" y="427" type="curve"/>
      <point x="666" y="382"/>
      <point x="609" y="359"/>
      <point x="590" y="359" type="curve" smooth="yes"/>
      <point x="588" y="359"/>
      <point x="586" y="360"/>
    </contour>
  </outline>
</glyph>
<glyph name="R" format="2">
  <advance width="1029"/>
  <unicode hex="0052"/>
  <outline>
    <contour>
      <point x="9" y="-177" type="curve"/>
      <point x="9" y="-185"/>
      <point x="24" y="-199"/>
      <point x="53" y="-219" type="curve" smooth="yes"/>
      <point x="87" y="-242"/>
      <point x="134" y="-259"/>
      <point x="195" y="-272" type="curve"/>
      <point x="225" y="-277"/>
      <point x="261" y="-278"/>
      <point x="304" y="-273" type="curve" smooth="yes"/>
      <point x="400" y="-262"/>
      <point x="473" y="-230"/>
      <point x="522" y="-179" type="curve" smooth="yes"/>
      <point x="544" y="-157"/>
      <point x="559" y="-137"/>
      <point x="567" y="-119" type="curve" smooth="yes"/>
      <point x="574" y="-101"/>
      <point x="578" y="-77"/>
      <point x="578" y="-46" type="curve" smooth="yes"/>
      <point x="578" y="-15"/>
      <point x="575" y="10"/>
      <point x="569" y="28" type="curve" smooth="yes"/>
      <point x="565" y="39"/>
      <point x="563" y="47"/>
      <point x="563" y="52" type="curve" smooth="yes"/>
      <point x="563" y="59"/>
      <point x="567" y="67"/>
      <point x="575" y="75" type="curve" smooth="yes"/>
      <point x="583" y="82"/>
      <point x="601" y="96"/>
      <point x="629" y="116" type="curve" smooth="yes"/>
      <point x="694" y="163"/>
      <point x="765" y="235"/>
      <point x="841" y="334" type="curve" smooth="yes"/>
      <point x="907" y="419"/>
      <point x="959" y="479"/>
      <point x="996" y="514" type="curve" smooth="yes"/>
      <point x="1037" y="553"/>
      <point x="1069" y="573"/>
      <point x="1092" y="573" type="curve" smooth="yes"/>
      <point x="1107" y="573"/>
      <point x="1117" y="565"/>
      <point x="1124" y="549" type="curve" smooth="yes"/>
      <point x="1127" y="542"/>
      <point x="1129" y="535"/>
      <point x="1129" y="528" type="curve"/>
      <point x="1128" y="507"/>
      <point x="1121" y="484"/>
      <point x="1108" y="457" type="curve" smooth="yes"/>
      <point x="1095" y="429"/>
      <point x="1077" y="402"/>
      <point x="1054" y="377" type="curve" smooth="yes"/>
      <point x="1035" y="356"/>
      <point x="1020" y="343"/>
      <point x="1009" y="338" type="curve" smooth="yes"/>
      <point x="996" y="331"/>
      <point x="975" y="324"/>
      <point x="948" y="319" type="curve"/>
      <point x="897" y="308"/>
      <point x="871" y="299"/>
      <point x="871" y="293" type="curve" smooth="yes"/>
      <point x="871" y="288"/>
      <point x="887" y="285"/>
      <point x="919" y="285" type="curve" smooth="yes"/>
      <point x="960" y="285"/>
      <point x="981" y="280"/>
      <point x="981" y="269" type="curve" smooth="yes"/>
      <point x="981" y="258"/>
      <point x="962" y="233"/>
      <point x="923" y="192" type="curve" smooth="yes"/>
      <point x="871" y="137"/>
      <point x="845" y="98"/>
      <point x="845" y="77" type="curve" smooth="yes"/>
      <point x="845" y="56"/>
      <point x="868" y="29"/>
      <point x="904" y="29" type="curve" smooth="yes"/>
      <point x="929" y="29"/>
      <point x="956" y="36"/>
      <point x="985" y="49" type="curve" smooth="yes"/>
      <point x="1014" y="62"/>
      <point x="1028" y="74"/>
      <point x="1028" y="86" type="curve" smooth="yes"/>
      <point x="1028" y="89"/>
      <point x="1027" y="91"/>
      <point x="1026" y="91" type="curve"/>
      <point x="1021" y="91"/>
      <point x="1005" y="85"/>
      <point x="979" y="74" type="curve" smooth="yes"/>
      <point x="948" y="61"/>
      <point x="922" y="54"/>
      <point x="900" y="54" type="curve" smooth="yes"/>
      <point x="889" y="54" type="line" smooth="yes"/>
      <point x="882" y="54"/>
      <point x="878" y="57"/>
      <point x="878" y="63" type="curve"/>
      <point x="879" y="74"/>
      <point x="894" y="98"/>
      <point x="925" y="133" type="curve" smooth="yes"/>
      <point x="956" y="170"/>
      <point x="977" y="197"/>
      <point x="987" y="215" type="curve" smooth="yes"/>
      <point x="997" y="233"/>
      <point x="1002" y="253"/>
      <point x="1002" y="275" type="curve" smooth="yes"/>
      <point x="1002" y="309" type="line"/>
      <point x="1002" y="309"/>
      <point x="1010" y="314"/>
      <point x="1027" y="323" type="curve" smooth="yes"/>
      <point x="1044" y="332"/>
      <point x="1067" y="350"/>
      <point x="1095" y="377" type="curve" smooth="yes"/>
      <point x="1123" y="404"/>
      <point x="1141" y="426"/>
      <point x="1148" y="443" type="curve" smooth="yes"/>
      <point x="1157" y="464"/>
      <point x="1161" y="482"/>
      <point x="1161" y="499" type="curve" smooth="yes"/>
      <point x="1161" y="511"/>
      <point x="1159" y="522"/>
      <point x="1154" y="533" type="curve" smooth="yes"/>
      <point x="1145" y="554"/>
      <point x="1140" y="570"/>
      <point x="1140" y="581" type="curve" smooth="yes"/>
      <point x="1140" y="592"/>
      <point x="1144" y="598"/>
      <point x="1151" y="600" type="curve" smooth="yes"/>
      <point x="1160" y="602"/>
      <point x="1165" y="608"/>
      <point x="1165" y="618" type="curve" smooth="yes"/>
      <point x="1165" y="623"/>
      <point x="1163" y="625"/>
      <point x="1158" y="625" type="curve" smooth="yes"/>
      <point x="1153" y="625"/>
      <point x="1141" y="622"/>
      <point x="1124" y="617" type="curve" smooth="yes"/>
      <point x="1111" y="613"/>
      <point x="1101" y="611"/>
      <point x="1095" y="611" type="curve" smooth="yes"/>
      <point x="1088" y="611"/>
      <point x="1071" y="614"/>
      <point x="1043" y="619" type="curve" smooth="yes"/>
      <point x="1015" y="624"/>
      <point x="985" y="627"/>
      <point x="954" y="627" type="curve" smooth="yes"/>
      <point x="925" y="627"/>
      <point x="893" y="624"/>
      <point x="859" y="617" type="curve" smooth="yes"/>
      <point x="816" y="608" type="line"/>
      <point x="816" y="608" type="line"/>
      <point x="782" y="624" type="line" smooth="yes"/>
      <point x="747" y="641"/>
      <point x="714" y="650"/>
      <point x="685" y="650" type="curve" smooth="yes"/>
      <point x="669" y="650"/>
      <point x="655" y="648"/>
      <point x="642" y="645" type="curve" smooth="yes"/>
      <point x="593" y="634"/>
      <point x="547" y="614"/>
      <point x="504" y="587" type="curve" smooth="yes"/>
      <point x="455" y="556"/>
      <point x="415" y="522"/>
      <point x="384" y="483" type="curve" smooth="yes"/>
      <point x="332" y="418"/>
      <point x="306" y="376"/>
      <point x="306" y="355" type="curve" smooth="yes"/>
      <point x="306" y="353"/>
      <point x="306" y="352"/>
      <point x="307" y="351" type="curve" smooth="yes"/>
      <point x="308" y="350"/>
      <point x="309" y="349"/>
      <point x="310" y="349" type="curve"/>
      <point x="318" y="353"/>
      <point x="334" y="373"/>
      <point x="359" y="409" type="curve" smooth="yes"/>
      <point x="386" y="450"/>
      <point x="422" y="488"/>
      <point x="465" y="525" type="curve" smooth="yes"/>
      <point x="504" y="559"/>
      <point x="542" y="583"/>
      <point x="578" y="598" type="curve" smooth="yes"/>
      <point x="606" y="609"/>
      <point x="641" y="615"/>
      <point x="683" y="615" type="curve" smooth="yes"/>
      <point x="692" y="615"/>
      <point x="701" y="615"/>
      <point x="710" y="614" type="curve" smooth="yes"/>
      <point x="743" y="612"/>
      <point x="764" y="608"/>
      <point x="771" y="603" type="curve"/>
      <point x="772" y="602"/>
      <point x="772" y="601"/>
      <point x="772" y="599" type="curve"/>
      <point x="773" y="593"/>
      <point x="754" y="578"/>
      <point x="713" y="553" type="curve" smooth="yes"/>
      <point x="648" y="514"/>
      <point x="594" y="471"/>
      <point x="550" y="425" type="curve" smooth="yes"/>
      <point x="509" y="382"/>
      <point x="485" y="345"/>
      <point x="478" y="313" type="curve"/>
      <point x="478" y="312"/>
      <point x="478" y="310"/>
      <point x="477" y="309" type="curve"/>
      <point x="477" y="308"/>
      <point x="477" y="307"/>
      <point x="477" y="306" type="curve"/>
      <point x="476" y="299"/>
      <point x="480" y="291"/>
      <point x="489" y="281" type="curve" smooth="yes"/>
      <point x="503" y="265"/>
      <point x="518" y="257"/>
      <point x="535" y="257" type="curve" smooth="yes"/>
      <point x="543" y="257"/>
      <point x="552" y="259"/>
      <point x="563" y="262" type="curve" smooth="yes"/>
      <point x="610" y="277"/>
      <point x="657" y="303"/>
      <point x="705" y="342" type="curve" smooth="yes"/>
      <point x="750" y="378"/>
      <point x="782" y="415"/>
      <point x="800" y="453" type="curve" smooth="yes"/>
      <point x="811" y="477"/>
      <point x="818" y="503"/>
      <point x="821" y="530" type="curve" smooth="yes"/>
      <point x="824" y="559"/>
      <point x="827" y="576"/>
      <point x="831" y="580" type="curve" smooth="yes"/>
      <point x="840" y="589"/>
      <point x="877" y="593"/>
      <point x="942" y="593" type="curve" smooth="yes"/>
      <point x="1007" y="593"/>
      <point x="1039" y="589"/>
      <point x="1040" y="581" type="curve" smooth="yes"/>
      <point x="1041" y="577"/>
      <point x="1024" y="562"/>
      <point x="989" y="535" type="curve" smooth="yes"/>
      <point x="921" y="483"/>
      <point x="841" y="402"/>
      <point x="749" y="292" type="curve" smooth="yes"/>
      <point x="656" y="182"/>
      <point x="591" y="116"/>
      <point x="554" y="95" type="curve"/>
      <point x="553" y="95"/>
      <point x="545" y="90"/>
      <point x="528" y="81" type="curve"/>
      <point x="528" y="81"/>
      <point x="528" y="81"/>
      <point x="528" y="81" type="curve"/>
      <point x="516" y="89"/>
      <point x="504" y="97"/>
      <point x="493" y="105" type="curve" smooth="yes"/>
      <point x="454" y="132"/>
      <point x="414" y="153"/>
      <point x="373" y="167" type="curve" smooth="yes"/>
      <point x="333" y="180"/>
      <point x="285" y="190"/>
      <point x="228" y="196" type="curve" smooth="yes"/>
      <point x="223" y="197"/>
      <point x="214" y="197"/>
      <point x="203" y="197" type="curve" smooth="yes"/>
      <point x="143" y="197"/>
      <point x="98" y="190"/>
      <point x="68" y="175" type="curve" smooth="yes"/>
      <point x="50" y="166"/>
      <point x="34" y="154"/>
      <point x="19" y="138" type="curve" smooth="yes"/>
      <point x="-4" y="113"/>
      <point x="-6" y="88"/>
      <point x="13" y="65" type="curve" smooth="yes"/>
      <point x="24" y="52"/>
      <point x="37" y="41"/>
      <point x="52" y="32" type="curve" smooth="yes"/>
      <point x="74" y="19"/>
      <point x="99" y="11"/>
      <point x="126" y="7" type="curve" smooth="yes"/>
      <point x="153" y="2"/>
      <point x="193" y="0"/>
      <point x="244" y="0" type="curve" smooth="yes"/>
      <point x="296" y="0"/>
      <point x="336" y="2"/>
      <point x="365" y="6" type="curve" smooth="yes"/>
      <point x="394" y="10"/>
      <point x="433" y="19"/>
      <point x="483" y="33" type="curve" smooth="yes"/>
      <point x="499" y="38"/>
      <point x="511" y="41"/>
      <point x="520" y="41" type="curve" smooth="yes"/>
      <point x="524" y="41"/>
      <point x="528" y="40"/>
      <point x="531" y="39" type="curve" smooth="yes"/>
      <point x="548" y="30"/>
      <point x="556" y="4"/>
      <point x="556" y="-39" type="curve" smooth="yes"/>
      <point x="556" y="-63"/>
      <point x="553" y="-83"/>
      <point x="546" y="-99" type="curve" smooth="yes"/>
      <point x="539" y="-115"/>
      <point x="528" y="-132"/>
      <point x="513" y="-149" type="curve" smooth="yes"/>
      <point x="498" y="-166"/>
      <point x="483" y="-179"/>
      <point x="468" y="-188" type="curve"/>
      <point x="445" y="-200"/>
      <point x="421" y="-209"/>
      <point x="398" y="-215" type="curve" smooth="yes"/>
      <point x="331" y="-233"/>
      <point x="291" y="-242"/>
      <point x="277" y="-242" type="curve"/>
      <point x="210" y="-243"/>
      <point x="144" y="-228"/>
      <point x="79" y="-199" type="curve"/>
      <point x="42" y="-181"/>
      <point x="20" y="-172"/>
      <point x="13" y="-172" type="curve"/>
      <point x="12" y="-172"/>
      <point x="12" y="-173"/>
      <point x="11" y="-174" type="curve" smooth="yes"/>
      <point x="10" y="-175"/>
      <point x="9" y="-176"/>
    </contour>
    <contour>
      <point x="501" y="301" type="curve" smooth="yes"/>
      <point x="501" y="309"/>
      <point x="508" y="326"/>
      <point x="522" y="351" type="curve" smooth="yes"/>
      <point x="536" y="376"/>
      <point x="549" y="395"/>
      <point x="560" y="408" type="curve" smooth="yes"/>
      <point x="591" y="443"/>
      <point x="644" y="483"/>
      <point x="718" y="527" type="curve" smooth="yes"/>
      <point x="754" y="549"/>
      <point x="776" y="560"/>
      <point x="785" y="560" type="curve" smooth="yes"/>
      <point x="793" y="560"/>
      <point x="797" y="553"/>
      <point x="797" y="539" type="curve" smooth="yes"/>
      <point x="797" y="511"/>
      <point x="782" y="478"/>
      <point x="753" y="439" type="curve" smooth="yes"/>
      <point x="724" y="400"/>
      <point x="687" y="365"/>
      <point x="644" y="332" type="curve" smooth="yes"/>
      <point x="597" y="297"/>
      <point x="558" y="280"/>
      <point x="527" y="280" type="curve" smooth="yes"/>
      <point x="510" y="280"/>
      <point x="501" y="287"/>
    </contour>
    <contour>
      <point x="46" y="67" type="curve" smooth="yes"/>
      <point x="36" y="74"/>
      <point x="31" y="84"/>
      <point x="31" y="96" type="curve" smooth="yes"/>
      <point x="31" y="127"/>
      <point x="66" y="150"/>
      <point x="107" y="157" type="curve"/>
      <point x="126" y="161"/>
      <point x="158" y="163"/>
      <point x="202" y="163" type="curve" smooth="yes"/>
      <point x="225" y="163" type="line"/>
      <point x="264" y="162"/>
      <point x="294" y="161"/>
      <point x="314" y="158" type="curve"/>
      <point x="328" y="157"/>
      <point x="344" y="153"/>
      <point x="361" y="146" type="curve" smooth="yes"/>
      <point x="385" y="137"/>
      <point x="411" y="126"/>
      <point x="439" y="112" type="curve" smooth="yes"/>
      <point x="467" y="98"/>
      <point x="485" y="88"/>
      <point x="492" y="81" type="curve" smooth="yes"/>
      <point x="497" y="76"/>
      <point x="500" y="72"/>
      <point x="500" y="71" type="curve"/>
      <point x="500" y="67"/>
      <point x="482" y="60"/>
      <point x="447" y="50" type="curve"/>
      <point x="396" y="37"/>
      <point x="329" y="30"/>
      <point x="245" y="30" type="curve" smooth="yes"/>
      <point x="218" y="30"/>
      <point x="195" y="31"/>
      <point x="175" y="34" type="curve" smooth="yes"/>
      <point x="106" y="43"/>
      <point x="63" y="54"/>
    </contour>
  </outline>
</glyph>
